M48
INCH,TZ
T1C0.0315
T2C0.0354
T3C0.0394
T4C0.0433
T5C0.1260
%
G90
G05
T1
X49400Y-26700
X49400Y-27700
X49400Y-28700
X49400Y-29700
X49400Y-30700
X49400Y-31700
X49400Y-32700
X49400Y-33700
X49500Y-37200
X49500Y-41200
X50200Y-44800
X50200Y-48800
X52300Y-39600
X52300Y-43600
X52400Y-26700
X52400Y-27700
X52400Y-28700
X52400Y-29700
X52400Y-30700
X52400Y-31700
X52400Y-32700
X52400Y-33700
X53000Y-15100
X53000Y-19100
X53000Y-47500
X53000Y-51500
T2
X42600Y-53740
X42600Y-54740
X47400Y-53740
X47400Y-54740
X53100Y-53740
X53100Y-54740
T3
X40300Y-53100
X40300Y-54100
X40300Y-55100
X40300Y-56100
X40300Y-57100
X40300Y-58100
X40300Y-59100
X40300Y-60100
X41300Y-16600
X41300Y-17600
X41300Y-18600
X41300Y-19600
X41300Y-20600
X41300Y-21600
X41300Y-22600
X41300Y-26700
X41300Y-27700
X41300Y-28700
X41300Y-29700
X41300Y-30700
X41300Y-31700
X41300Y-32700
X41300Y-33700
X41300Y-34700
X41300Y-35700
X41300Y-36700
X41300Y-37700
X41300Y-38700
X41300Y-39700
X41300Y-40700
X41300Y-41700
X41300Y-42700
X41300Y-43700
X41300Y-44700
X41300Y-45700
X41300Y-46700
X41300Y-47700
X41300Y-48700
X41300Y-49700
X46500Y-57000
X46916Y-18000
X47300Y-26692
X47300Y-27692
X47300Y-28692
X47300Y-29692
X47300Y-30692
X47300Y-31692
X47300Y-32692
X47300Y-33692
X47300Y-34692
X47300Y-35692
X47300Y-36692
X47300Y-37692
X47300Y-38692
X47300Y-39692
X47300Y-40692
X47300Y-41692
X47300Y-42692
X47300Y-43692
X47300Y-44692
X47300Y-45692
X47300Y-46692
X47300Y-47692
X47300Y-48692
X47300Y-49692
X47484Y-57000
X47900Y-18000
X52500Y-57000
X53484Y-57000
T4
X44300Y-46500
X44300Y-50500
T5
X43110Y-57283
X43898Y-21850
X50297Y-21750
T0
M30
