G04 #@! TF.GenerationSoftware,KiCad,Pcbnew,(5.1.10-1-10_14)*
G04 #@! TF.CreationDate,2021-07-19T21:53:09+01:00*
G04 #@! TF.ProjectId,sofbpcb,736f6662-7063-4622-9e6b-696361645f70,1*
G04 #@! TF.SameCoordinates,Original*
G04 #@! TF.FileFunction,Copper,L2,Bot*
G04 #@! TF.FilePolarity,Positive*
%FSLAX46Y46*%
G04 Gerber Fmt 4.6, Leading zero omitted, Abs format (unit mm)*
G04 Created by KiCad (PCBNEW (5.1.10-1-10_14)) date 2021-07-19 21:53:09*
%MOMM*%
%LPD*%
G01*
G04 APERTURE LIST*
G04 #@! TA.AperFunction,ComponentPad*
%ADD10C,6.400000*%
G04 #@! TD*
G04 #@! TA.AperFunction,ComponentPad*
%ADD11R,1.700000X1.700000*%
G04 #@! TD*
G04 #@! TA.AperFunction,ComponentPad*
%ADD12O,1.700000X1.700000*%
G04 #@! TD*
G04 #@! TA.AperFunction,ComponentPad*
%ADD13O,1.700000X2.000000*%
G04 #@! TD*
G04 #@! TA.AperFunction,ComponentPad*
%ADD14C,1.600000*%
G04 #@! TD*
G04 #@! TA.AperFunction,ComponentPad*
%ADD15O,1.600000X1.600000*%
G04 #@! TD*
G04 #@! TA.AperFunction,ComponentPad*
%ADD16R,1.600000X1.600000*%
G04 #@! TD*
G04 #@! TA.AperFunction,ComponentPad*
%ADD17R,2.200000X2.200000*%
G04 #@! TD*
G04 #@! TA.AperFunction,ComponentPad*
%ADD18O,2.200000X2.200000*%
G04 #@! TD*
G04 #@! TA.AperFunction,ComponentPad*
%ADD19R,1.800000X1.800000*%
G04 #@! TD*
G04 #@! TA.AperFunction,ComponentPad*
%ADD20C,1.800000*%
G04 #@! TD*
G04 #@! TA.AperFunction,Conductor*
%ADD21C,0.254000*%
G04 #@! TD*
G04 #@! TA.AperFunction,Conductor*
%ADD22C,0.100000*%
G04 #@! TD*
G04 APERTURE END LIST*
D10*
X127754000Y-55246000D03*
X111500000Y-55500000D03*
X109500000Y-145500000D03*
D11*
X104902000Y-42164000D03*
D12*
X104902000Y-44704000D03*
X104902000Y-47244000D03*
X104902000Y-49784000D03*
X104902000Y-52324000D03*
X104902000Y-54864000D03*
X104902000Y-57404000D03*
D13*
X120610000Y-144780000D03*
G04 #@! TA.AperFunction,ComponentPad*
G36*
G01*
X117260000Y-145530000D02*
X117260000Y-144030000D01*
G75*
G02*
X117510000Y-143780000I250000J0D01*
G01*
X118710000Y-143780000D01*
G75*
G02*
X118960000Y-144030000I0J-250000D01*
G01*
X118960000Y-145530000D01*
G75*
G02*
X118710000Y-145780000I-250000J0D01*
G01*
X117510000Y-145780000D01*
G75*
G02*
X117260000Y-145530000I0J250000D01*
G01*
G37*
G04 #@! TD.AperFunction*
G04 #@! TA.AperFunction,ComponentPad*
G36*
G01*
X122516000Y-44970000D02*
X122516000Y-46470000D01*
G75*
G02*
X122266000Y-46720000I-250000J0D01*
G01*
X121066000Y-46720000D01*
G75*
G02*
X120816000Y-46470000I0J250000D01*
G01*
X120816000Y-44970000D01*
G75*
G02*
X121066000Y-44720000I250000J0D01*
G01*
X122266000Y-44720000D01*
G75*
G02*
X122516000Y-44970000I0J-250000D01*
G01*
G37*
G04 #@! TD.AperFunction*
X119166000Y-45720000D03*
G04 #@! TA.AperFunction,ComponentPad*
G36*
G01*
X132500000Y-145530000D02*
X132500000Y-144030000D01*
G75*
G02*
X132750000Y-143780000I250000J0D01*
G01*
X133950000Y-143780000D01*
G75*
G02*
X134200000Y-144030000I0J-250000D01*
G01*
X134200000Y-145530000D01*
G75*
G02*
X133950000Y-145780000I-250000J0D01*
G01*
X132750000Y-145780000D01*
G75*
G02*
X132500000Y-145530000I0J250000D01*
G01*
G37*
G04 #@! TD.AperFunction*
X135850000Y-144780000D03*
D11*
X104902000Y-67818000D03*
D12*
X104902000Y-70358000D03*
X104902000Y-72898000D03*
X104902000Y-75438000D03*
X104902000Y-77978000D03*
X104902000Y-80518000D03*
X104902000Y-83058000D03*
X104902000Y-85598000D03*
X104902000Y-88138000D03*
X104902000Y-90678000D03*
X104902000Y-93218000D03*
X104902000Y-95758000D03*
X104902000Y-98298000D03*
X104902000Y-100838000D03*
X104902000Y-103378000D03*
X104902000Y-105918000D03*
X104902000Y-108458000D03*
X104902000Y-110998000D03*
X104902000Y-113538000D03*
X104902000Y-116078000D03*
X104902000Y-118618000D03*
X104902000Y-121158000D03*
X104902000Y-123698000D03*
X104902000Y-126238000D03*
X120142000Y-67798000D03*
X120142000Y-70338000D03*
X120142000Y-72878000D03*
X120142000Y-75418000D03*
X120142000Y-77958000D03*
X120142000Y-80498000D03*
X120142000Y-83038000D03*
X120142000Y-85578000D03*
X120142000Y-88118000D03*
X120142000Y-90658000D03*
X120142000Y-93198000D03*
X120142000Y-95738000D03*
X120142000Y-98278000D03*
X120142000Y-100818000D03*
X120142000Y-103358000D03*
X120142000Y-105898000D03*
X120142000Y-108438000D03*
X120142000Y-110978000D03*
X120142000Y-113518000D03*
X120142000Y-116058000D03*
X120142000Y-118598000D03*
X120142000Y-121138000D03*
X120142000Y-123678000D03*
D11*
X120142000Y-126218000D03*
D14*
X134620000Y-38354000D03*
D15*
X134620000Y-48514000D03*
X132842000Y-100584000D03*
D14*
X132842000Y-110744000D03*
X127508000Y-123952000D03*
D15*
X127508000Y-113792000D03*
X125730000Y-94488000D03*
D14*
X125730000Y-104648000D03*
X134620000Y-130810000D03*
D15*
X134620000Y-120650000D03*
D16*
X125476000Y-67818000D03*
D15*
X133096000Y-85598000D03*
X125476000Y-70358000D03*
X133096000Y-83058000D03*
X125476000Y-72898000D03*
X133096000Y-80518000D03*
X125476000Y-75438000D03*
X133096000Y-77978000D03*
X125476000Y-77978000D03*
X133096000Y-75438000D03*
X125476000Y-80518000D03*
X133096000Y-72898000D03*
X125476000Y-83058000D03*
X133096000Y-70358000D03*
X125476000Y-85598000D03*
X133096000Y-67818000D03*
D11*
X102362000Y-152654000D03*
D12*
X102362000Y-150114000D03*
X102362000Y-147574000D03*
X102362000Y-145034000D03*
X102362000Y-142494000D03*
X102362000Y-139954000D03*
X102362000Y-137414000D03*
X102362000Y-134874000D03*
D17*
X112522000Y-118110000D03*
D18*
X112522000Y-128270000D03*
D19*
X134874000Y-136500000D03*
D20*
X134874000Y-139040000D03*
X120396000Y-139040000D03*
D19*
X120396000Y-136500000D03*
X108204000Y-136500000D03*
D20*
X108204000Y-139040000D03*
D21*
X138340001Y-154340000D02*
X100660000Y-154340000D01*
X100660000Y-151804000D01*
X100873928Y-151804000D01*
X100873928Y-153504000D01*
X100886188Y-153628482D01*
X100922498Y-153748180D01*
X100981463Y-153858494D01*
X101060815Y-153955185D01*
X101157506Y-154034537D01*
X101267820Y-154093502D01*
X101387518Y-154129812D01*
X101512000Y-154142072D01*
X103212000Y-154142072D01*
X103336482Y-154129812D01*
X103456180Y-154093502D01*
X103566494Y-154034537D01*
X103663185Y-153955185D01*
X103742537Y-153858494D01*
X103801502Y-153748180D01*
X103837812Y-153628482D01*
X103850072Y-153504000D01*
X103850072Y-151804000D01*
X103837812Y-151679518D01*
X103801502Y-151559820D01*
X103742537Y-151449506D01*
X103663185Y-151352815D01*
X103566494Y-151273463D01*
X103456180Y-151214498D01*
X103375534Y-151190034D01*
X103459588Y-151114269D01*
X103633641Y-150880920D01*
X103758825Y-150618099D01*
X103803476Y-150470890D01*
X103682155Y-150241000D01*
X102489000Y-150241000D01*
X102489000Y-150261000D01*
X102235000Y-150261000D01*
X102235000Y-150241000D01*
X101041845Y-150241000D01*
X100920524Y-150470890D01*
X100965175Y-150618099D01*
X101090359Y-150880920D01*
X101264412Y-151114269D01*
X101348466Y-151190034D01*
X101267820Y-151214498D01*
X101157506Y-151273463D01*
X101060815Y-151352815D01*
X100981463Y-151449506D01*
X100922498Y-151559820D01*
X100886188Y-151679518D01*
X100873928Y-151804000D01*
X100660000Y-151804000D01*
X100660000Y-134727740D01*
X100877000Y-134727740D01*
X100877000Y-135020260D01*
X100934068Y-135307158D01*
X101046010Y-135577411D01*
X101208525Y-135820632D01*
X101415368Y-136027475D01*
X101589760Y-136144000D01*
X101415368Y-136260525D01*
X101208525Y-136467368D01*
X101046010Y-136710589D01*
X100934068Y-136980842D01*
X100877000Y-137267740D01*
X100877000Y-137560260D01*
X100934068Y-137847158D01*
X101046010Y-138117411D01*
X101208525Y-138360632D01*
X101415368Y-138567475D01*
X101589760Y-138684000D01*
X101415368Y-138800525D01*
X101208525Y-139007368D01*
X101046010Y-139250589D01*
X100934068Y-139520842D01*
X100877000Y-139807740D01*
X100877000Y-140100260D01*
X100934068Y-140387158D01*
X101046010Y-140657411D01*
X101208525Y-140900632D01*
X101415368Y-141107475D01*
X101589760Y-141224000D01*
X101415368Y-141340525D01*
X101208525Y-141547368D01*
X101046010Y-141790589D01*
X100934068Y-142060842D01*
X100877000Y-142347740D01*
X100877000Y-142640260D01*
X100934068Y-142927158D01*
X101046010Y-143197411D01*
X101208525Y-143440632D01*
X101415368Y-143647475D01*
X101589760Y-143764000D01*
X101415368Y-143880525D01*
X101208525Y-144087368D01*
X101046010Y-144330589D01*
X100934068Y-144600842D01*
X100877000Y-144887740D01*
X100877000Y-145180260D01*
X100934068Y-145467158D01*
X101046010Y-145737411D01*
X101208525Y-145980632D01*
X101415368Y-146187475D01*
X101589760Y-146304000D01*
X101415368Y-146420525D01*
X101208525Y-146627368D01*
X101046010Y-146870589D01*
X100934068Y-147140842D01*
X100877000Y-147427740D01*
X100877000Y-147720260D01*
X100934068Y-148007158D01*
X101046010Y-148277411D01*
X101208525Y-148520632D01*
X101415368Y-148727475D01*
X101597534Y-148849195D01*
X101480645Y-148918822D01*
X101264412Y-149113731D01*
X101090359Y-149347080D01*
X100965175Y-149609901D01*
X100920524Y-149757110D01*
X101041845Y-149987000D01*
X102235000Y-149987000D01*
X102235000Y-149967000D01*
X102489000Y-149967000D01*
X102489000Y-149987000D01*
X103682155Y-149987000D01*
X103803476Y-149757110D01*
X103758825Y-149609901D01*
X103633641Y-149347080D01*
X103459588Y-149113731D01*
X103243355Y-148918822D01*
X103126466Y-148849195D01*
X103308632Y-148727475D01*
X103515475Y-148520632D01*
X103677990Y-148277411D01*
X103789932Y-148007158D01*
X103847000Y-147720260D01*
X103847000Y-147427740D01*
X103789932Y-147140842D01*
X103677990Y-146870589D01*
X103515475Y-146627368D01*
X103308632Y-146420525D01*
X103134240Y-146304000D01*
X103308632Y-146187475D01*
X103515475Y-145980632D01*
X103677990Y-145737411D01*
X103789932Y-145467158D01*
X103847000Y-145180260D01*
X103847000Y-145122285D01*
X105665000Y-145122285D01*
X105665000Y-145877715D01*
X105812377Y-146618628D01*
X106101467Y-147316554D01*
X106521161Y-147944670D01*
X107055330Y-148478839D01*
X107683446Y-148898533D01*
X108381372Y-149187623D01*
X109122285Y-149335000D01*
X109877715Y-149335000D01*
X110618628Y-149187623D01*
X111316554Y-148898533D01*
X111944670Y-148478839D01*
X112478839Y-147944670D01*
X112898533Y-147316554D01*
X113187623Y-146618628D01*
X113335000Y-145877715D01*
X113335000Y-145122285D01*
X113187623Y-144381372D01*
X113042081Y-144030000D01*
X116621928Y-144030000D01*
X116621928Y-145530000D01*
X116638992Y-145703254D01*
X116689528Y-145869850D01*
X116771595Y-146023386D01*
X116882038Y-146157962D01*
X117016614Y-146268405D01*
X117170150Y-146350472D01*
X117336746Y-146401008D01*
X117510000Y-146418072D01*
X118710000Y-146418072D01*
X118883254Y-146401008D01*
X119049850Y-146350472D01*
X119203386Y-146268405D01*
X119337962Y-146157962D01*
X119448405Y-146023386D01*
X119502914Y-145921407D01*
X119503198Y-145921795D01*
X119717954Y-146118664D01*
X119966991Y-146269854D01*
X120240739Y-146369554D01*
X120253110Y-146371476D01*
X120483000Y-146250155D01*
X120483000Y-144907000D01*
X120737000Y-144907000D01*
X120737000Y-146250155D01*
X120966890Y-146371476D01*
X120979261Y-146369554D01*
X121253009Y-146269854D01*
X121502046Y-146118664D01*
X121716802Y-145921795D01*
X121889025Y-145686812D01*
X122012096Y-145422745D01*
X122081285Y-145139742D01*
X121937232Y-144907000D01*
X120737000Y-144907000D01*
X120483000Y-144907000D01*
X120463000Y-144907000D01*
X120463000Y-144653000D01*
X120483000Y-144653000D01*
X120483000Y-143309845D01*
X120737000Y-143309845D01*
X120737000Y-144653000D01*
X121937232Y-144653000D01*
X122081285Y-144420258D01*
X122012096Y-144137255D01*
X121962109Y-144030000D01*
X131861928Y-144030000D01*
X131861928Y-145530000D01*
X131878992Y-145703254D01*
X131929528Y-145869850D01*
X132011595Y-146023386D01*
X132122038Y-146157962D01*
X132256614Y-146268405D01*
X132410150Y-146350472D01*
X132576746Y-146401008D01*
X132750000Y-146418072D01*
X133950000Y-146418072D01*
X134123254Y-146401008D01*
X134289850Y-146350472D01*
X134443386Y-146268405D01*
X134577962Y-146157962D01*
X134688405Y-146023386D01*
X134742777Y-145921663D01*
X134794866Y-145985134D01*
X135020987Y-146170706D01*
X135278967Y-146308599D01*
X135558890Y-146393513D01*
X135850000Y-146422185D01*
X136141111Y-146393513D01*
X136421034Y-146308599D01*
X136679014Y-146170706D01*
X136905134Y-145985134D01*
X137090706Y-145759014D01*
X137228599Y-145501033D01*
X137313513Y-145221110D01*
X137335000Y-145002949D01*
X137335000Y-144557050D01*
X137313513Y-144338889D01*
X137228599Y-144058966D01*
X137090706Y-143800986D01*
X136905134Y-143574866D01*
X136679013Y-143389294D01*
X136421033Y-143251401D01*
X136141110Y-143166487D01*
X135850000Y-143137815D01*
X135558889Y-143166487D01*
X135278966Y-143251401D01*
X135020986Y-143389294D01*
X134794866Y-143574866D01*
X134742777Y-143638337D01*
X134688405Y-143536614D01*
X134577962Y-143402038D01*
X134443386Y-143291595D01*
X134289850Y-143209528D01*
X134123254Y-143158992D01*
X133950000Y-143141928D01*
X132750000Y-143141928D01*
X132576746Y-143158992D01*
X132410150Y-143209528D01*
X132256614Y-143291595D01*
X132122038Y-143402038D01*
X132011595Y-143536614D01*
X131929528Y-143690150D01*
X131878992Y-143856746D01*
X131861928Y-144030000D01*
X121962109Y-144030000D01*
X121889025Y-143873188D01*
X121716802Y-143638205D01*
X121502046Y-143441336D01*
X121253009Y-143290146D01*
X120979261Y-143190446D01*
X120966890Y-143188524D01*
X120737000Y-143309845D01*
X120483000Y-143309845D01*
X120253110Y-143188524D01*
X120240739Y-143190446D01*
X119966991Y-143290146D01*
X119717954Y-143441336D01*
X119503198Y-143638205D01*
X119502914Y-143638593D01*
X119448405Y-143536614D01*
X119337962Y-143402038D01*
X119203386Y-143291595D01*
X119049850Y-143209528D01*
X118883254Y-143158992D01*
X118710000Y-143141928D01*
X117510000Y-143141928D01*
X117336746Y-143158992D01*
X117170150Y-143209528D01*
X117016614Y-143291595D01*
X116882038Y-143402038D01*
X116771595Y-143536614D01*
X116689528Y-143690150D01*
X116638992Y-143856746D01*
X116621928Y-144030000D01*
X113042081Y-144030000D01*
X112898533Y-143683446D01*
X112478839Y-143055330D01*
X111944670Y-142521161D01*
X111316554Y-142101467D01*
X110618628Y-141812377D01*
X109877715Y-141665000D01*
X109122285Y-141665000D01*
X108381372Y-141812377D01*
X107683446Y-142101467D01*
X107055330Y-142521161D01*
X106521161Y-143055330D01*
X106101467Y-143683446D01*
X105812377Y-144381372D01*
X105665000Y-145122285D01*
X103847000Y-145122285D01*
X103847000Y-144887740D01*
X103789932Y-144600842D01*
X103677990Y-144330589D01*
X103515475Y-144087368D01*
X103308632Y-143880525D01*
X103134240Y-143764000D01*
X103308632Y-143647475D01*
X103515475Y-143440632D01*
X103677990Y-143197411D01*
X103789932Y-142927158D01*
X103847000Y-142640260D01*
X103847000Y-142347740D01*
X103789932Y-142060842D01*
X103677990Y-141790589D01*
X103515475Y-141547368D01*
X103308632Y-141340525D01*
X103134240Y-141224000D01*
X103308632Y-141107475D01*
X103515475Y-140900632D01*
X103677990Y-140657411D01*
X103789932Y-140387158D01*
X103847000Y-140100260D01*
X103847000Y-139807740D01*
X103789932Y-139520842D01*
X103677990Y-139250589D01*
X103515475Y-139007368D01*
X103308632Y-138800525D01*
X103134240Y-138684000D01*
X103308632Y-138567475D01*
X103515475Y-138360632D01*
X103677990Y-138117411D01*
X103789932Y-137847158D01*
X103847000Y-137560260D01*
X103847000Y-137267740D01*
X103789932Y-136980842D01*
X103677990Y-136710589D01*
X103515475Y-136467368D01*
X103308632Y-136260525D01*
X103134240Y-136144000D01*
X103308632Y-136027475D01*
X103515475Y-135820632D01*
X103662896Y-135600000D01*
X106665928Y-135600000D01*
X106665928Y-137400000D01*
X106678188Y-137524482D01*
X106714498Y-137644180D01*
X106773463Y-137754494D01*
X106852815Y-137851185D01*
X106949506Y-137930537D01*
X107059820Y-137989502D01*
X107078127Y-137995056D01*
X107011688Y-138061495D01*
X106843701Y-138312905D01*
X106727989Y-138592257D01*
X106669000Y-138888816D01*
X106669000Y-139191184D01*
X106727989Y-139487743D01*
X106843701Y-139767095D01*
X107011688Y-140018505D01*
X107225495Y-140232312D01*
X107476905Y-140400299D01*
X107756257Y-140516011D01*
X108052816Y-140575000D01*
X108355184Y-140575000D01*
X108651743Y-140516011D01*
X108931095Y-140400299D01*
X109182505Y-140232312D01*
X109396312Y-140018505D01*
X109564299Y-139767095D01*
X109680011Y-139487743D01*
X109739000Y-139191184D01*
X109739000Y-138888816D01*
X109680011Y-138592257D01*
X109564299Y-138312905D01*
X109396312Y-138061495D01*
X109329873Y-137995056D01*
X109348180Y-137989502D01*
X109458494Y-137930537D01*
X109555185Y-137851185D01*
X109634537Y-137754494D01*
X109693502Y-137644180D01*
X109729812Y-137524482D01*
X109742072Y-137400000D01*
X109742072Y-135600000D01*
X118857928Y-135600000D01*
X118857928Y-137400000D01*
X118870188Y-137524482D01*
X118906498Y-137644180D01*
X118965463Y-137754494D01*
X119044815Y-137851185D01*
X119141506Y-137930537D01*
X119251820Y-137989502D01*
X119270127Y-137995056D01*
X119203688Y-138061495D01*
X119035701Y-138312905D01*
X118919989Y-138592257D01*
X118861000Y-138888816D01*
X118861000Y-139191184D01*
X118919989Y-139487743D01*
X119035701Y-139767095D01*
X119203688Y-140018505D01*
X119417495Y-140232312D01*
X119668905Y-140400299D01*
X119948257Y-140516011D01*
X120244816Y-140575000D01*
X120547184Y-140575000D01*
X120843743Y-140516011D01*
X121123095Y-140400299D01*
X121374505Y-140232312D01*
X121588312Y-140018505D01*
X121756299Y-139767095D01*
X121872011Y-139487743D01*
X121931000Y-139191184D01*
X121931000Y-138888816D01*
X121872011Y-138592257D01*
X121756299Y-138312905D01*
X121588312Y-138061495D01*
X121521873Y-137995056D01*
X121540180Y-137989502D01*
X121650494Y-137930537D01*
X121747185Y-137851185D01*
X121826537Y-137754494D01*
X121885502Y-137644180D01*
X121921812Y-137524482D01*
X121934072Y-137400000D01*
X121934072Y-135600000D01*
X133335928Y-135600000D01*
X133335928Y-137400000D01*
X133348188Y-137524482D01*
X133384498Y-137644180D01*
X133443463Y-137754494D01*
X133522815Y-137851185D01*
X133619506Y-137930537D01*
X133729820Y-137989502D01*
X133748127Y-137995056D01*
X133681688Y-138061495D01*
X133513701Y-138312905D01*
X133397989Y-138592257D01*
X133339000Y-138888816D01*
X133339000Y-139191184D01*
X133397989Y-139487743D01*
X133513701Y-139767095D01*
X133681688Y-140018505D01*
X133895495Y-140232312D01*
X134146905Y-140400299D01*
X134426257Y-140516011D01*
X134722816Y-140575000D01*
X135025184Y-140575000D01*
X135321743Y-140516011D01*
X135601095Y-140400299D01*
X135852505Y-140232312D01*
X136066312Y-140018505D01*
X136234299Y-139767095D01*
X136350011Y-139487743D01*
X136409000Y-139191184D01*
X136409000Y-138888816D01*
X136350011Y-138592257D01*
X136234299Y-138312905D01*
X136066312Y-138061495D01*
X135999873Y-137995056D01*
X136018180Y-137989502D01*
X136128494Y-137930537D01*
X136225185Y-137851185D01*
X136304537Y-137754494D01*
X136363502Y-137644180D01*
X136399812Y-137524482D01*
X136412072Y-137400000D01*
X136412072Y-135600000D01*
X136399812Y-135475518D01*
X136363502Y-135355820D01*
X136304537Y-135245506D01*
X136225185Y-135148815D01*
X136128494Y-135069463D01*
X136018180Y-135010498D01*
X135898482Y-134974188D01*
X135774000Y-134961928D01*
X133974000Y-134961928D01*
X133849518Y-134974188D01*
X133729820Y-135010498D01*
X133619506Y-135069463D01*
X133522815Y-135148815D01*
X133443463Y-135245506D01*
X133384498Y-135355820D01*
X133348188Y-135475518D01*
X133335928Y-135600000D01*
X121934072Y-135600000D01*
X121921812Y-135475518D01*
X121885502Y-135355820D01*
X121826537Y-135245506D01*
X121747185Y-135148815D01*
X121650494Y-135069463D01*
X121540180Y-135010498D01*
X121420482Y-134974188D01*
X121296000Y-134961928D01*
X119496000Y-134961928D01*
X119371518Y-134974188D01*
X119251820Y-135010498D01*
X119141506Y-135069463D01*
X119044815Y-135148815D01*
X118965463Y-135245506D01*
X118906498Y-135355820D01*
X118870188Y-135475518D01*
X118857928Y-135600000D01*
X109742072Y-135600000D01*
X109729812Y-135475518D01*
X109693502Y-135355820D01*
X109634537Y-135245506D01*
X109555185Y-135148815D01*
X109458494Y-135069463D01*
X109348180Y-135010498D01*
X109228482Y-134974188D01*
X109104000Y-134961928D01*
X107304000Y-134961928D01*
X107179518Y-134974188D01*
X107059820Y-135010498D01*
X106949506Y-135069463D01*
X106852815Y-135148815D01*
X106773463Y-135245506D01*
X106714498Y-135355820D01*
X106678188Y-135475518D01*
X106665928Y-135600000D01*
X103662896Y-135600000D01*
X103677990Y-135577411D01*
X103789932Y-135307158D01*
X103847000Y-135020260D01*
X103847000Y-134727740D01*
X103789932Y-134440842D01*
X103677990Y-134170589D01*
X103515475Y-133927368D01*
X103308632Y-133720525D01*
X103065411Y-133558010D01*
X102795158Y-133446068D01*
X102508260Y-133389000D01*
X102215740Y-133389000D01*
X101928842Y-133446068D01*
X101658589Y-133558010D01*
X101415368Y-133720525D01*
X101208525Y-133927368D01*
X101046010Y-134170589D01*
X100934068Y-134440842D01*
X100877000Y-134727740D01*
X100660000Y-134727740D01*
X100660000Y-130668665D01*
X133185000Y-130668665D01*
X133185000Y-130951335D01*
X133240147Y-131228574D01*
X133348320Y-131489727D01*
X133505363Y-131724759D01*
X133705241Y-131924637D01*
X133940273Y-132081680D01*
X134201426Y-132189853D01*
X134478665Y-132245000D01*
X134761335Y-132245000D01*
X135038574Y-132189853D01*
X135299727Y-132081680D01*
X135534759Y-131924637D01*
X135734637Y-131724759D01*
X135891680Y-131489727D01*
X135999853Y-131228574D01*
X136055000Y-130951335D01*
X136055000Y-130668665D01*
X135999853Y-130391426D01*
X135891680Y-130130273D01*
X135734637Y-129895241D01*
X135534759Y-129695363D01*
X135299727Y-129538320D01*
X135038574Y-129430147D01*
X134761335Y-129375000D01*
X134478665Y-129375000D01*
X134201426Y-129430147D01*
X133940273Y-129538320D01*
X133705241Y-129695363D01*
X133505363Y-129895241D01*
X133348320Y-130130273D01*
X133240147Y-130391426D01*
X133185000Y-130668665D01*
X100660000Y-130668665D01*
X100660000Y-128099117D01*
X110787000Y-128099117D01*
X110787000Y-128440883D01*
X110853675Y-128776081D01*
X110984463Y-129091831D01*
X111174337Y-129375998D01*
X111416002Y-129617663D01*
X111700169Y-129807537D01*
X112015919Y-129938325D01*
X112351117Y-130005000D01*
X112692883Y-130005000D01*
X113028081Y-129938325D01*
X113343831Y-129807537D01*
X113627998Y-129617663D01*
X113869663Y-129375998D01*
X114059537Y-129091831D01*
X114190325Y-128776081D01*
X114257000Y-128440883D01*
X114257000Y-128099117D01*
X114190325Y-127763919D01*
X114059537Y-127448169D01*
X113869663Y-127164002D01*
X113627998Y-126922337D01*
X113343831Y-126732463D01*
X113028081Y-126601675D01*
X112692883Y-126535000D01*
X112351117Y-126535000D01*
X112015919Y-126601675D01*
X111700169Y-126732463D01*
X111416002Y-126922337D01*
X111174337Y-127164002D01*
X110984463Y-127448169D01*
X110853675Y-127763919D01*
X110787000Y-128099117D01*
X100660000Y-128099117D01*
X100660000Y-126091740D01*
X103417000Y-126091740D01*
X103417000Y-126384260D01*
X103474068Y-126671158D01*
X103586010Y-126941411D01*
X103748525Y-127184632D01*
X103955368Y-127391475D01*
X104198589Y-127553990D01*
X104468842Y-127665932D01*
X104755740Y-127723000D01*
X105048260Y-127723000D01*
X105335158Y-127665932D01*
X105605411Y-127553990D01*
X105848632Y-127391475D01*
X106055475Y-127184632D01*
X106217990Y-126941411D01*
X106329932Y-126671158D01*
X106387000Y-126384260D01*
X106387000Y-126091740D01*
X106329932Y-125804842D01*
X106217990Y-125534589D01*
X106106679Y-125368000D01*
X118653928Y-125368000D01*
X118653928Y-127068000D01*
X118666188Y-127192482D01*
X118702498Y-127312180D01*
X118761463Y-127422494D01*
X118840815Y-127519185D01*
X118937506Y-127598537D01*
X119047820Y-127657502D01*
X119167518Y-127693812D01*
X119292000Y-127706072D01*
X120992000Y-127706072D01*
X121116482Y-127693812D01*
X121236180Y-127657502D01*
X121346494Y-127598537D01*
X121443185Y-127519185D01*
X121522537Y-127422494D01*
X121581502Y-127312180D01*
X121617812Y-127192482D01*
X121630072Y-127068000D01*
X121630072Y-125368000D01*
X121617812Y-125243518D01*
X121581502Y-125123820D01*
X121522537Y-125013506D01*
X121443185Y-124916815D01*
X121346494Y-124837463D01*
X121236180Y-124778498D01*
X121163620Y-124756487D01*
X121295475Y-124624632D01*
X121457990Y-124381411D01*
X121569932Y-124111158D01*
X121627000Y-123824260D01*
X121627000Y-123810665D01*
X126073000Y-123810665D01*
X126073000Y-124093335D01*
X126128147Y-124370574D01*
X126236320Y-124631727D01*
X126393363Y-124866759D01*
X126593241Y-125066637D01*
X126828273Y-125223680D01*
X127089426Y-125331853D01*
X127366665Y-125387000D01*
X127649335Y-125387000D01*
X127926574Y-125331853D01*
X128187727Y-125223680D01*
X128422759Y-125066637D01*
X128622637Y-124866759D01*
X128779680Y-124631727D01*
X128887853Y-124370574D01*
X128943000Y-124093335D01*
X128943000Y-123810665D01*
X128887853Y-123533426D01*
X128779680Y-123272273D01*
X128622637Y-123037241D01*
X128422759Y-122837363D01*
X128187727Y-122680320D01*
X127926574Y-122572147D01*
X127649335Y-122517000D01*
X127366665Y-122517000D01*
X127089426Y-122572147D01*
X126828273Y-122680320D01*
X126593241Y-122837363D01*
X126393363Y-123037241D01*
X126236320Y-123272273D01*
X126128147Y-123533426D01*
X126073000Y-123810665D01*
X121627000Y-123810665D01*
X121627000Y-123531740D01*
X121569932Y-123244842D01*
X121457990Y-122974589D01*
X121295475Y-122731368D01*
X121088632Y-122524525D01*
X120914240Y-122408000D01*
X121088632Y-122291475D01*
X121295475Y-122084632D01*
X121457990Y-121841411D01*
X121569932Y-121571158D01*
X121627000Y-121284260D01*
X121627000Y-120991740D01*
X121569932Y-120704842D01*
X121488674Y-120508665D01*
X133185000Y-120508665D01*
X133185000Y-120791335D01*
X133240147Y-121068574D01*
X133348320Y-121329727D01*
X133505363Y-121564759D01*
X133705241Y-121764637D01*
X133940273Y-121921680D01*
X134201426Y-122029853D01*
X134478665Y-122085000D01*
X134761335Y-122085000D01*
X135038574Y-122029853D01*
X135299727Y-121921680D01*
X135534759Y-121764637D01*
X135734637Y-121564759D01*
X135891680Y-121329727D01*
X135999853Y-121068574D01*
X136055000Y-120791335D01*
X136055000Y-120508665D01*
X135999853Y-120231426D01*
X135891680Y-119970273D01*
X135734637Y-119735241D01*
X135534759Y-119535363D01*
X135299727Y-119378320D01*
X135038574Y-119270147D01*
X134761335Y-119215000D01*
X134478665Y-119215000D01*
X134201426Y-119270147D01*
X133940273Y-119378320D01*
X133705241Y-119535363D01*
X133505363Y-119735241D01*
X133348320Y-119970273D01*
X133240147Y-120231426D01*
X133185000Y-120508665D01*
X121488674Y-120508665D01*
X121457990Y-120434589D01*
X121295475Y-120191368D01*
X121088632Y-119984525D01*
X120914240Y-119868000D01*
X121088632Y-119751475D01*
X121295475Y-119544632D01*
X121457990Y-119301411D01*
X121569932Y-119031158D01*
X121627000Y-118744260D01*
X121627000Y-118451740D01*
X121569932Y-118164842D01*
X121457990Y-117894589D01*
X121295475Y-117651368D01*
X121088632Y-117444525D01*
X120914240Y-117328000D01*
X121088632Y-117211475D01*
X121295475Y-117004632D01*
X121457990Y-116761411D01*
X121569932Y-116491158D01*
X121627000Y-116204260D01*
X121627000Y-115911740D01*
X121569932Y-115624842D01*
X121457990Y-115354589D01*
X121295475Y-115111368D01*
X121088632Y-114904525D01*
X120914240Y-114788000D01*
X121088632Y-114671475D01*
X121295475Y-114464632D01*
X121457990Y-114221411D01*
X121569932Y-113951158D01*
X121627000Y-113664260D01*
X121627000Y-113650665D01*
X126073000Y-113650665D01*
X126073000Y-113933335D01*
X126128147Y-114210574D01*
X126236320Y-114471727D01*
X126393363Y-114706759D01*
X126593241Y-114906637D01*
X126828273Y-115063680D01*
X127089426Y-115171853D01*
X127366665Y-115227000D01*
X127649335Y-115227000D01*
X127926574Y-115171853D01*
X128187727Y-115063680D01*
X128422759Y-114906637D01*
X128622637Y-114706759D01*
X128779680Y-114471727D01*
X128887853Y-114210574D01*
X128943000Y-113933335D01*
X128943000Y-113650665D01*
X128887853Y-113373426D01*
X128779680Y-113112273D01*
X128622637Y-112877241D01*
X128422759Y-112677363D01*
X128187727Y-112520320D01*
X127926574Y-112412147D01*
X127649335Y-112357000D01*
X127366665Y-112357000D01*
X127089426Y-112412147D01*
X126828273Y-112520320D01*
X126593241Y-112677363D01*
X126393363Y-112877241D01*
X126236320Y-113112273D01*
X126128147Y-113373426D01*
X126073000Y-113650665D01*
X121627000Y-113650665D01*
X121627000Y-113371740D01*
X121569932Y-113084842D01*
X121457990Y-112814589D01*
X121295475Y-112571368D01*
X121088632Y-112364525D01*
X120914240Y-112248000D01*
X121088632Y-112131475D01*
X121295475Y-111924632D01*
X121457990Y-111681411D01*
X121569932Y-111411158D01*
X121627000Y-111124260D01*
X121627000Y-110831740D01*
X121581434Y-110602665D01*
X131407000Y-110602665D01*
X131407000Y-110885335D01*
X131462147Y-111162574D01*
X131570320Y-111423727D01*
X131727363Y-111658759D01*
X131927241Y-111858637D01*
X132162273Y-112015680D01*
X132423426Y-112123853D01*
X132700665Y-112179000D01*
X132983335Y-112179000D01*
X133260574Y-112123853D01*
X133521727Y-112015680D01*
X133756759Y-111858637D01*
X133956637Y-111658759D01*
X134113680Y-111423727D01*
X134221853Y-111162574D01*
X134277000Y-110885335D01*
X134277000Y-110602665D01*
X134221853Y-110325426D01*
X134113680Y-110064273D01*
X133956637Y-109829241D01*
X133756759Y-109629363D01*
X133521727Y-109472320D01*
X133260574Y-109364147D01*
X132983335Y-109309000D01*
X132700665Y-109309000D01*
X132423426Y-109364147D01*
X132162273Y-109472320D01*
X131927241Y-109629363D01*
X131727363Y-109829241D01*
X131570320Y-110064273D01*
X131462147Y-110325426D01*
X131407000Y-110602665D01*
X121581434Y-110602665D01*
X121569932Y-110544842D01*
X121457990Y-110274589D01*
X121295475Y-110031368D01*
X121088632Y-109824525D01*
X120914240Y-109708000D01*
X121088632Y-109591475D01*
X121295475Y-109384632D01*
X121457990Y-109141411D01*
X121569932Y-108871158D01*
X121627000Y-108584260D01*
X121627000Y-108291740D01*
X121569932Y-108004842D01*
X121457990Y-107734589D01*
X121295475Y-107491368D01*
X121088632Y-107284525D01*
X120914240Y-107168000D01*
X121088632Y-107051475D01*
X121295475Y-106844632D01*
X121457990Y-106601411D01*
X121569932Y-106331158D01*
X121627000Y-106044260D01*
X121627000Y-105751740D01*
X121569932Y-105464842D01*
X121457990Y-105194589D01*
X121295475Y-104951368D01*
X121088632Y-104744525D01*
X120914240Y-104628000D01*
X121088632Y-104511475D01*
X121093442Y-104506665D01*
X124295000Y-104506665D01*
X124295000Y-104789335D01*
X124350147Y-105066574D01*
X124458320Y-105327727D01*
X124615363Y-105562759D01*
X124815241Y-105762637D01*
X125050273Y-105919680D01*
X125311426Y-106027853D01*
X125588665Y-106083000D01*
X125871335Y-106083000D01*
X126148574Y-106027853D01*
X126409727Y-105919680D01*
X126644759Y-105762637D01*
X126844637Y-105562759D01*
X127001680Y-105327727D01*
X127109853Y-105066574D01*
X127165000Y-104789335D01*
X127165000Y-104506665D01*
X127109853Y-104229426D01*
X127001680Y-103968273D01*
X126844637Y-103733241D01*
X126644759Y-103533363D01*
X126409727Y-103376320D01*
X126148574Y-103268147D01*
X125871335Y-103213000D01*
X125588665Y-103213000D01*
X125311426Y-103268147D01*
X125050273Y-103376320D01*
X124815241Y-103533363D01*
X124615363Y-103733241D01*
X124458320Y-103968273D01*
X124350147Y-104229426D01*
X124295000Y-104506665D01*
X121093442Y-104506665D01*
X121295475Y-104304632D01*
X121457990Y-104061411D01*
X121569932Y-103791158D01*
X121627000Y-103504260D01*
X121627000Y-103211740D01*
X121569932Y-102924842D01*
X121457990Y-102654589D01*
X121295475Y-102411368D01*
X121088632Y-102204525D01*
X120914240Y-102088000D01*
X121088632Y-101971475D01*
X121295475Y-101764632D01*
X121457990Y-101521411D01*
X121569932Y-101251158D01*
X121627000Y-100964260D01*
X121627000Y-100671740D01*
X121581434Y-100442665D01*
X131407000Y-100442665D01*
X131407000Y-100725335D01*
X131462147Y-101002574D01*
X131570320Y-101263727D01*
X131727363Y-101498759D01*
X131927241Y-101698637D01*
X132162273Y-101855680D01*
X132423426Y-101963853D01*
X132700665Y-102019000D01*
X132983335Y-102019000D01*
X133260574Y-101963853D01*
X133521727Y-101855680D01*
X133756759Y-101698637D01*
X133956637Y-101498759D01*
X134113680Y-101263727D01*
X134221853Y-101002574D01*
X134277000Y-100725335D01*
X134277000Y-100442665D01*
X134221853Y-100165426D01*
X134113680Y-99904273D01*
X133956637Y-99669241D01*
X133756759Y-99469363D01*
X133521727Y-99312320D01*
X133260574Y-99204147D01*
X132983335Y-99149000D01*
X132700665Y-99149000D01*
X132423426Y-99204147D01*
X132162273Y-99312320D01*
X131927241Y-99469363D01*
X131727363Y-99669241D01*
X131570320Y-99904273D01*
X131462147Y-100165426D01*
X131407000Y-100442665D01*
X121581434Y-100442665D01*
X121569932Y-100384842D01*
X121457990Y-100114589D01*
X121295475Y-99871368D01*
X121088632Y-99664525D01*
X120914240Y-99548000D01*
X121088632Y-99431475D01*
X121295475Y-99224632D01*
X121457990Y-98981411D01*
X121569932Y-98711158D01*
X121627000Y-98424260D01*
X121627000Y-98131740D01*
X121569932Y-97844842D01*
X121457990Y-97574589D01*
X121295475Y-97331368D01*
X121088632Y-97124525D01*
X120914240Y-97008000D01*
X121088632Y-96891475D01*
X121295475Y-96684632D01*
X121457990Y-96441411D01*
X121569932Y-96171158D01*
X121627000Y-95884260D01*
X121627000Y-95591740D01*
X121569932Y-95304842D01*
X121457990Y-95034589D01*
X121295475Y-94791368D01*
X121088632Y-94584525D01*
X120914240Y-94468000D01*
X121088632Y-94351475D01*
X121093442Y-94346665D01*
X124295000Y-94346665D01*
X124295000Y-94629335D01*
X124350147Y-94906574D01*
X124458320Y-95167727D01*
X124615363Y-95402759D01*
X124815241Y-95602637D01*
X125050273Y-95759680D01*
X125311426Y-95867853D01*
X125588665Y-95923000D01*
X125871335Y-95923000D01*
X126148574Y-95867853D01*
X126409727Y-95759680D01*
X126644759Y-95602637D01*
X126844637Y-95402759D01*
X127001680Y-95167727D01*
X127109853Y-94906574D01*
X127165000Y-94629335D01*
X127165000Y-94346665D01*
X127109853Y-94069426D01*
X127001680Y-93808273D01*
X126844637Y-93573241D01*
X126644759Y-93373363D01*
X126409727Y-93216320D01*
X126148574Y-93108147D01*
X125871335Y-93053000D01*
X125588665Y-93053000D01*
X125311426Y-93108147D01*
X125050273Y-93216320D01*
X124815241Y-93373363D01*
X124615363Y-93573241D01*
X124458320Y-93808273D01*
X124350147Y-94069426D01*
X124295000Y-94346665D01*
X121093442Y-94346665D01*
X121295475Y-94144632D01*
X121457990Y-93901411D01*
X121569932Y-93631158D01*
X121627000Y-93344260D01*
X121627000Y-93051740D01*
X121569932Y-92764842D01*
X121457990Y-92494589D01*
X121295475Y-92251368D01*
X121088632Y-92044525D01*
X120914240Y-91928000D01*
X121088632Y-91811475D01*
X121295475Y-91604632D01*
X121457990Y-91361411D01*
X121569932Y-91091158D01*
X121627000Y-90804260D01*
X121627000Y-90511740D01*
X121569932Y-90224842D01*
X121457990Y-89954589D01*
X121295475Y-89711368D01*
X121088632Y-89504525D01*
X120914240Y-89388000D01*
X121088632Y-89271475D01*
X121295475Y-89064632D01*
X121457990Y-88821411D01*
X121569932Y-88551158D01*
X121627000Y-88264260D01*
X121627000Y-87971740D01*
X121569932Y-87684842D01*
X121457990Y-87414589D01*
X121295475Y-87171368D01*
X121088632Y-86964525D01*
X120914240Y-86848000D01*
X121088632Y-86731475D01*
X121295475Y-86524632D01*
X121457990Y-86281411D01*
X121569932Y-86011158D01*
X121582686Y-85947039D01*
X124084096Y-85947039D01*
X124124754Y-86081087D01*
X124244963Y-86335420D01*
X124412481Y-86561414D01*
X124620869Y-86750385D01*
X124862119Y-86895070D01*
X125126960Y-86989909D01*
X125349000Y-86868624D01*
X125349000Y-85725000D01*
X125603000Y-85725000D01*
X125603000Y-86868624D01*
X125825040Y-86989909D01*
X126089881Y-86895070D01*
X126331131Y-86750385D01*
X126539519Y-86561414D01*
X126707037Y-86335420D01*
X126827246Y-86081087D01*
X126867904Y-85947039D01*
X126745915Y-85725000D01*
X125603000Y-85725000D01*
X125349000Y-85725000D01*
X124206085Y-85725000D01*
X124084096Y-85947039D01*
X121582686Y-85947039D01*
X121627000Y-85724260D01*
X121627000Y-85431740D01*
X121569932Y-85144842D01*
X121457990Y-84874589D01*
X121295475Y-84631368D01*
X121088632Y-84424525D01*
X120914240Y-84308000D01*
X121088632Y-84191475D01*
X121295475Y-83984632D01*
X121457990Y-83741411D01*
X121569932Y-83471158D01*
X121627000Y-83184260D01*
X121627000Y-82891740D01*
X121569932Y-82604842D01*
X121457990Y-82334589D01*
X121295475Y-82091368D01*
X121088632Y-81884525D01*
X120914240Y-81768000D01*
X121088632Y-81651475D01*
X121295475Y-81444632D01*
X121457990Y-81201411D01*
X121569932Y-80931158D01*
X121627000Y-80644260D01*
X121627000Y-80351740D01*
X121569932Y-80064842D01*
X121457990Y-79794589D01*
X121295475Y-79551368D01*
X121088632Y-79344525D01*
X120914240Y-79228000D01*
X121088632Y-79111475D01*
X121295475Y-78904632D01*
X121457990Y-78661411D01*
X121569932Y-78391158D01*
X121627000Y-78104260D01*
X121627000Y-77811740D01*
X121569932Y-77524842D01*
X121457990Y-77254589D01*
X121295475Y-77011368D01*
X121088632Y-76804525D01*
X120914240Y-76688000D01*
X121088632Y-76571475D01*
X121295475Y-76364632D01*
X121457990Y-76121411D01*
X121569932Y-75851158D01*
X121627000Y-75564260D01*
X121627000Y-75271740D01*
X121569932Y-74984842D01*
X121457990Y-74714589D01*
X121295475Y-74471368D01*
X121088632Y-74264525D01*
X120914240Y-74148000D01*
X121088632Y-74031475D01*
X121295475Y-73824632D01*
X121457990Y-73581411D01*
X121569932Y-73311158D01*
X121627000Y-73024260D01*
X121627000Y-72731740D01*
X121569932Y-72444842D01*
X121457990Y-72174589D01*
X121295475Y-71931368D01*
X121088632Y-71724525D01*
X120914240Y-71608000D01*
X121088632Y-71491475D01*
X121295475Y-71284632D01*
X121457990Y-71041411D01*
X121569932Y-70771158D01*
X121627000Y-70484260D01*
X121627000Y-70191740D01*
X121569932Y-69904842D01*
X121457990Y-69634589D01*
X121295475Y-69391368D01*
X121088632Y-69184525D01*
X120914240Y-69068000D01*
X121088632Y-68951475D01*
X121295475Y-68744632D01*
X121457990Y-68501411D01*
X121569932Y-68231158D01*
X121627000Y-67944260D01*
X121627000Y-67651740D01*
X121569932Y-67364842D01*
X121457990Y-67094589D01*
X121406815Y-67018000D01*
X124037928Y-67018000D01*
X124037928Y-68618000D01*
X124050188Y-68742482D01*
X124086498Y-68862180D01*
X124145463Y-68972494D01*
X124224815Y-69069185D01*
X124321506Y-69148537D01*
X124431820Y-69207502D01*
X124551518Y-69243812D01*
X124559961Y-69244643D01*
X124361363Y-69443241D01*
X124204320Y-69678273D01*
X124096147Y-69939426D01*
X124041000Y-70216665D01*
X124041000Y-70499335D01*
X124096147Y-70776574D01*
X124204320Y-71037727D01*
X124361363Y-71272759D01*
X124561241Y-71472637D01*
X124793759Y-71628000D01*
X124561241Y-71783363D01*
X124361363Y-71983241D01*
X124204320Y-72218273D01*
X124096147Y-72479426D01*
X124041000Y-72756665D01*
X124041000Y-73039335D01*
X124096147Y-73316574D01*
X124204320Y-73577727D01*
X124361363Y-73812759D01*
X124561241Y-74012637D01*
X124793759Y-74168000D01*
X124561241Y-74323363D01*
X124361363Y-74523241D01*
X124204320Y-74758273D01*
X124096147Y-75019426D01*
X124041000Y-75296665D01*
X124041000Y-75579335D01*
X124096147Y-75856574D01*
X124204320Y-76117727D01*
X124361363Y-76352759D01*
X124561241Y-76552637D01*
X124793759Y-76708000D01*
X124561241Y-76863363D01*
X124361363Y-77063241D01*
X124204320Y-77298273D01*
X124096147Y-77559426D01*
X124041000Y-77836665D01*
X124041000Y-78119335D01*
X124096147Y-78396574D01*
X124204320Y-78657727D01*
X124361363Y-78892759D01*
X124561241Y-79092637D01*
X124793759Y-79248000D01*
X124561241Y-79403363D01*
X124361363Y-79603241D01*
X124204320Y-79838273D01*
X124096147Y-80099426D01*
X124041000Y-80376665D01*
X124041000Y-80659335D01*
X124096147Y-80936574D01*
X124204320Y-81197727D01*
X124361363Y-81432759D01*
X124561241Y-81632637D01*
X124793759Y-81788000D01*
X124561241Y-81943363D01*
X124361363Y-82143241D01*
X124204320Y-82378273D01*
X124096147Y-82639426D01*
X124041000Y-82916665D01*
X124041000Y-83199335D01*
X124096147Y-83476574D01*
X124204320Y-83737727D01*
X124361363Y-83972759D01*
X124561241Y-84172637D01*
X124796273Y-84329680D01*
X124806865Y-84334067D01*
X124620869Y-84445615D01*
X124412481Y-84634586D01*
X124244963Y-84860580D01*
X124124754Y-85114913D01*
X124084096Y-85248961D01*
X124206085Y-85471000D01*
X125349000Y-85471000D01*
X125349000Y-85451000D01*
X125603000Y-85451000D01*
X125603000Y-85471000D01*
X126745915Y-85471000D01*
X126867904Y-85248961D01*
X126827246Y-85114913D01*
X126707037Y-84860580D01*
X126539519Y-84634586D01*
X126331131Y-84445615D01*
X126145135Y-84334067D01*
X126155727Y-84329680D01*
X126390759Y-84172637D01*
X126590637Y-83972759D01*
X126747680Y-83737727D01*
X126855853Y-83476574D01*
X126911000Y-83199335D01*
X126911000Y-82916665D01*
X126855853Y-82639426D01*
X126747680Y-82378273D01*
X126590637Y-82143241D01*
X126390759Y-81943363D01*
X126158241Y-81788000D01*
X126390759Y-81632637D01*
X126590637Y-81432759D01*
X126747680Y-81197727D01*
X126855853Y-80936574D01*
X126911000Y-80659335D01*
X126911000Y-80376665D01*
X126855853Y-80099426D01*
X126747680Y-79838273D01*
X126590637Y-79603241D01*
X126390759Y-79403363D01*
X126158241Y-79248000D01*
X126390759Y-79092637D01*
X126590637Y-78892759D01*
X126747680Y-78657727D01*
X126855853Y-78396574D01*
X126911000Y-78119335D01*
X126911000Y-77836665D01*
X126855853Y-77559426D01*
X126747680Y-77298273D01*
X126590637Y-77063241D01*
X126390759Y-76863363D01*
X126158241Y-76708000D01*
X126390759Y-76552637D01*
X126590637Y-76352759D01*
X126747680Y-76117727D01*
X126855853Y-75856574D01*
X126911000Y-75579335D01*
X126911000Y-75296665D01*
X126855853Y-75019426D01*
X126747680Y-74758273D01*
X126590637Y-74523241D01*
X126390759Y-74323363D01*
X126158241Y-74168000D01*
X126390759Y-74012637D01*
X126590637Y-73812759D01*
X126747680Y-73577727D01*
X126855853Y-73316574D01*
X126911000Y-73039335D01*
X126911000Y-72756665D01*
X126855853Y-72479426D01*
X126747680Y-72218273D01*
X126590637Y-71983241D01*
X126390759Y-71783363D01*
X126158241Y-71628000D01*
X126390759Y-71472637D01*
X126590637Y-71272759D01*
X126747680Y-71037727D01*
X126855853Y-70776574D01*
X126911000Y-70499335D01*
X126911000Y-70216665D01*
X126855853Y-69939426D01*
X126747680Y-69678273D01*
X126590637Y-69443241D01*
X126392039Y-69244643D01*
X126400482Y-69243812D01*
X126520180Y-69207502D01*
X126630494Y-69148537D01*
X126727185Y-69069185D01*
X126806537Y-68972494D01*
X126865502Y-68862180D01*
X126901812Y-68742482D01*
X126914072Y-68618000D01*
X126914072Y-67676665D01*
X131661000Y-67676665D01*
X131661000Y-67959335D01*
X131716147Y-68236574D01*
X131824320Y-68497727D01*
X131981363Y-68732759D01*
X132181241Y-68932637D01*
X132413759Y-69088000D01*
X132181241Y-69243363D01*
X131981363Y-69443241D01*
X131824320Y-69678273D01*
X131716147Y-69939426D01*
X131661000Y-70216665D01*
X131661000Y-70499335D01*
X131716147Y-70776574D01*
X131824320Y-71037727D01*
X131981363Y-71272759D01*
X132181241Y-71472637D01*
X132413759Y-71628000D01*
X132181241Y-71783363D01*
X131981363Y-71983241D01*
X131824320Y-72218273D01*
X131716147Y-72479426D01*
X131661000Y-72756665D01*
X131661000Y-73039335D01*
X131716147Y-73316574D01*
X131824320Y-73577727D01*
X131981363Y-73812759D01*
X132181241Y-74012637D01*
X132413759Y-74168000D01*
X132181241Y-74323363D01*
X131981363Y-74523241D01*
X131824320Y-74758273D01*
X131716147Y-75019426D01*
X131661000Y-75296665D01*
X131661000Y-75579335D01*
X131716147Y-75856574D01*
X131824320Y-76117727D01*
X131981363Y-76352759D01*
X132181241Y-76552637D01*
X132413759Y-76708000D01*
X132181241Y-76863363D01*
X131981363Y-77063241D01*
X131824320Y-77298273D01*
X131716147Y-77559426D01*
X131661000Y-77836665D01*
X131661000Y-78119335D01*
X131716147Y-78396574D01*
X131824320Y-78657727D01*
X131981363Y-78892759D01*
X132181241Y-79092637D01*
X132413759Y-79248000D01*
X132181241Y-79403363D01*
X131981363Y-79603241D01*
X131824320Y-79838273D01*
X131716147Y-80099426D01*
X131661000Y-80376665D01*
X131661000Y-80659335D01*
X131716147Y-80936574D01*
X131824320Y-81197727D01*
X131981363Y-81432759D01*
X132181241Y-81632637D01*
X132413759Y-81788000D01*
X132181241Y-81943363D01*
X131981363Y-82143241D01*
X131824320Y-82378273D01*
X131716147Y-82639426D01*
X131661000Y-82916665D01*
X131661000Y-83199335D01*
X131716147Y-83476574D01*
X131824320Y-83737727D01*
X131981363Y-83972759D01*
X132181241Y-84172637D01*
X132413759Y-84328000D01*
X132181241Y-84483363D01*
X131981363Y-84683241D01*
X131824320Y-84918273D01*
X131716147Y-85179426D01*
X131661000Y-85456665D01*
X131661000Y-85739335D01*
X131716147Y-86016574D01*
X131824320Y-86277727D01*
X131981363Y-86512759D01*
X132181241Y-86712637D01*
X132416273Y-86869680D01*
X132677426Y-86977853D01*
X132954665Y-87033000D01*
X133237335Y-87033000D01*
X133514574Y-86977853D01*
X133775727Y-86869680D01*
X134010759Y-86712637D01*
X134210637Y-86512759D01*
X134367680Y-86277727D01*
X134475853Y-86016574D01*
X134531000Y-85739335D01*
X134531000Y-85456665D01*
X134475853Y-85179426D01*
X134367680Y-84918273D01*
X134210637Y-84683241D01*
X134010759Y-84483363D01*
X133778241Y-84328000D01*
X134010759Y-84172637D01*
X134210637Y-83972759D01*
X134367680Y-83737727D01*
X134475853Y-83476574D01*
X134531000Y-83199335D01*
X134531000Y-82916665D01*
X134475853Y-82639426D01*
X134367680Y-82378273D01*
X134210637Y-82143241D01*
X134010759Y-81943363D01*
X133778241Y-81788000D01*
X134010759Y-81632637D01*
X134210637Y-81432759D01*
X134367680Y-81197727D01*
X134475853Y-80936574D01*
X134531000Y-80659335D01*
X134531000Y-80376665D01*
X134475853Y-80099426D01*
X134367680Y-79838273D01*
X134210637Y-79603241D01*
X134010759Y-79403363D01*
X133778241Y-79248000D01*
X134010759Y-79092637D01*
X134210637Y-78892759D01*
X134367680Y-78657727D01*
X134475853Y-78396574D01*
X134531000Y-78119335D01*
X134531000Y-77836665D01*
X134475853Y-77559426D01*
X134367680Y-77298273D01*
X134210637Y-77063241D01*
X134010759Y-76863363D01*
X133778241Y-76708000D01*
X134010759Y-76552637D01*
X134210637Y-76352759D01*
X134367680Y-76117727D01*
X134475853Y-75856574D01*
X134531000Y-75579335D01*
X134531000Y-75296665D01*
X134475853Y-75019426D01*
X134367680Y-74758273D01*
X134210637Y-74523241D01*
X134010759Y-74323363D01*
X133778241Y-74168000D01*
X134010759Y-74012637D01*
X134210637Y-73812759D01*
X134367680Y-73577727D01*
X134475853Y-73316574D01*
X134531000Y-73039335D01*
X134531000Y-72756665D01*
X134475853Y-72479426D01*
X134367680Y-72218273D01*
X134210637Y-71983241D01*
X134010759Y-71783363D01*
X133778241Y-71628000D01*
X134010759Y-71472637D01*
X134210637Y-71272759D01*
X134367680Y-71037727D01*
X134475853Y-70776574D01*
X134531000Y-70499335D01*
X134531000Y-70216665D01*
X134475853Y-69939426D01*
X134367680Y-69678273D01*
X134210637Y-69443241D01*
X134010759Y-69243363D01*
X133778241Y-69088000D01*
X134010759Y-68932637D01*
X134210637Y-68732759D01*
X134367680Y-68497727D01*
X134475853Y-68236574D01*
X134531000Y-67959335D01*
X134531000Y-67676665D01*
X134475853Y-67399426D01*
X134367680Y-67138273D01*
X134210637Y-66903241D01*
X134010759Y-66703363D01*
X133775727Y-66546320D01*
X133514574Y-66438147D01*
X133237335Y-66383000D01*
X132954665Y-66383000D01*
X132677426Y-66438147D01*
X132416273Y-66546320D01*
X132181241Y-66703363D01*
X131981363Y-66903241D01*
X131824320Y-67138273D01*
X131716147Y-67399426D01*
X131661000Y-67676665D01*
X126914072Y-67676665D01*
X126914072Y-67018000D01*
X126901812Y-66893518D01*
X126865502Y-66773820D01*
X126806537Y-66663506D01*
X126727185Y-66566815D01*
X126630494Y-66487463D01*
X126520180Y-66428498D01*
X126400482Y-66392188D01*
X126276000Y-66379928D01*
X124676000Y-66379928D01*
X124551518Y-66392188D01*
X124431820Y-66428498D01*
X124321506Y-66487463D01*
X124224815Y-66566815D01*
X124145463Y-66663506D01*
X124086498Y-66773820D01*
X124050188Y-66893518D01*
X124037928Y-67018000D01*
X121406815Y-67018000D01*
X121295475Y-66851368D01*
X121088632Y-66644525D01*
X120845411Y-66482010D01*
X120575158Y-66370068D01*
X120288260Y-66313000D01*
X119995740Y-66313000D01*
X119708842Y-66370068D01*
X119438589Y-66482010D01*
X119195368Y-66644525D01*
X118988525Y-66851368D01*
X118826010Y-67094589D01*
X118714068Y-67364842D01*
X118657000Y-67651740D01*
X118657000Y-67944260D01*
X118714068Y-68231158D01*
X118826010Y-68501411D01*
X118988525Y-68744632D01*
X119195368Y-68951475D01*
X119369760Y-69068000D01*
X119195368Y-69184525D01*
X118988525Y-69391368D01*
X118826010Y-69634589D01*
X118714068Y-69904842D01*
X118657000Y-70191740D01*
X118657000Y-70484260D01*
X118714068Y-70771158D01*
X118826010Y-71041411D01*
X118988525Y-71284632D01*
X119195368Y-71491475D01*
X119369760Y-71608000D01*
X119195368Y-71724525D01*
X118988525Y-71931368D01*
X118826010Y-72174589D01*
X118714068Y-72444842D01*
X118657000Y-72731740D01*
X118657000Y-73024260D01*
X118714068Y-73311158D01*
X118826010Y-73581411D01*
X118988525Y-73824632D01*
X119195368Y-74031475D01*
X119369760Y-74148000D01*
X119195368Y-74264525D01*
X118988525Y-74471368D01*
X118826010Y-74714589D01*
X118714068Y-74984842D01*
X118657000Y-75271740D01*
X118657000Y-75564260D01*
X118714068Y-75851158D01*
X118826010Y-76121411D01*
X118988525Y-76364632D01*
X119195368Y-76571475D01*
X119369760Y-76688000D01*
X119195368Y-76804525D01*
X118988525Y-77011368D01*
X118826010Y-77254589D01*
X118714068Y-77524842D01*
X118657000Y-77811740D01*
X118657000Y-78104260D01*
X118714068Y-78391158D01*
X118826010Y-78661411D01*
X118988525Y-78904632D01*
X119195368Y-79111475D01*
X119369760Y-79228000D01*
X119195368Y-79344525D01*
X118988525Y-79551368D01*
X118826010Y-79794589D01*
X118714068Y-80064842D01*
X118657000Y-80351740D01*
X118657000Y-80644260D01*
X118714068Y-80931158D01*
X118826010Y-81201411D01*
X118988525Y-81444632D01*
X119195368Y-81651475D01*
X119369760Y-81768000D01*
X119195368Y-81884525D01*
X118988525Y-82091368D01*
X118826010Y-82334589D01*
X118714068Y-82604842D01*
X118657000Y-82891740D01*
X118657000Y-83184260D01*
X118714068Y-83471158D01*
X118826010Y-83741411D01*
X118988525Y-83984632D01*
X119195368Y-84191475D01*
X119369760Y-84308000D01*
X119195368Y-84424525D01*
X118988525Y-84631368D01*
X118826010Y-84874589D01*
X118714068Y-85144842D01*
X118657000Y-85431740D01*
X118657000Y-85724260D01*
X118714068Y-86011158D01*
X118826010Y-86281411D01*
X118988525Y-86524632D01*
X119195368Y-86731475D01*
X119369760Y-86848000D01*
X119195368Y-86964525D01*
X118988525Y-87171368D01*
X118826010Y-87414589D01*
X118714068Y-87684842D01*
X118657000Y-87971740D01*
X118657000Y-88264260D01*
X118714068Y-88551158D01*
X118826010Y-88821411D01*
X118988525Y-89064632D01*
X119195368Y-89271475D01*
X119369760Y-89388000D01*
X119195368Y-89504525D01*
X118988525Y-89711368D01*
X118826010Y-89954589D01*
X118714068Y-90224842D01*
X118657000Y-90511740D01*
X118657000Y-90804260D01*
X118714068Y-91091158D01*
X118826010Y-91361411D01*
X118988525Y-91604632D01*
X119195368Y-91811475D01*
X119369760Y-91928000D01*
X119195368Y-92044525D01*
X118988525Y-92251368D01*
X118826010Y-92494589D01*
X118714068Y-92764842D01*
X118657000Y-93051740D01*
X118657000Y-93344260D01*
X118714068Y-93631158D01*
X118826010Y-93901411D01*
X118988525Y-94144632D01*
X119195368Y-94351475D01*
X119369760Y-94468000D01*
X119195368Y-94584525D01*
X118988525Y-94791368D01*
X118826010Y-95034589D01*
X118714068Y-95304842D01*
X118657000Y-95591740D01*
X118657000Y-95884260D01*
X118714068Y-96171158D01*
X118826010Y-96441411D01*
X118988525Y-96684632D01*
X119195368Y-96891475D01*
X119369760Y-97008000D01*
X119195368Y-97124525D01*
X118988525Y-97331368D01*
X118826010Y-97574589D01*
X118714068Y-97844842D01*
X118657000Y-98131740D01*
X118657000Y-98424260D01*
X118714068Y-98711158D01*
X118826010Y-98981411D01*
X118988525Y-99224632D01*
X119195368Y-99431475D01*
X119369760Y-99548000D01*
X119195368Y-99664525D01*
X118988525Y-99871368D01*
X118826010Y-100114589D01*
X118714068Y-100384842D01*
X118657000Y-100671740D01*
X118657000Y-100964260D01*
X118714068Y-101251158D01*
X118826010Y-101521411D01*
X118988525Y-101764632D01*
X119195368Y-101971475D01*
X119369760Y-102088000D01*
X119195368Y-102204525D01*
X118988525Y-102411368D01*
X118826010Y-102654589D01*
X118714068Y-102924842D01*
X118657000Y-103211740D01*
X118657000Y-103504260D01*
X118714068Y-103791158D01*
X118826010Y-104061411D01*
X118988525Y-104304632D01*
X119195368Y-104511475D01*
X119369760Y-104628000D01*
X119195368Y-104744525D01*
X118988525Y-104951368D01*
X118826010Y-105194589D01*
X118714068Y-105464842D01*
X118657000Y-105751740D01*
X118657000Y-106044260D01*
X118714068Y-106331158D01*
X118826010Y-106601411D01*
X118988525Y-106844632D01*
X119195368Y-107051475D01*
X119369760Y-107168000D01*
X119195368Y-107284525D01*
X118988525Y-107491368D01*
X118826010Y-107734589D01*
X118714068Y-108004842D01*
X118657000Y-108291740D01*
X118657000Y-108584260D01*
X118714068Y-108871158D01*
X118826010Y-109141411D01*
X118988525Y-109384632D01*
X119195368Y-109591475D01*
X119369760Y-109708000D01*
X119195368Y-109824525D01*
X118988525Y-110031368D01*
X118826010Y-110274589D01*
X118714068Y-110544842D01*
X118657000Y-110831740D01*
X118657000Y-111124260D01*
X118714068Y-111411158D01*
X118826010Y-111681411D01*
X118988525Y-111924632D01*
X119195368Y-112131475D01*
X119369760Y-112248000D01*
X119195368Y-112364525D01*
X118988525Y-112571368D01*
X118826010Y-112814589D01*
X118714068Y-113084842D01*
X118657000Y-113371740D01*
X118657000Y-113664260D01*
X118714068Y-113951158D01*
X118826010Y-114221411D01*
X118988525Y-114464632D01*
X119195368Y-114671475D01*
X119369760Y-114788000D01*
X119195368Y-114904525D01*
X118988525Y-115111368D01*
X118826010Y-115354589D01*
X118714068Y-115624842D01*
X118657000Y-115911740D01*
X118657000Y-116204260D01*
X118714068Y-116491158D01*
X118826010Y-116761411D01*
X118988525Y-117004632D01*
X119195368Y-117211475D01*
X119369760Y-117328000D01*
X119195368Y-117444525D01*
X118988525Y-117651368D01*
X118826010Y-117894589D01*
X118714068Y-118164842D01*
X118657000Y-118451740D01*
X118657000Y-118744260D01*
X118714068Y-119031158D01*
X118826010Y-119301411D01*
X118988525Y-119544632D01*
X119195368Y-119751475D01*
X119369760Y-119868000D01*
X119195368Y-119984525D01*
X118988525Y-120191368D01*
X118826010Y-120434589D01*
X118714068Y-120704842D01*
X118657000Y-120991740D01*
X118657000Y-121284260D01*
X118714068Y-121571158D01*
X118826010Y-121841411D01*
X118988525Y-122084632D01*
X119195368Y-122291475D01*
X119369760Y-122408000D01*
X119195368Y-122524525D01*
X118988525Y-122731368D01*
X118826010Y-122974589D01*
X118714068Y-123244842D01*
X118657000Y-123531740D01*
X118657000Y-123824260D01*
X118714068Y-124111158D01*
X118826010Y-124381411D01*
X118988525Y-124624632D01*
X119120380Y-124756487D01*
X119047820Y-124778498D01*
X118937506Y-124837463D01*
X118840815Y-124916815D01*
X118761463Y-125013506D01*
X118702498Y-125123820D01*
X118666188Y-125243518D01*
X118653928Y-125368000D01*
X106106679Y-125368000D01*
X106055475Y-125291368D01*
X105848632Y-125084525D01*
X105666466Y-124962805D01*
X105783355Y-124893178D01*
X105999588Y-124698269D01*
X106173641Y-124464920D01*
X106298825Y-124202099D01*
X106343476Y-124054890D01*
X106222155Y-123825000D01*
X105029000Y-123825000D01*
X105029000Y-123845000D01*
X104775000Y-123845000D01*
X104775000Y-123825000D01*
X103581845Y-123825000D01*
X103460524Y-124054890D01*
X103505175Y-124202099D01*
X103630359Y-124464920D01*
X103804412Y-124698269D01*
X104020645Y-124893178D01*
X104137534Y-124962805D01*
X103955368Y-125084525D01*
X103748525Y-125291368D01*
X103586010Y-125534589D01*
X103474068Y-125804842D01*
X103417000Y-126091740D01*
X100660000Y-126091740D01*
X100660000Y-66968000D01*
X103413928Y-66968000D01*
X103413928Y-68668000D01*
X103426188Y-68792482D01*
X103462498Y-68912180D01*
X103521463Y-69022494D01*
X103600815Y-69119185D01*
X103697506Y-69198537D01*
X103807820Y-69257502D01*
X103880380Y-69279513D01*
X103748525Y-69411368D01*
X103586010Y-69654589D01*
X103474068Y-69924842D01*
X103417000Y-70211740D01*
X103417000Y-70504260D01*
X103474068Y-70791158D01*
X103586010Y-71061411D01*
X103748525Y-71304632D01*
X103955368Y-71511475D01*
X104129760Y-71628000D01*
X103955368Y-71744525D01*
X103748525Y-71951368D01*
X103586010Y-72194589D01*
X103474068Y-72464842D01*
X103417000Y-72751740D01*
X103417000Y-73044260D01*
X103474068Y-73331158D01*
X103586010Y-73601411D01*
X103748525Y-73844632D01*
X103955368Y-74051475D01*
X104129760Y-74168000D01*
X103955368Y-74284525D01*
X103748525Y-74491368D01*
X103586010Y-74734589D01*
X103474068Y-75004842D01*
X103417000Y-75291740D01*
X103417000Y-75584260D01*
X103474068Y-75871158D01*
X103586010Y-76141411D01*
X103748525Y-76384632D01*
X103955368Y-76591475D01*
X104129760Y-76708000D01*
X103955368Y-76824525D01*
X103748525Y-77031368D01*
X103586010Y-77274589D01*
X103474068Y-77544842D01*
X103417000Y-77831740D01*
X103417000Y-78124260D01*
X103474068Y-78411158D01*
X103586010Y-78681411D01*
X103748525Y-78924632D01*
X103955368Y-79131475D01*
X104129760Y-79248000D01*
X103955368Y-79364525D01*
X103748525Y-79571368D01*
X103586010Y-79814589D01*
X103474068Y-80084842D01*
X103417000Y-80371740D01*
X103417000Y-80664260D01*
X103474068Y-80951158D01*
X103586010Y-81221411D01*
X103748525Y-81464632D01*
X103955368Y-81671475D01*
X104129760Y-81788000D01*
X103955368Y-81904525D01*
X103748525Y-82111368D01*
X103586010Y-82354589D01*
X103474068Y-82624842D01*
X103417000Y-82911740D01*
X103417000Y-83204260D01*
X103474068Y-83491158D01*
X103586010Y-83761411D01*
X103748525Y-84004632D01*
X103955368Y-84211475D01*
X104129760Y-84328000D01*
X103955368Y-84444525D01*
X103748525Y-84651368D01*
X103586010Y-84894589D01*
X103474068Y-85164842D01*
X103417000Y-85451740D01*
X103417000Y-85744260D01*
X103474068Y-86031158D01*
X103586010Y-86301411D01*
X103748525Y-86544632D01*
X103955368Y-86751475D01*
X104129760Y-86868000D01*
X103955368Y-86984525D01*
X103748525Y-87191368D01*
X103586010Y-87434589D01*
X103474068Y-87704842D01*
X103417000Y-87991740D01*
X103417000Y-88284260D01*
X103474068Y-88571158D01*
X103586010Y-88841411D01*
X103748525Y-89084632D01*
X103955368Y-89291475D01*
X104129760Y-89408000D01*
X103955368Y-89524525D01*
X103748525Y-89731368D01*
X103586010Y-89974589D01*
X103474068Y-90244842D01*
X103417000Y-90531740D01*
X103417000Y-90824260D01*
X103474068Y-91111158D01*
X103586010Y-91381411D01*
X103748525Y-91624632D01*
X103955368Y-91831475D01*
X104129760Y-91948000D01*
X103955368Y-92064525D01*
X103748525Y-92271368D01*
X103586010Y-92514589D01*
X103474068Y-92784842D01*
X103417000Y-93071740D01*
X103417000Y-93364260D01*
X103474068Y-93651158D01*
X103586010Y-93921411D01*
X103748525Y-94164632D01*
X103955368Y-94371475D01*
X104129760Y-94488000D01*
X103955368Y-94604525D01*
X103748525Y-94811368D01*
X103586010Y-95054589D01*
X103474068Y-95324842D01*
X103417000Y-95611740D01*
X103417000Y-95904260D01*
X103474068Y-96191158D01*
X103586010Y-96461411D01*
X103748525Y-96704632D01*
X103955368Y-96911475D01*
X104129760Y-97028000D01*
X103955368Y-97144525D01*
X103748525Y-97351368D01*
X103586010Y-97594589D01*
X103474068Y-97864842D01*
X103417000Y-98151740D01*
X103417000Y-98444260D01*
X103474068Y-98731158D01*
X103586010Y-99001411D01*
X103748525Y-99244632D01*
X103955368Y-99451475D01*
X104129760Y-99568000D01*
X103955368Y-99684525D01*
X103748525Y-99891368D01*
X103586010Y-100134589D01*
X103474068Y-100404842D01*
X103417000Y-100691740D01*
X103417000Y-100984260D01*
X103474068Y-101271158D01*
X103586010Y-101541411D01*
X103748525Y-101784632D01*
X103955368Y-101991475D01*
X104129760Y-102108000D01*
X103955368Y-102224525D01*
X103748525Y-102431368D01*
X103586010Y-102674589D01*
X103474068Y-102944842D01*
X103417000Y-103231740D01*
X103417000Y-103524260D01*
X103474068Y-103811158D01*
X103586010Y-104081411D01*
X103748525Y-104324632D01*
X103955368Y-104531475D01*
X104129760Y-104648000D01*
X103955368Y-104764525D01*
X103748525Y-104971368D01*
X103586010Y-105214589D01*
X103474068Y-105484842D01*
X103417000Y-105771740D01*
X103417000Y-106064260D01*
X103474068Y-106351158D01*
X103586010Y-106621411D01*
X103748525Y-106864632D01*
X103955368Y-107071475D01*
X104129760Y-107188000D01*
X103955368Y-107304525D01*
X103748525Y-107511368D01*
X103586010Y-107754589D01*
X103474068Y-108024842D01*
X103417000Y-108311740D01*
X103417000Y-108604260D01*
X103474068Y-108891158D01*
X103586010Y-109161411D01*
X103748525Y-109404632D01*
X103955368Y-109611475D01*
X104129760Y-109728000D01*
X103955368Y-109844525D01*
X103748525Y-110051368D01*
X103586010Y-110294589D01*
X103474068Y-110564842D01*
X103417000Y-110851740D01*
X103417000Y-111144260D01*
X103474068Y-111431158D01*
X103586010Y-111701411D01*
X103748525Y-111944632D01*
X103955368Y-112151475D01*
X104129760Y-112268000D01*
X103955368Y-112384525D01*
X103748525Y-112591368D01*
X103586010Y-112834589D01*
X103474068Y-113104842D01*
X103417000Y-113391740D01*
X103417000Y-113684260D01*
X103474068Y-113971158D01*
X103586010Y-114241411D01*
X103748525Y-114484632D01*
X103955368Y-114691475D01*
X104129760Y-114808000D01*
X103955368Y-114924525D01*
X103748525Y-115131368D01*
X103586010Y-115374589D01*
X103474068Y-115644842D01*
X103417000Y-115931740D01*
X103417000Y-116224260D01*
X103474068Y-116511158D01*
X103586010Y-116781411D01*
X103748525Y-117024632D01*
X103955368Y-117231475D01*
X104129760Y-117348000D01*
X103955368Y-117464525D01*
X103748525Y-117671368D01*
X103586010Y-117914589D01*
X103474068Y-118184842D01*
X103417000Y-118471740D01*
X103417000Y-118764260D01*
X103474068Y-119051158D01*
X103586010Y-119321411D01*
X103748525Y-119564632D01*
X103955368Y-119771475D01*
X104129760Y-119888000D01*
X103955368Y-120004525D01*
X103748525Y-120211368D01*
X103586010Y-120454589D01*
X103474068Y-120724842D01*
X103417000Y-121011740D01*
X103417000Y-121304260D01*
X103474068Y-121591158D01*
X103586010Y-121861411D01*
X103748525Y-122104632D01*
X103955368Y-122311475D01*
X104137534Y-122433195D01*
X104020645Y-122502822D01*
X103804412Y-122697731D01*
X103630359Y-122931080D01*
X103505175Y-123193901D01*
X103460524Y-123341110D01*
X103581845Y-123571000D01*
X104775000Y-123571000D01*
X104775000Y-123551000D01*
X105029000Y-123551000D01*
X105029000Y-123571000D01*
X106222155Y-123571000D01*
X106343476Y-123341110D01*
X106298825Y-123193901D01*
X106173641Y-122931080D01*
X105999588Y-122697731D01*
X105783355Y-122502822D01*
X105666466Y-122433195D01*
X105848632Y-122311475D01*
X106055475Y-122104632D01*
X106217990Y-121861411D01*
X106329932Y-121591158D01*
X106387000Y-121304260D01*
X106387000Y-121011740D01*
X106329932Y-120724842D01*
X106217990Y-120454589D01*
X106055475Y-120211368D01*
X105848632Y-120004525D01*
X105674240Y-119888000D01*
X105848632Y-119771475D01*
X106055475Y-119564632D01*
X106217990Y-119321411D01*
X106329932Y-119051158D01*
X106387000Y-118764260D01*
X106387000Y-118471740D01*
X106329932Y-118184842D01*
X106217990Y-117914589D01*
X106055475Y-117671368D01*
X105848632Y-117464525D01*
X105674240Y-117348000D01*
X105848632Y-117231475D01*
X106055475Y-117024632D01*
X106065251Y-117010000D01*
X110783928Y-117010000D01*
X110783928Y-119210000D01*
X110796188Y-119334482D01*
X110832498Y-119454180D01*
X110891463Y-119564494D01*
X110970815Y-119661185D01*
X111067506Y-119740537D01*
X111177820Y-119799502D01*
X111297518Y-119835812D01*
X111422000Y-119848072D01*
X113622000Y-119848072D01*
X113746482Y-119835812D01*
X113866180Y-119799502D01*
X113976494Y-119740537D01*
X114073185Y-119661185D01*
X114152537Y-119564494D01*
X114211502Y-119454180D01*
X114247812Y-119334482D01*
X114260072Y-119210000D01*
X114260072Y-117010000D01*
X114247812Y-116885518D01*
X114211502Y-116765820D01*
X114152537Y-116655506D01*
X114073185Y-116558815D01*
X113976494Y-116479463D01*
X113866180Y-116420498D01*
X113746482Y-116384188D01*
X113622000Y-116371928D01*
X111422000Y-116371928D01*
X111297518Y-116384188D01*
X111177820Y-116420498D01*
X111067506Y-116479463D01*
X110970815Y-116558815D01*
X110891463Y-116655506D01*
X110832498Y-116765820D01*
X110796188Y-116885518D01*
X110783928Y-117010000D01*
X106065251Y-117010000D01*
X106217990Y-116781411D01*
X106329932Y-116511158D01*
X106387000Y-116224260D01*
X106387000Y-115931740D01*
X106329932Y-115644842D01*
X106217990Y-115374589D01*
X106055475Y-115131368D01*
X105848632Y-114924525D01*
X105674240Y-114808000D01*
X105848632Y-114691475D01*
X106055475Y-114484632D01*
X106217990Y-114241411D01*
X106329932Y-113971158D01*
X106387000Y-113684260D01*
X106387000Y-113391740D01*
X106329932Y-113104842D01*
X106217990Y-112834589D01*
X106055475Y-112591368D01*
X105848632Y-112384525D01*
X105674240Y-112268000D01*
X105848632Y-112151475D01*
X106055475Y-111944632D01*
X106217990Y-111701411D01*
X106329932Y-111431158D01*
X106387000Y-111144260D01*
X106387000Y-110851740D01*
X106329932Y-110564842D01*
X106217990Y-110294589D01*
X106055475Y-110051368D01*
X105848632Y-109844525D01*
X105674240Y-109728000D01*
X105848632Y-109611475D01*
X106055475Y-109404632D01*
X106217990Y-109161411D01*
X106329932Y-108891158D01*
X106387000Y-108604260D01*
X106387000Y-108311740D01*
X106329932Y-108024842D01*
X106217990Y-107754589D01*
X106055475Y-107511368D01*
X105848632Y-107304525D01*
X105674240Y-107188000D01*
X105848632Y-107071475D01*
X106055475Y-106864632D01*
X106217990Y-106621411D01*
X106329932Y-106351158D01*
X106387000Y-106064260D01*
X106387000Y-105771740D01*
X106329932Y-105484842D01*
X106217990Y-105214589D01*
X106055475Y-104971368D01*
X105848632Y-104764525D01*
X105674240Y-104648000D01*
X105848632Y-104531475D01*
X106055475Y-104324632D01*
X106217990Y-104081411D01*
X106329932Y-103811158D01*
X106387000Y-103524260D01*
X106387000Y-103231740D01*
X106329932Y-102944842D01*
X106217990Y-102674589D01*
X106055475Y-102431368D01*
X105848632Y-102224525D01*
X105674240Y-102108000D01*
X105848632Y-101991475D01*
X106055475Y-101784632D01*
X106217990Y-101541411D01*
X106329932Y-101271158D01*
X106387000Y-100984260D01*
X106387000Y-100691740D01*
X106329932Y-100404842D01*
X106217990Y-100134589D01*
X106055475Y-99891368D01*
X105848632Y-99684525D01*
X105674240Y-99568000D01*
X105848632Y-99451475D01*
X106055475Y-99244632D01*
X106217990Y-99001411D01*
X106329932Y-98731158D01*
X106387000Y-98444260D01*
X106387000Y-98151740D01*
X106329932Y-97864842D01*
X106217990Y-97594589D01*
X106055475Y-97351368D01*
X105848632Y-97144525D01*
X105674240Y-97028000D01*
X105848632Y-96911475D01*
X106055475Y-96704632D01*
X106217990Y-96461411D01*
X106329932Y-96191158D01*
X106387000Y-95904260D01*
X106387000Y-95611740D01*
X106329932Y-95324842D01*
X106217990Y-95054589D01*
X106055475Y-94811368D01*
X105848632Y-94604525D01*
X105674240Y-94488000D01*
X105848632Y-94371475D01*
X106055475Y-94164632D01*
X106217990Y-93921411D01*
X106329932Y-93651158D01*
X106387000Y-93364260D01*
X106387000Y-93071740D01*
X106329932Y-92784842D01*
X106217990Y-92514589D01*
X106055475Y-92271368D01*
X105848632Y-92064525D01*
X105674240Y-91948000D01*
X105848632Y-91831475D01*
X106055475Y-91624632D01*
X106217990Y-91381411D01*
X106329932Y-91111158D01*
X106387000Y-90824260D01*
X106387000Y-90531740D01*
X106329932Y-90244842D01*
X106217990Y-89974589D01*
X106055475Y-89731368D01*
X105848632Y-89524525D01*
X105674240Y-89408000D01*
X105848632Y-89291475D01*
X106055475Y-89084632D01*
X106217990Y-88841411D01*
X106329932Y-88571158D01*
X106387000Y-88284260D01*
X106387000Y-87991740D01*
X106329932Y-87704842D01*
X106217990Y-87434589D01*
X106055475Y-87191368D01*
X105848632Y-86984525D01*
X105674240Y-86868000D01*
X105848632Y-86751475D01*
X106055475Y-86544632D01*
X106217990Y-86301411D01*
X106329932Y-86031158D01*
X106387000Y-85744260D01*
X106387000Y-85451740D01*
X106329932Y-85164842D01*
X106217990Y-84894589D01*
X106055475Y-84651368D01*
X105848632Y-84444525D01*
X105674240Y-84328000D01*
X105848632Y-84211475D01*
X106055475Y-84004632D01*
X106217990Y-83761411D01*
X106329932Y-83491158D01*
X106387000Y-83204260D01*
X106387000Y-82911740D01*
X106329932Y-82624842D01*
X106217990Y-82354589D01*
X106055475Y-82111368D01*
X105848632Y-81904525D01*
X105674240Y-81788000D01*
X105848632Y-81671475D01*
X106055475Y-81464632D01*
X106217990Y-81221411D01*
X106329932Y-80951158D01*
X106387000Y-80664260D01*
X106387000Y-80371740D01*
X106329932Y-80084842D01*
X106217990Y-79814589D01*
X106055475Y-79571368D01*
X105848632Y-79364525D01*
X105674240Y-79248000D01*
X105848632Y-79131475D01*
X106055475Y-78924632D01*
X106217990Y-78681411D01*
X106329932Y-78411158D01*
X106387000Y-78124260D01*
X106387000Y-77831740D01*
X106329932Y-77544842D01*
X106217990Y-77274589D01*
X106055475Y-77031368D01*
X105848632Y-76824525D01*
X105674240Y-76708000D01*
X105848632Y-76591475D01*
X106055475Y-76384632D01*
X106217990Y-76141411D01*
X106329932Y-75871158D01*
X106387000Y-75584260D01*
X106387000Y-75291740D01*
X106329932Y-75004842D01*
X106217990Y-74734589D01*
X106055475Y-74491368D01*
X105848632Y-74284525D01*
X105674240Y-74168000D01*
X105848632Y-74051475D01*
X106055475Y-73844632D01*
X106217990Y-73601411D01*
X106329932Y-73331158D01*
X106387000Y-73044260D01*
X106387000Y-72751740D01*
X106329932Y-72464842D01*
X106217990Y-72194589D01*
X106055475Y-71951368D01*
X105848632Y-71744525D01*
X105674240Y-71628000D01*
X105848632Y-71511475D01*
X106055475Y-71304632D01*
X106217990Y-71061411D01*
X106329932Y-70791158D01*
X106387000Y-70504260D01*
X106387000Y-70211740D01*
X106329932Y-69924842D01*
X106217990Y-69654589D01*
X106055475Y-69411368D01*
X105923620Y-69279513D01*
X105996180Y-69257502D01*
X106106494Y-69198537D01*
X106203185Y-69119185D01*
X106282537Y-69022494D01*
X106341502Y-68912180D01*
X106377812Y-68792482D01*
X106390072Y-68668000D01*
X106390072Y-66968000D01*
X106377812Y-66843518D01*
X106341502Y-66723820D01*
X106282537Y-66613506D01*
X106203185Y-66516815D01*
X106106494Y-66437463D01*
X105996180Y-66378498D01*
X105876482Y-66342188D01*
X105752000Y-66329928D01*
X104052000Y-66329928D01*
X103927518Y-66342188D01*
X103807820Y-66378498D01*
X103697506Y-66437463D01*
X103600815Y-66516815D01*
X103521463Y-66613506D01*
X103462498Y-66723820D01*
X103426188Y-66843518D01*
X103413928Y-66968000D01*
X100660000Y-66968000D01*
X100660000Y-57257740D01*
X103417000Y-57257740D01*
X103417000Y-57550260D01*
X103474068Y-57837158D01*
X103586010Y-58107411D01*
X103748525Y-58350632D01*
X103955368Y-58557475D01*
X104198589Y-58719990D01*
X104468842Y-58831932D01*
X104755740Y-58889000D01*
X105048260Y-58889000D01*
X105335158Y-58831932D01*
X105605411Y-58719990D01*
X105848632Y-58557475D01*
X106055475Y-58350632D01*
X106217990Y-58107411D01*
X106329932Y-57837158D01*
X106387000Y-57550260D01*
X106387000Y-57257740D01*
X106329932Y-56970842D01*
X106217990Y-56700589D01*
X106055475Y-56457368D01*
X105848632Y-56250525D01*
X105666466Y-56128805D01*
X105783355Y-56059178D01*
X105999588Y-55864269D01*
X106173641Y-55630920D01*
X106298825Y-55368099D01*
X106343476Y-55220890D01*
X106291439Y-55122285D01*
X107665000Y-55122285D01*
X107665000Y-55877715D01*
X107812377Y-56618628D01*
X108101467Y-57316554D01*
X108521161Y-57944670D01*
X109055330Y-58478839D01*
X109683446Y-58898533D01*
X110381372Y-59187623D01*
X111122285Y-59335000D01*
X111877715Y-59335000D01*
X112618628Y-59187623D01*
X113316554Y-58898533D01*
X113944670Y-58478839D01*
X114478839Y-57944670D01*
X114898533Y-57316554D01*
X115187623Y-56618628D01*
X115335000Y-55877715D01*
X115335000Y-55122285D01*
X115284477Y-54868285D01*
X123919000Y-54868285D01*
X123919000Y-55623715D01*
X124066377Y-56364628D01*
X124355467Y-57062554D01*
X124775161Y-57690670D01*
X125309330Y-58224839D01*
X125937446Y-58644533D01*
X126635372Y-58933623D01*
X127376285Y-59081000D01*
X128131715Y-59081000D01*
X128872628Y-58933623D01*
X129570554Y-58644533D01*
X130198670Y-58224839D01*
X130732839Y-57690670D01*
X131152533Y-57062554D01*
X131441623Y-56364628D01*
X131589000Y-55623715D01*
X131589000Y-54868285D01*
X131441623Y-54127372D01*
X131152533Y-53429446D01*
X130732839Y-52801330D01*
X130198670Y-52267161D01*
X129570554Y-51847467D01*
X128872628Y-51558377D01*
X128131715Y-51411000D01*
X127376285Y-51411000D01*
X126635372Y-51558377D01*
X125937446Y-51847467D01*
X125309330Y-52267161D01*
X124775161Y-52801330D01*
X124355467Y-53429446D01*
X124066377Y-54127372D01*
X123919000Y-54868285D01*
X115284477Y-54868285D01*
X115187623Y-54381372D01*
X114898533Y-53683446D01*
X114478839Y-53055330D01*
X113944670Y-52521161D01*
X113316554Y-52101467D01*
X112618628Y-51812377D01*
X111877715Y-51665000D01*
X111122285Y-51665000D01*
X110381372Y-51812377D01*
X109683446Y-52101467D01*
X109055330Y-52521161D01*
X108521161Y-53055330D01*
X108101467Y-53683446D01*
X107812377Y-54381372D01*
X107665000Y-55122285D01*
X106291439Y-55122285D01*
X106222155Y-54991000D01*
X105029000Y-54991000D01*
X105029000Y-55011000D01*
X104775000Y-55011000D01*
X104775000Y-54991000D01*
X103581845Y-54991000D01*
X103460524Y-55220890D01*
X103505175Y-55368099D01*
X103630359Y-55630920D01*
X103804412Y-55864269D01*
X104020645Y-56059178D01*
X104137534Y-56128805D01*
X103955368Y-56250525D01*
X103748525Y-56457368D01*
X103586010Y-56700589D01*
X103474068Y-56970842D01*
X103417000Y-57257740D01*
X100660000Y-57257740D01*
X100660000Y-41314000D01*
X103413928Y-41314000D01*
X103413928Y-43014000D01*
X103426188Y-43138482D01*
X103462498Y-43258180D01*
X103521463Y-43368494D01*
X103600815Y-43465185D01*
X103697506Y-43544537D01*
X103807820Y-43603502D01*
X103880380Y-43625513D01*
X103748525Y-43757368D01*
X103586010Y-44000589D01*
X103474068Y-44270842D01*
X103417000Y-44557740D01*
X103417000Y-44850260D01*
X103474068Y-45137158D01*
X103586010Y-45407411D01*
X103748525Y-45650632D01*
X103955368Y-45857475D01*
X104129760Y-45974000D01*
X103955368Y-46090525D01*
X103748525Y-46297368D01*
X103586010Y-46540589D01*
X103474068Y-46810842D01*
X103417000Y-47097740D01*
X103417000Y-47390260D01*
X103474068Y-47677158D01*
X103586010Y-47947411D01*
X103748525Y-48190632D01*
X103955368Y-48397475D01*
X104129760Y-48514000D01*
X103955368Y-48630525D01*
X103748525Y-48837368D01*
X103586010Y-49080589D01*
X103474068Y-49350842D01*
X103417000Y-49637740D01*
X103417000Y-49930260D01*
X103474068Y-50217158D01*
X103586010Y-50487411D01*
X103748525Y-50730632D01*
X103955368Y-50937475D01*
X104129760Y-51054000D01*
X103955368Y-51170525D01*
X103748525Y-51377368D01*
X103586010Y-51620589D01*
X103474068Y-51890842D01*
X103417000Y-52177740D01*
X103417000Y-52470260D01*
X103474068Y-52757158D01*
X103586010Y-53027411D01*
X103748525Y-53270632D01*
X103955368Y-53477475D01*
X104137534Y-53599195D01*
X104020645Y-53668822D01*
X103804412Y-53863731D01*
X103630359Y-54097080D01*
X103505175Y-54359901D01*
X103460524Y-54507110D01*
X103581845Y-54737000D01*
X104775000Y-54737000D01*
X104775000Y-54717000D01*
X105029000Y-54717000D01*
X105029000Y-54737000D01*
X106222155Y-54737000D01*
X106343476Y-54507110D01*
X106298825Y-54359901D01*
X106173641Y-54097080D01*
X105999588Y-53863731D01*
X105783355Y-53668822D01*
X105666466Y-53599195D01*
X105848632Y-53477475D01*
X106055475Y-53270632D01*
X106217990Y-53027411D01*
X106329932Y-52757158D01*
X106387000Y-52470260D01*
X106387000Y-52177740D01*
X106329932Y-51890842D01*
X106217990Y-51620589D01*
X106055475Y-51377368D01*
X105848632Y-51170525D01*
X105674240Y-51054000D01*
X105848632Y-50937475D01*
X106055475Y-50730632D01*
X106217990Y-50487411D01*
X106329932Y-50217158D01*
X106387000Y-49930260D01*
X106387000Y-49637740D01*
X106329932Y-49350842D01*
X106217990Y-49080589D01*
X106055475Y-48837368D01*
X105848632Y-48630525D01*
X105674240Y-48514000D01*
X105848632Y-48397475D01*
X105873442Y-48372665D01*
X133185000Y-48372665D01*
X133185000Y-48655335D01*
X133240147Y-48932574D01*
X133348320Y-49193727D01*
X133505363Y-49428759D01*
X133705241Y-49628637D01*
X133940273Y-49785680D01*
X134201426Y-49893853D01*
X134478665Y-49949000D01*
X134761335Y-49949000D01*
X135038574Y-49893853D01*
X135299727Y-49785680D01*
X135534759Y-49628637D01*
X135734637Y-49428759D01*
X135891680Y-49193727D01*
X135999853Y-48932574D01*
X136055000Y-48655335D01*
X136055000Y-48372665D01*
X135999853Y-48095426D01*
X135891680Y-47834273D01*
X135734637Y-47599241D01*
X135534759Y-47399363D01*
X135299727Y-47242320D01*
X135038574Y-47134147D01*
X134761335Y-47079000D01*
X134478665Y-47079000D01*
X134201426Y-47134147D01*
X133940273Y-47242320D01*
X133705241Y-47399363D01*
X133505363Y-47599241D01*
X133348320Y-47834273D01*
X133240147Y-48095426D01*
X133185000Y-48372665D01*
X105873442Y-48372665D01*
X106055475Y-48190632D01*
X106217990Y-47947411D01*
X106329932Y-47677158D01*
X106387000Y-47390260D01*
X106387000Y-47097740D01*
X106329932Y-46810842D01*
X106217990Y-46540589D01*
X106055475Y-46297368D01*
X105848632Y-46090525D01*
X105674240Y-45974000D01*
X105848632Y-45857475D01*
X106055475Y-45650632D01*
X106158095Y-45497050D01*
X117681000Y-45497050D01*
X117681000Y-45942949D01*
X117702487Y-46161110D01*
X117787401Y-46441033D01*
X117925294Y-46699013D01*
X118110866Y-46925134D01*
X118336986Y-47110706D01*
X118594966Y-47248599D01*
X118874889Y-47333513D01*
X119166000Y-47362185D01*
X119457110Y-47333513D01*
X119737033Y-47248599D01*
X119995013Y-47110706D01*
X120221134Y-46925134D01*
X120273223Y-46861663D01*
X120327595Y-46963386D01*
X120438038Y-47097962D01*
X120572614Y-47208405D01*
X120726150Y-47290472D01*
X120892746Y-47341008D01*
X121066000Y-47358072D01*
X122266000Y-47358072D01*
X122439254Y-47341008D01*
X122605850Y-47290472D01*
X122759386Y-47208405D01*
X122893962Y-47097962D01*
X123004405Y-46963386D01*
X123086472Y-46809850D01*
X123137008Y-46643254D01*
X123154072Y-46470000D01*
X123154072Y-44970000D01*
X123137008Y-44796746D01*
X123086472Y-44630150D01*
X123004405Y-44476614D01*
X122893962Y-44342038D01*
X122759386Y-44231595D01*
X122605850Y-44149528D01*
X122439254Y-44098992D01*
X122266000Y-44081928D01*
X121066000Y-44081928D01*
X120892746Y-44098992D01*
X120726150Y-44149528D01*
X120572614Y-44231595D01*
X120438038Y-44342038D01*
X120327595Y-44476614D01*
X120273223Y-44578337D01*
X120221134Y-44514866D01*
X119995014Y-44329294D01*
X119737034Y-44191401D01*
X119457111Y-44106487D01*
X119166000Y-44077815D01*
X118874890Y-44106487D01*
X118594967Y-44191401D01*
X118336987Y-44329294D01*
X118110866Y-44514866D01*
X117925294Y-44740986D01*
X117787401Y-44998966D01*
X117702487Y-45278889D01*
X117681000Y-45497050D01*
X106158095Y-45497050D01*
X106217990Y-45407411D01*
X106329932Y-45137158D01*
X106387000Y-44850260D01*
X106387000Y-44557740D01*
X106329932Y-44270842D01*
X106217990Y-44000589D01*
X106055475Y-43757368D01*
X105923620Y-43625513D01*
X105996180Y-43603502D01*
X106106494Y-43544537D01*
X106203185Y-43465185D01*
X106282537Y-43368494D01*
X106341502Y-43258180D01*
X106377812Y-43138482D01*
X106390072Y-43014000D01*
X106390072Y-41314000D01*
X106377812Y-41189518D01*
X106341502Y-41069820D01*
X106282537Y-40959506D01*
X106203185Y-40862815D01*
X106106494Y-40783463D01*
X105996180Y-40724498D01*
X105876482Y-40688188D01*
X105752000Y-40675928D01*
X104052000Y-40675928D01*
X103927518Y-40688188D01*
X103807820Y-40724498D01*
X103697506Y-40783463D01*
X103600815Y-40862815D01*
X103521463Y-40959506D01*
X103462498Y-41069820D01*
X103426188Y-41189518D01*
X103413928Y-41314000D01*
X100660000Y-41314000D01*
X100660000Y-38212665D01*
X133185000Y-38212665D01*
X133185000Y-38495335D01*
X133240147Y-38772574D01*
X133348320Y-39033727D01*
X133505363Y-39268759D01*
X133705241Y-39468637D01*
X133940273Y-39625680D01*
X134201426Y-39733853D01*
X134478665Y-39789000D01*
X134761335Y-39789000D01*
X135038574Y-39733853D01*
X135299727Y-39625680D01*
X135534759Y-39468637D01*
X135734637Y-39268759D01*
X135891680Y-39033727D01*
X135999853Y-38772574D01*
X136055000Y-38495335D01*
X136055000Y-38212665D01*
X135999853Y-37935426D01*
X135891680Y-37674273D01*
X135734637Y-37439241D01*
X135534759Y-37239363D01*
X135299727Y-37082320D01*
X135038574Y-36974147D01*
X134761335Y-36919000D01*
X134478665Y-36919000D01*
X134201426Y-36974147D01*
X133940273Y-37082320D01*
X133705241Y-37239363D01*
X133505363Y-37439241D01*
X133348320Y-37674273D01*
X133240147Y-37935426D01*
X133185000Y-38212665D01*
X100660000Y-38212665D01*
X100660000Y-36660000D01*
X138340000Y-36660000D01*
X138340001Y-154340000D01*
G04 #@! TA.AperFunction,Conductor*
D22*
G36*
X138340001Y-154340000D02*
G01*
X100660000Y-154340000D01*
X100660000Y-151804000D01*
X100873928Y-151804000D01*
X100873928Y-153504000D01*
X100886188Y-153628482D01*
X100922498Y-153748180D01*
X100981463Y-153858494D01*
X101060815Y-153955185D01*
X101157506Y-154034537D01*
X101267820Y-154093502D01*
X101387518Y-154129812D01*
X101512000Y-154142072D01*
X103212000Y-154142072D01*
X103336482Y-154129812D01*
X103456180Y-154093502D01*
X103566494Y-154034537D01*
X103663185Y-153955185D01*
X103742537Y-153858494D01*
X103801502Y-153748180D01*
X103837812Y-153628482D01*
X103850072Y-153504000D01*
X103850072Y-151804000D01*
X103837812Y-151679518D01*
X103801502Y-151559820D01*
X103742537Y-151449506D01*
X103663185Y-151352815D01*
X103566494Y-151273463D01*
X103456180Y-151214498D01*
X103375534Y-151190034D01*
X103459588Y-151114269D01*
X103633641Y-150880920D01*
X103758825Y-150618099D01*
X103803476Y-150470890D01*
X103682155Y-150241000D01*
X102489000Y-150241000D01*
X102489000Y-150261000D01*
X102235000Y-150261000D01*
X102235000Y-150241000D01*
X101041845Y-150241000D01*
X100920524Y-150470890D01*
X100965175Y-150618099D01*
X101090359Y-150880920D01*
X101264412Y-151114269D01*
X101348466Y-151190034D01*
X101267820Y-151214498D01*
X101157506Y-151273463D01*
X101060815Y-151352815D01*
X100981463Y-151449506D01*
X100922498Y-151559820D01*
X100886188Y-151679518D01*
X100873928Y-151804000D01*
X100660000Y-151804000D01*
X100660000Y-134727740D01*
X100877000Y-134727740D01*
X100877000Y-135020260D01*
X100934068Y-135307158D01*
X101046010Y-135577411D01*
X101208525Y-135820632D01*
X101415368Y-136027475D01*
X101589760Y-136144000D01*
X101415368Y-136260525D01*
X101208525Y-136467368D01*
X101046010Y-136710589D01*
X100934068Y-136980842D01*
X100877000Y-137267740D01*
X100877000Y-137560260D01*
X100934068Y-137847158D01*
X101046010Y-138117411D01*
X101208525Y-138360632D01*
X101415368Y-138567475D01*
X101589760Y-138684000D01*
X101415368Y-138800525D01*
X101208525Y-139007368D01*
X101046010Y-139250589D01*
X100934068Y-139520842D01*
X100877000Y-139807740D01*
X100877000Y-140100260D01*
X100934068Y-140387158D01*
X101046010Y-140657411D01*
X101208525Y-140900632D01*
X101415368Y-141107475D01*
X101589760Y-141224000D01*
X101415368Y-141340525D01*
X101208525Y-141547368D01*
X101046010Y-141790589D01*
X100934068Y-142060842D01*
X100877000Y-142347740D01*
X100877000Y-142640260D01*
X100934068Y-142927158D01*
X101046010Y-143197411D01*
X101208525Y-143440632D01*
X101415368Y-143647475D01*
X101589760Y-143764000D01*
X101415368Y-143880525D01*
X101208525Y-144087368D01*
X101046010Y-144330589D01*
X100934068Y-144600842D01*
X100877000Y-144887740D01*
X100877000Y-145180260D01*
X100934068Y-145467158D01*
X101046010Y-145737411D01*
X101208525Y-145980632D01*
X101415368Y-146187475D01*
X101589760Y-146304000D01*
X101415368Y-146420525D01*
X101208525Y-146627368D01*
X101046010Y-146870589D01*
X100934068Y-147140842D01*
X100877000Y-147427740D01*
X100877000Y-147720260D01*
X100934068Y-148007158D01*
X101046010Y-148277411D01*
X101208525Y-148520632D01*
X101415368Y-148727475D01*
X101597534Y-148849195D01*
X101480645Y-148918822D01*
X101264412Y-149113731D01*
X101090359Y-149347080D01*
X100965175Y-149609901D01*
X100920524Y-149757110D01*
X101041845Y-149987000D01*
X102235000Y-149987000D01*
X102235000Y-149967000D01*
X102489000Y-149967000D01*
X102489000Y-149987000D01*
X103682155Y-149987000D01*
X103803476Y-149757110D01*
X103758825Y-149609901D01*
X103633641Y-149347080D01*
X103459588Y-149113731D01*
X103243355Y-148918822D01*
X103126466Y-148849195D01*
X103308632Y-148727475D01*
X103515475Y-148520632D01*
X103677990Y-148277411D01*
X103789932Y-148007158D01*
X103847000Y-147720260D01*
X103847000Y-147427740D01*
X103789932Y-147140842D01*
X103677990Y-146870589D01*
X103515475Y-146627368D01*
X103308632Y-146420525D01*
X103134240Y-146304000D01*
X103308632Y-146187475D01*
X103515475Y-145980632D01*
X103677990Y-145737411D01*
X103789932Y-145467158D01*
X103847000Y-145180260D01*
X103847000Y-145122285D01*
X105665000Y-145122285D01*
X105665000Y-145877715D01*
X105812377Y-146618628D01*
X106101467Y-147316554D01*
X106521161Y-147944670D01*
X107055330Y-148478839D01*
X107683446Y-148898533D01*
X108381372Y-149187623D01*
X109122285Y-149335000D01*
X109877715Y-149335000D01*
X110618628Y-149187623D01*
X111316554Y-148898533D01*
X111944670Y-148478839D01*
X112478839Y-147944670D01*
X112898533Y-147316554D01*
X113187623Y-146618628D01*
X113335000Y-145877715D01*
X113335000Y-145122285D01*
X113187623Y-144381372D01*
X113042081Y-144030000D01*
X116621928Y-144030000D01*
X116621928Y-145530000D01*
X116638992Y-145703254D01*
X116689528Y-145869850D01*
X116771595Y-146023386D01*
X116882038Y-146157962D01*
X117016614Y-146268405D01*
X117170150Y-146350472D01*
X117336746Y-146401008D01*
X117510000Y-146418072D01*
X118710000Y-146418072D01*
X118883254Y-146401008D01*
X119049850Y-146350472D01*
X119203386Y-146268405D01*
X119337962Y-146157962D01*
X119448405Y-146023386D01*
X119502914Y-145921407D01*
X119503198Y-145921795D01*
X119717954Y-146118664D01*
X119966991Y-146269854D01*
X120240739Y-146369554D01*
X120253110Y-146371476D01*
X120483000Y-146250155D01*
X120483000Y-144907000D01*
X120737000Y-144907000D01*
X120737000Y-146250155D01*
X120966890Y-146371476D01*
X120979261Y-146369554D01*
X121253009Y-146269854D01*
X121502046Y-146118664D01*
X121716802Y-145921795D01*
X121889025Y-145686812D01*
X122012096Y-145422745D01*
X122081285Y-145139742D01*
X121937232Y-144907000D01*
X120737000Y-144907000D01*
X120483000Y-144907000D01*
X120463000Y-144907000D01*
X120463000Y-144653000D01*
X120483000Y-144653000D01*
X120483000Y-143309845D01*
X120737000Y-143309845D01*
X120737000Y-144653000D01*
X121937232Y-144653000D01*
X122081285Y-144420258D01*
X122012096Y-144137255D01*
X121962109Y-144030000D01*
X131861928Y-144030000D01*
X131861928Y-145530000D01*
X131878992Y-145703254D01*
X131929528Y-145869850D01*
X132011595Y-146023386D01*
X132122038Y-146157962D01*
X132256614Y-146268405D01*
X132410150Y-146350472D01*
X132576746Y-146401008D01*
X132750000Y-146418072D01*
X133950000Y-146418072D01*
X134123254Y-146401008D01*
X134289850Y-146350472D01*
X134443386Y-146268405D01*
X134577962Y-146157962D01*
X134688405Y-146023386D01*
X134742777Y-145921663D01*
X134794866Y-145985134D01*
X135020987Y-146170706D01*
X135278967Y-146308599D01*
X135558890Y-146393513D01*
X135850000Y-146422185D01*
X136141111Y-146393513D01*
X136421034Y-146308599D01*
X136679014Y-146170706D01*
X136905134Y-145985134D01*
X137090706Y-145759014D01*
X137228599Y-145501033D01*
X137313513Y-145221110D01*
X137335000Y-145002949D01*
X137335000Y-144557050D01*
X137313513Y-144338889D01*
X137228599Y-144058966D01*
X137090706Y-143800986D01*
X136905134Y-143574866D01*
X136679013Y-143389294D01*
X136421033Y-143251401D01*
X136141110Y-143166487D01*
X135850000Y-143137815D01*
X135558889Y-143166487D01*
X135278966Y-143251401D01*
X135020986Y-143389294D01*
X134794866Y-143574866D01*
X134742777Y-143638337D01*
X134688405Y-143536614D01*
X134577962Y-143402038D01*
X134443386Y-143291595D01*
X134289850Y-143209528D01*
X134123254Y-143158992D01*
X133950000Y-143141928D01*
X132750000Y-143141928D01*
X132576746Y-143158992D01*
X132410150Y-143209528D01*
X132256614Y-143291595D01*
X132122038Y-143402038D01*
X132011595Y-143536614D01*
X131929528Y-143690150D01*
X131878992Y-143856746D01*
X131861928Y-144030000D01*
X121962109Y-144030000D01*
X121889025Y-143873188D01*
X121716802Y-143638205D01*
X121502046Y-143441336D01*
X121253009Y-143290146D01*
X120979261Y-143190446D01*
X120966890Y-143188524D01*
X120737000Y-143309845D01*
X120483000Y-143309845D01*
X120253110Y-143188524D01*
X120240739Y-143190446D01*
X119966991Y-143290146D01*
X119717954Y-143441336D01*
X119503198Y-143638205D01*
X119502914Y-143638593D01*
X119448405Y-143536614D01*
X119337962Y-143402038D01*
X119203386Y-143291595D01*
X119049850Y-143209528D01*
X118883254Y-143158992D01*
X118710000Y-143141928D01*
X117510000Y-143141928D01*
X117336746Y-143158992D01*
X117170150Y-143209528D01*
X117016614Y-143291595D01*
X116882038Y-143402038D01*
X116771595Y-143536614D01*
X116689528Y-143690150D01*
X116638992Y-143856746D01*
X116621928Y-144030000D01*
X113042081Y-144030000D01*
X112898533Y-143683446D01*
X112478839Y-143055330D01*
X111944670Y-142521161D01*
X111316554Y-142101467D01*
X110618628Y-141812377D01*
X109877715Y-141665000D01*
X109122285Y-141665000D01*
X108381372Y-141812377D01*
X107683446Y-142101467D01*
X107055330Y-142521161D01*
X106521161Y-143055330D01*
X106101467Y-143683446D01*
X105812377Y-144381372D01*
X105665000Y-145122285D01*
X103847000Y-145122285D01*
X103847000Y-144887740D01*
X103789932Y-144600842D01*
X103677990Y-144330589D01*
X103515475Y-144087368D01*
X103308632Y-143880525D01*
X103134240Y-143764000D01*
X103308632Y-143647475D01*
X103515475Y-143440632D01*
X103677990Y-143197411D01*
X103789932Y-142927158D01*
X103847000Y-142640260D01*
X103847000Y-142347740D01*
X103789932Y-142060842D01*
X103677990Y-141790589D01*
X103515475Y-141547368D01*
X103308632Y-141340525D01*
X103134240Y-141224000D01*
X103308632Y-141107475D01*
X103515475Y-140900632D01*
X103677990Y-140657411D01*
X103789932Y-140387158D01*
X103847000Y-140100260D01*
X103847000Y-139807740D01*
X103789932Y-139520842D01*
X103677990Y-139250589D01*
X103515475Y-139007368D01*
X103308632Y-138800525D01*
X103134240Y-138684000D01*
X103308632Y-138567475D01*
X103515475Y-138360632D01*
X103677990Y-138117411D01*
X103789932Y-137847158D01*
X103847000Y-137560260D01*
X103847000Y-137267740D01*
X103789932Y-136980842D01*
X103677990Y-136710589D01*
X103515475Y-136467368D01*
X103308632Y-136260525D01*
X103134240Y-136144000D01*
X103308632Y-136027475D01*
X103515475Y-135820632D01*
X103662896Y-135600000D01*
X106665928Y-135600000D01*
X106665928Y-137400000D01*
X106678188Y-137524482D01*
X106714498Y-137644180D01*
X106773463Y-137754494D01*
X106852815Y-137851185D01*
X106949506Y-137930537D01*
X107059820Y-137989502D01*
X107078127Y-137995056D01*
X107011688Y-138061495D01*
X106843701Y-138312905D01*
X106727989Y-138592257D01*
X106669000Y-138888816D01*
X106669000Y-139191184D01*
X106727989Y-139487743D01*
X106843701Y-139767095D01*
X107011688Y-140018505D01*
X107225495Y-140232312D01*
X107476905Y-140400299D01*
X107756257Y-140516011D01*
X108052816Y-140575000D01*
X108355184Y-140575000D01*
X108651743Y-140516011D01*
X108931095Y-140400299D01*
X109182505Y-140232312D01*
X109396312Y-140018505D01*
X109564299Y-139767095D01*
X109680011Y-139487743D01*
X109739000Y-139191184D01*
X109739000Y-138888816D01*
X109680011Y-138592257D01*
X109564299Y-138312905D01*
X109396312Y-138061495D01*
X109329873Y-137995056D01*
X109348180Y-137989502D01*
X109458494Y-137930537D01*
X109555185Y-137851185D01*
X109634537Y-137754494D01*
X109693502Y-137644180D01*
X109729812Y-137524482D01*
X109742072Y-137400000D01*
X109742072Y-135600000D01*
X118857928Y-135600000D01*
X118857928Y-137400000D01*
X118870188Y-137524482D01*
X118906498Y-137644180D01*
X118965463Y-137754494D01*
X119044815Y-137851185D01*
X119141506Y-137930537D01*
X119251820Y-137989502D01*
X119270127Y-137995056D01*
X119203688Y-138061495D01*
X119035701Y-138312905D01*
X118919989Y-138592257D01*
X118861000Y-138888816D01*
X118861000Y-139191184D01*
X118919989Y-139487743D01*
X119035701Y-139767095D01*
X119203688Y-140018505D01*
X119417495Y-140232312D01*
X119668905Y-140400299D01*
X119948257Y-140516011D01*
X120244816Y-140575000D01*
X120547184Y-140575000D01*
X120843743Y-140516011D01*
X121123095Y-140400299D01*
X121374505Y-140232312D01*
X121588312Y-140018505D01*
X121756299Y-139767095D01*
X121872011Y-139487743D01*
X121931000Y-139191184D01*
X121931000Y-138888816D01*
X121872011Y-138592257D01*
X121756299Y-138312905D01*
X121588312Y-138061495D01*
X121521873Y-137995056D01*
X121540180Y-137989502D01*
X121650494Y-137930537D01*
X121747185Y-137851185D01*
X121826537Y-137754494D01*
X121885502Y-137644180D01*
X121921812Y-137524482D01*
X121934072Y-137400000D01*
X121934072Y-135600000D01*
X133335928Y-135600000D01*
X133335928Y-137400000D01*
X133348188Y-137524482D01*
X133384498Y-137644180D01*
X133443463Y-137754494D01*
X133522815Y-137851185D01*
X133619506Y-137930537D01*
X133729820Y-137989502D01*
X133748127Y-137995056D01*
X133681688Y-138061495D01*
X133513701Y-138312905D01*
X133397989Y-138592257D01*
X133339000Y-138888816D01*
X133339000Y-139191184D01*
X133397989Y-139487743D01*
X133513701Y-139767095D01*
X133681688Y-140018505D01*
X133895495Y-140232312D01*
X134146905Y-140400299D01*
X134426257Y-140516011D01*
X134722816Y-140575000D01*
X135025184Y-140575000D01*
X135321743Y-140516011D01*
X135601095Y-140400299D01*
X135852505Y-140232312D01*
X136066312Y-140018505D01*
X136234299Y-139767095D01*
X136350011Y-139487743D01*
X136409000Y-139191184D01*
X136409000Y-138888816D01*
X136350011Y-138592257D01*
X136234299Y-138312905D01*
X136066312Y-138061495D01*
X135999873Y-137995056D01*
X136018180Y-137989502D01*
X136128494Y-137930537D01*
X136225185Y-137851185D01*
X136304537Y-137754494D01*
X136363502Y-137644180D01*
X136399812Y-137524482D01*
X136412072Y-137400000D01*
X136412072Y-135600000D01*
X136399812Y-135475518D01*
X136363502Y-135355820D01*
X136304537Y-135245506D01*
X136225185Y-135148815D01*
X136128494Y-135069463D01*
X136018180Y-135010498D01*
X135898482Y-134974188D01*
X135774000Y-134961928D01*
X133974000Y-134961928D01*
X133849518Y-134974188D01*
X133729820Y-135010498D01*
X133619506Y-135069463D01*
X133522815Y-135148815D01*
X133443463Y-135245506D01*
X133384498Y-135355820D01*
X133348188Y-135475518D01*
X133335928Y-135600000D01*
X121934072Y-135600000D01*
X121921812Y-135475518D01*
X121885502Y-135355820D01*
X121826537Y-135245506D01*
X121747185Y-135148815D01*
X121650494Y-135069463D01*
X121540180Y-135010498D01*
X121420482Y-134974188D01*
X121296000Y-134961928D01*
X119496000Y-134961928D01*
X119371518Y-134974188D01*
X119251820Y-135010498D01*
X119141506Y-135069463D01*
X119044815Y-135148815D01*
X118965463Y-135245506D01*
X118906498Y-135355820D01*
X118870188Y-135475518D01*
X118857928Y-135600000D01*
X109742072Y-135600000D01*
X109729812Y-135475518D01*
X109693502Y-135355820D01*
X109634537Y-135245506D01*
X109555185Y-135148815D01*
X109458494Y-135069463D01*
X109348180Y-135010498D01*
X109228482Y-134974188D01*
X109104000Y-134961928D01*
X107304000Y-134961928D01*
X107179518Y-134974188D01*
X107059820Y-135010498D01*
X106949506Y-135069463D01*
X106852815Y-135148815D01*
X106773463Y-135245506D01*
X106714498Y-135355820D01*
X106678188Y-135475518D01*
X106665928Y-135600000D01*
X103662896Y-135600000D01*
X103677990Y-135577411D01*
X103789932Y-135307158D01*
X103847000Y-135020260D01*
X103847000Y-134727740D01*
X103789932Y-134440842D01*
X103677990Y-134170589D01*
X103515475Y-133927368D01*
X103308632Y-133720525D01*
X103065411Y-133558010D01*
X102795158Y-133446068D01*
X102508260Y-133389000D01*
X102215740Y-133389000D01*
X101928842Y-133446068D01*
X101658589Y-133558010D01*
X101415368Y-133720525D01*
X101208525Y-133927368D01*
X101046010Y-134170589D01*
X100934068Y-134440842D01*
X100877000Y-134727740D01*
X100660000Y-134727740D01*
X100660000Y-130668665D01*
X133185000Y-130668665D01*
X133185000Y-130951335D01*
X133240147Y-131228574D01*
X133348320Y-131489727D01*
X133505363Y-131724759D01*
X133705241Y-131924637D01*
X133940273Y-132081680D01*
X134201426Y-132189853D01*
X134478665Y-132245000D01*
X134761335Y-132245000D01*
X135038574Y-132189853D01*
X135299727Y-132081680D01*
X135534759Y-131924637D01*
X135734637Y-131724759D01*
X135891680Y-131489727D01*
X135999853Y-131228574D01*
X136055000Y-130951335D01*
X136055000Y-130668665D01*
X135999853Y-130391426D01*
X135891680Y-130130273D01*
X135734637Y-129895241D01*
X135534759Y-129695363D01*
X135299727Y-129538320D01*
X135038574Y-129430147D01*
X134761335Y-129375000D01*
X134478665Y-129375000D01*
X134201426Y-129430147D01*
X133940273Y-129538320D01*
X133705241Y-129695363D01*
X133505363Y-129895241D01*
X133348320Y-130130273D01*
X133240147Y-130391426D01*
X133185000Y-130668665D01*
X100660000Y-130668665D01*
X100660000Y-128099117D01*
X110787000Y-128099117D01*
X110787000Y-128440883D01*
X110853675Y-128776081D01*
X110984463Y-129091831D01*
X111174337Y-129375998D01*
X111416002Y-129617663D01*
X111700169Y-129807537D01*
X112015919Y-129938325D01*
X112351117Y-130005000D01*
X112692883Y-130005000D01*
X113028081Y-129938325D01*
X113343831Y-129807537D01*
X113627998Y-129617663D01*
X113869663Y-129375998D01*
X114059537Y-129091831D01*
X114190325Y-128776081D01*
X114257000Y-128440883D01*
X114257000Y-128099117D01*
X114190325Y-127763919D01*
X114059537Y-127448169D01*
X113869663Y-127164002D01*
X113627998Y-126922337D01*
X113343831Y-126732463D01*
X113028081Y-126601675D01*
X112692883Y-126535000D01*
X112351117Y-126535000D01*
X112015919Y-126601675D01*
X111700169Y-126732463D01*
X111416002Y-126922337D01*
X111174337Y-127164002D01*
X110984463Y-127448169D01*
X110853675Y-127763919D01*
X110787000Y-128099117D01*
X100660000Y-128099117D01*
X100660000Y-126091740D01*
X103417000Y-126091740D01*
X103417000Y-126384260D01*
X103474068Y-126671158D01*
X103586010Y-126941411D01*
X103748525Y-127184632D01*
X103955368Y-127391475D01*
X104198589Y-127553990D01*
X104468842Y-127665932D01*
X104755740Y-127723000D01*
X105048260Y-127723000D01*
X105335158Y-127665932D01*
X105605411Y-127553990D01*
X105848632Y-127391475D01*
X106055475Y-127184632D01*
X106217990Y-126941411D01*
X106329932Y-126671158D01*
X106387000Y-126384260D01*
X106387000Y-126091740D01*
X106329932Y-125804842D01*
X106217990Y-125534589D01*
X106106679Y-125368000D01*
X118653928Y-125368000D01*
X118653928Y-127068000D01*
X118666188Y-127192482D01*
X118702498Y-127312180D01*
X118761463Y-127422494D01*
X118840815Y-127519185D01*
X118937506Y-127598537D01*
X119047820Y-127657502D01*
X119167518Y-127693812D01*
X119292000Y-127706072D01*
X120992000Y-127706072D01*
X121116482Y-127693812D01*
X121236180Y-127657502D01*
X121346494Y-127598537D01*
X121443185Y-127519185D01*
X121522537Y-127422494D01*
X121581502Y-127312180D01*
X121617812Y-127192482D01*
X121630072Y-127068000D01*
X121630072Y-125368000D01*
X121617812Y-125243518D01*
X121581502Y-125123820D01*
X121522537Y-125013506D01*
X121443185Y-124916815D01*
X121346494Y-124837463D01*
X121236180Y-124778498D01*
X121163620Y-124756487D01*
X121295475Y-124624632D01*
X121457990Y-124381411D01*
X121569932Y-124111158D01*
X121627000Y-123824260D01*
X121627000Y-123810665D01*
X126073000Y-123810665D01*
X126073000Y-124093335D01*
X126128147Y-124370574D01*
X126236320Y-124631727D01*
X126393363Y-124866759D01*
X126593241Y-125066637D01*
X126828273Y-125223680D01*
X127089426Y-125331853D01*
X127366665Y-125387000D01*
X127649335Y-125387000D01*
X127926574Y-125331853D01*
X128187727Y-125223680D01*
X128422759Y-125066637D01*
X128622637Y-124866759D01*
X128779680Y-124631727D01*
X128887853Y-124370574D01*
X128943000Y-124093335D01*
X128943000Y-123810665D01*
X128887853Y-123533426D01*
X128779680Y-123272273D01*
X128622637Y-123037241D01*
X128422759Y-122837363D01*
X128187727Y-122680320D01*
X127926574Y-122572147D01*
X127649335Y-122517000D01*
X127366665Y-122517000D01*
X127089426Y-122572147D01*
X126828273Y-122680320D01*
X126593241Y-122837363D01*
X126393363Y-123037241D01*
X126236320Y-123272273D01*
X126128147Y-123533426D01*
X126073000Y-123810665D01*
X121627000Y-123810665D01*
X121627000Y-123531740D01*
X121569932Y-123244842D01*
X121457990Y-122974589D01*
X121295475Y-122731368D01*
X121088632Y-122524525D01*
X120914240Y-122408000D01*
X121088632Y-122291475D01*
X121295475Y-122084632D01*
X121457990Y-121841411D01*
X121569932Y-121571158D01*
X121627000Y-121284260D01*
X121627000Y-120991740D01*
X121569932Y-120704842D01*
X121488674Y-120508665D01*
X133185000Y-120508665D01*
X133185000Y-120791335D01*
X133240147Y-121068574D01*
X133348320Y-121329727D01*
X133505363Y-121564759D01*
X133705241Y-121764637D01*
X133940273Y-121921680D01*
X134201426Y-122029853D01*
X134478665Y-122085000D01*
X134761335Y-122085000D01*
X135038574Y-122029853D01*
X135299727Y-121921680D01*
X135534759Y-121764637D01*
X135734637Y-121564759D01*
X135891680Y-121329727D01*
X135999853Y-121068574D01*
X136055000Y-120791335D01*
X136055000Y-120508665D01*
X135999853Y-120231426D01*
X135891680Y-119970273D01*
X135734637Y-119735241D01*
X135534759Y-119535363D01*
X135299727Y-119378320D01*
X135038574Y-119270147D01*
X134761335Y-119215000D01*
X134478665Y-119215000D01*
X134201426Y-119270147D01*
X133940273Y-119378320D01*
X133705241Y-119535363D01*
X133505363Y-119735241D01*
X133348320Y-119970273D01*
X133240147Y-120231426D01*
X133185000Y-120508665D01*
X121488674Y-120508665D01*
X121457990Y-120434589D01*
X121295475Y-120191368D01*
X121088632Y-119984525D01*
X120914240Y-119868000D01*
X121088632Y-119751475D01*
X121295475Y-119544632D01*
X121457990Y-119301411D01*
X121569932Y-119031158D01*
X121627000Y-118744260D01*
X121627000Y-118451740D01*
X121569932Y-118164842D01*
X121457990Y-117894589D01*
X121295475Y-117651368D01*
X121088632Y-117444525D01*
X120914240Y-117328000D01*
X121088632Y-117211475D01*
X121295475Y-117004632D01*
X121457990Y-116761411D01*
X121569932Y-116491158D01*
X121627000Y-116204260D01*
X121627000Y-115911740D01*
X121569932Y-115624842D01*
X121457990Y-115354589D01*
X121295475Y-115111368D01*
X121088632Y-114904525D01*
X120914240Y-114788000D01*
X121088632Y-114671475D01*
X121295475Y-114464632D01*
X121457990Y-114221411D01*
X121569932Y-113951158D01*
X121627000Y-113664260D01*
X121627000Y-113650665D01*
X126073000Y-113650665D01*
X126073000Y-113933335D01*
X126128147Y-114210574D01*
X126236320Y-114471727D01*
X126393363Y-114706759D01*
X126593241Y-114906637D01*
X126828273Y-115063680D01*
X127089426Y-115171853D01*
X127366665Y-115227000D01*
X127649335Y-115227000D01*
X127926574Y-115171853D01*
X128187727Y-115063680D01*
X128422759Y-114906637D01*
X128622637Y-114706759D01*
X128779680Y-114471727D01*
X128887853Y-114210574D01*
X128943000Y-113933335D01*
X128943000Y-113650665D01*
X128887853Y-113373426D01*
X128779680Y-113112273D01*
X128622637Y-112877241D01*
X128422759Y-112677363D01*
X128187727Y-112520320D01*
X127926574Y-112412147D01*
X127649335Y-112357000D01*
X127366665Y-112357000D01*
X127089426Y-112412147D01*
X126828273Y-112520320D01*
X126593241Y-112677363D01*
X126393363Y-112877241D01*
X126236320Y-113112273D01*
X126128147Y-113373426D01*
X126073000Y-113650665D01*
X121627000Y-113650665D01*
X121627000Y-113371740D01*
X121569932Y-113084842D01*
X121457990Y-112814589D01*
X121295475Y-112571368D01*
X121088632Y-112364525D01*
X120914240Y-112248000D01*
X121088632Y-112131475D01*
X121295475Y-111924632D01*
X121457990Y-111681411D01*
X121569932Y-111411158D01*
X121627000Y-111124260D01*
X121627000Y-110831740D01*
X121581434Y-110602665D01*
X131407000Y-110602665D01*
X131407000Y-110885335D01*
X131462147Y-111162574D01*
X131570320Y-111423727D01*
X131727363Y-111658759D01*
X131927241Y-111858637D01*
X132162273Y-112015680D01*
X132423426Y-112123853D01*
X132700665Y-112179000D01*
X132983335Y-112179000D01*
X133260574Y-112123853D01*
X133521727Y-112015680D01*
X133756759Y-111858637D01*
X133956637Y-111658759D01*
X134113680Y-111423727D01*
X134221853Y-111162574D01*
X134277000Y-110885335D01*
X134277000Y-110602665D01*
X134221853Y-110325426D01*
X134113680Y-110064273D01*
X133956637Y-109829241D01*
X133756759Y-109629363D01*
X133521727Y-109472320D01*
X133260574Y-109364147D01*
X132983335Y-109309000D01*
X132700665Y-109309000D01*
X132423426Y-109364147D01*
X132162273Y-109472320D01*
X131927241Y-109629363D01*
X131727363Y-109829241D01*
X131570320Y-110064273D01*
X131462147Y-110325426D01*
X131407000Y-110602665D01*
X121581434Y-110602665D01*
X121569932Y-110544842D01*
X121457990Y-110274589D01*
X121295475Y-110031368D01*
X121088632Y-109824525D01*
X120914240Y-109708000D01*
X121088632Y-109591475D01*
X121295475Y-109384632D01*
X121457990Y-109141411D01*
X121569932Y-108871158D01*
X121627000Y-108584260D01*
X121627000Y-108291740D01*
X121569932Y-108004842D01*
X121457990Y-107734589D01*
X121295475Y-107491368D01*
X121088632Y-107284525D01*
X120914240Y-107168000D01*
X121088632Y-107051475D01*
X121295475Y-106844632D01*
X121457990Y-106601411D01*
X121569932Y-106331158D01*
X121627000Y-106044260D01*
X121627000Y-105751740D01*
X121569932Y-105464842D01*
X121457990Y-105194589D01*
X121295475Y-104951368D01*
X121088632Y-104744525D01*
X120914240Y-104628000D01*
X121088632Y-104511475D01*
X121093442Y-104506665D01*
X124295000Y-104506665D01*
X124295000Y-104789335D01*
X124350147Y-105066574D01*
X124458320Y-105327727D01*
X124615363Y-105562759D01*
X124815241Y-105762637D01*
X125050273Y-105919680D01*
X125311426Y-106027853D01*
X125588665Y-106083000D01*
X125871335Y-106083000D01*
X126148574Y-106027853D01*
X126409727Y-105919680D01*
X126644759Y-105762637D01*
X126844637Y-105562759D01*
X127001680Y-105327727D01*
X127109853Y-105066574D01*
X127165000Y-104789335D01*
X127165000Y-104506665D01*
X127109853Y-104229426D01*
X127001680Y-103968273D01*
X126844637Y-103733241D01*
X126644759Y-103533363D01*
X126409727Y-103376320D01*
X126148574Y-103268147D01*
X125871335Y-103213000D01*
X125588665Y-103213000D01*
X125311426Y-103268147D01*
X125050273Y-103376320D01*
X124815241Y-103533363D01*
X124615363Y-103733241D01*
X124458320Y-103968273D01*
X124350147Y-104229426D01*
X124295000Y-104506665D01*
X121093442Y-104506665D01*
X121295475Y-104304632D01*
X121457990Y-104061411D01*
X121569932Y-103791158D01*
X121627000Y-103504260D01*
X121627000Y-103211740D01*
X121569932Y-102924842D01*
X121457990Y-102654589D01*
X121295475Y-102411368D01*
X121088632Y-102204525D01*
X120914240Y-102088000D01*
X121088632Y-101971475D01*
X121295475Y-101764632D01*
X121457990Y-101521411D01*
X121569932Y-101251158D01*
X121627000Y-100964260D01*
X121627000Y-100671740D01*
X121581434Y-100442665D01*
X131407000Y-100442665D01*
X131407000Y-100725335D01*
X131462147Y-101002574D01*
X131570320Y-101263727D01*
X131727363Y-101498759D01*
X131927241Y-101698637D01*
X132162273Y-101855680D01*
X132423426Y-101963853D01*
X132700665Y-102019000D01*
X132983335Y-102019000D01*
X133260574Y-101963853D01*
X133521727Y-101855680D01*
X133756759Y-101698637D01*
X133956637Y-101498759D01*
X134113680Y-101263727D01*
X134221853Y-101002574D01*
X134277000Y-100725335D01*
X134277000Y-100442665D01*
X134221853Y-100165426D01*
X134113680Y-99904273D01*
X133956637Y-99669241D01*
X133756759Y-99469363D01*
X133521727Y-99312320D01*
X133260574Y-99204147D01*
X132983335Y-99149000D01*
X132700665Y-99149000D01*
X132423426Y-99204147D01*
X132162273Y-99312320D01*
X131927241Y-99469363D01*
X131727363Y-99669241D01*
X131570320Y-99904273D01*
X131462147Y-100165426D01*
X131407000Y-100442665D01*
X121581434Y-100442665D01*
X121569932Y-100384842D01*
X121457990Y-100114589D01*
X121295475Y-99871368D01*
X121088632Y-99664525D01*
X120914240Y-99548000D01*
X121088632Y-99431475D01*
X121295475Y-99224632D01*
X121457990Y-98981411D01*
X121569932Y-98711158D01*
X121627000Y-98424260D01*
X121627000Y-98131740D01*
X121569932Y-97844842D01*
X121457990Y-97574589D01*
X121295475Y-97331368D01*
X121088632Y-97124525D01*
X120914240Y-97008000D01*
X121088632Y-96891475D01*
X121295475Y-96684632D01*
X121457990Y-96441411D01*
X121569932Y-96171158D01*
X121627000Y-95884260D01*
X121627000Y-95591740D01*
X121569932Y-95304842D01*
X121457990Y-95034589D01*
X121295475Y-94791368D01*
X121088632Y-94584525D01*
X120914240Y-94468000D01*
X121088632Y-94351475D01*
X121093442Y-94346665D01*
X124295000Y-94346665D01*
X124295000Y-94629335D01*
X124350147Y-94906574D01*
X124458320Y-95167727D01*
X124615363Y-95402759D01*
X124815241Y-95602637D01*
X125050273Y-95759680D01*
X125311426Y-95867853D01*
X125588665Y-95923000D01*
X125871335Y-95923000D01*
X126148574Y-95867853D01*
X126409727Y-95759680D01*
X126644759Y-95602637D01*
X126844637Y-95402759D01*
X127001680Y-95167727D01*
X127109853Y-94906574D01*
X127165000Y-94629335D01*
X127165000Y-94346665D01*
X127109853Y-94069426D01*
X127001680Y-93808273D01*
X126844637Y-93573241D01*
X126644759Y-93373363D01*
X126409727Y-93216320D01*
X126148574Y-93108147D01*
X125871335Y-93053000D01*
X125588665Y-93053000D01*
X125311426Y-93108147D01*
X125050273Y-93216320D01*
X124815241Y-93373363D01*
X124615363Y-93573241D01*
X124458320Y-93808273D01*
X124350147Y-94069426D01*
X124295000Y-94346665D01*
X121093442Y-94346665D01*
X121295475Y-94144632D01*
X121457990Y-93901411D01*
X121569932Y-93631158D01*
X121627000Y-93344260D01*
X121627000Y-93051740D01*
X121569932Y-92764842D01*
X121457990Y-92494589D01*
X121295475Y-92251368D01*
X121088632Y-92044525D01*
X120914240Y-91928000D01*
X121088632Y-91811475D01*
X121295475Y-91604632D01*
X121457990Y-91361411D01*
X121569932Y-91091158D01*
X121627000Y-90804260D01*
X121627000Y-90511740D01*
X121569932Y-90224842D01*
X121457990Y-89954589D01*
X121295475Y-89711368D01*
X121088632Y-89504525D01*
X120914240Y-89388000D01*
X121088632Y-89271475D01*
X121295475Y-89064632D01*
X121457990Y-88821411D01*
X121569932Y-88551158D01*
X121627000Y-88264260D01*
X121627000Y-87971740D01*
X121569932Y-87684842D01*
X121457990Y-87414589D01*
X121295475Y-87171368D01*
X121088632Y-86964525D01*
X120914240Y-86848000D01*
X121088632Y-86731475D01*
X121295475Y-86524632D01*
X121457990Y-86281411D01*
X121569932Y-86011158D01*
X121582686Y-85947039D01*
X124084096Y-85947039D01*
X124124754Y-86081087D01*
X124244963Y-86335420D01*
X124412481Y-86561414D01*
X124620869Y-86750385D01*
X124862119Y-86895070D01*
X125126960Y-86989909D01*
X125349000Y-86868624D01*
X125349000Y-85725000D01*
X125603000Y-85725000D01*
X125603000Y-86868624D01*
X125825040Y-86989909D01*
X126089881Y-86895070D01*
X126331131Y-86750385D01*
X126539519Y-86561414D01*
X126707037Y-86335420D01*
X126827246Y-86081087D01*
X126867904Y-85947039D01*
X126745915Y-85725000D01*
X125603000Y-85725000D01*
X125349000Y-85725000D01*
X124206085Y-85725000D01*
X124084096Y-85947039D01*
X121582686Y-85947039D01*
X121627000Y-85724260D01*
X121627000Y-85431740D01*
X121569932Y-85144842D01*
X121457990Y-84874589D01*
X121295475Y-84631368D01*
X121088632Y-84424525D01*
X120914240Y-84308000D01*
X121088632Y-84191475D01*
X121295475Y-83984632D01*
X121457990Y-83741411D01*
X121569932Y-83471158D01*
X121627000Y-83184260D01*
X121627000Y-82891740D01*
X121569932Y-82604842D01*
X121457990Y-82334589D01*
X121295475Y-82091368D01*
X121088632Y-81884525D01*
X120914240Y-81768000D01*
X121088632Y-81651475D01*
X121295475Y-81444632D01*
X121457990Y-81201411D01*
X121569932Y-80931158D01*
X121627000Y-80644260D01*
X121627000Y-80351740D01*
X121569932Y-80064842D01*
X121457990Y-79794589D01*
X121295475Y-79551368D01*
X121088632Y-79344525D01*
X120914240Y-79228000D01*
X121088632Y-79111475D01*
X121295475Y-78904632D01*
X121457990Y-78661411D01*
X121569932Y-78391158D01*
X121627000Y-78104260D01*
X121627000Y-77811740D01*
X121569932Y-77524842D01*
X121457990Y-77254589D01*
X121295475Y-77011368D01*
X121088632Y-76804525D01*
X120914240Y-76688000D01*
X121088632Y-76571475D01*
X121295475Y-76364632D01*
X121457990Y-76121411D01*
X121569932Y-75851158D01*
X121627000Y-75564260D01*
X121627000Y-75271740D01*
X121569932Y-74984842D01*
X121457990Y-74714589D01*
X121295475Y-74471368D01*
X121088632Y-74264525D01*
X120914240Y-74148000D01*
X121088632Y-74031475D01*
X121295475Y-73824632D01*
X121457990Y-73581411D01*
X121569932Y-73311158D01*
X121627000Y-73024260D01*
X121627000Y-72731740D01*
X121569932Y-72444842D01*
X121457990Y-72174589D01*
X121295475Y-71931368D01*
X121088632Y-71724525D01*
X120914240Y-71608000D01*
X121088632Y-71491475D01*
X121295475Y-71284632D01*
X121457990Y-71041411D01*
X121569932Y-70771158D01*
X121627000Y-70484260D01*
X121627000Y-70191740D01*
X121569932Y-69904842D01*
X121457990Y-69634589D01*
X121295475Y-69391368D01*
X121088632Y-69184525D01*
X120914240Y-69068000D01*
X121088632Y-68951475D01*
X121295475Y-68744632D01*
X121457990Y-68501411D01*
X121569932Y-68231158D01*
X121627000Y-67944260D01*
X121627000Y-67651740D01*
X121569932Y-67364842D01*
X121457990Y-67094589D01*
X121406815Y-67018000D01*
X124037928Y-67018000D01*
X124037928Y-68618000D01*
X124050188Y-68742482D01*
X124086498Y-68862180D01*
X124145463Y-68972494D01*
X124224815Y-69069185D01*
X124321506Y-69148537D01*
X124431820Y-69207502D01*
X124551518Y-69243812D01*
X124559961Y-69244643D01*
X124361363Y-69443241D01*
X124204320Y-69678273D01*
X124096147Y-69939426D01*
X124041000Y-70216665D01*
X124041000Y-70499335D01*
X124096147Y-70776574D01*
X124204320Y-71037727D01*
X124361363Y-71272759D01*
X124561241Y-71472637D01*
X124793759Y-71628000D01*
X124561241Y-71783363D01*
X124361363Y-71983241D01*
X124204320Y-72218273D01*
X124096147Y-72479426D01*
X124041000Y-72756665D01*
X124041000Y-73039335D01*
X124096147Y-73316574D01*
X124204320Y-73577727D01*
X124361363Y-73812759D01*
X124561241Y-74012637D01*
X124793759Y-74168000D01*
X124561241Y-74323363D01*
X124361363Y-74523241D01*
X124204320Y-74758273D01*
X124096147Y-75019426D01*
X124041000Y-75296665D01*
X124041000Y-75579335D01*
X124096147Y-75856574D01*
X124204320Y-76117727D01*
X124361363Y-76352759D01*
X124561241Y-76552637D01*
X124793759Y-76708000D01*
X124561241Y-76863363D01*
X124361363Y-77063241D01*
X124204320Y-77298273D01*
X124096147Y-77559426D01*
X124041000Y-77836665D01*
X124041000Y-78119335D01*
X124096147Y-78396574D01*
X124204320Y-78657727D01*
X124361363Y-78892759D01*
X124561241Y-79092637D01*
X124793759Y-79248000D01*
X124561241Y-79403363D01*
X124361363Y-79603241D01*
X124204320Y-79838273D01*
X124096147Y-80099426D01*
X124041000Y-80376665D01*
X124041000Y-80659335D01*
X124096147Y-80936574D01*
X124204320Y-81197727D01*
X124361363Y-81432759D01*
X124561241Y-81632637D01*
X124793759Y-81788000D01*
X124561241Y-81943363D01*
X124361363Y-82143241D01*
X124204320Y-82378273D01*
X124096147Y-82639426D01*
X124041000Y-82916665D01*
X124041000Y-83199335D01*
X124096147Y-83476574D01*
X124204320Y-83737727D01*
X124361363Y-83972759D01*
X124561241Y-84172637D01*
X124796273Y-84329680D01*
X124806865Y-84334067D01*
X124620869Y-84445615D01*
X124412481Y-84634586D01*
X124244963Y-84860580D01*
X124124754Y-85114913D01*
X124084096Y-85248961D01*
X124206085Y-85471000D01*
X125349000Y-85471000D01*
X125349000Y-85451000D01*
X125603000Y-85451000D01*
X125603000Y-85471000D01*
X126745915Y-85471000D01*
X126867904Y-85248961D01*
X126827246Y-85114913D01*
X126707037Y-84860580D01*
X126539519Y-84634586D01*
X126331131Y-84445615D01*
X126145135Y-84334067D01*
X126155727Y-84329680D01*
X126390759Y-84172637D01*
X126590637Y-83972759D01*
X126747680Y-83737727D01*
X126855853Y-83476574D01*
X126911000Y-83199335D01*
X126911000Y-82916665D01*
X126855853Y-82639426D01*
X126747680Y-82378273D01*
X126590637Y-82143241D01*
X126390759Y-81943363D01*
X126158241Y-81788000D01*
X126390759Y-81632637D01*
X126590637Y-81432759D01*
X126747680Y-81197727D01*
X126855853Y-80936574D01*
X126911000Y-80659335D01*
X126911000Y-80376665D01*
X126855853Y-80099426D01*
X126747680Y-79838273D01*
X126590637Y-79603241D01*
X126390759Y-79403363D01*
X126158241Y-79248000D01*
X126390759Y-79092637D01*
X126590637Y-78892759D01*
X126747680Y-78657727D01*
X126855853Y-78396574D01*
X126911000Y-78119335D01*
X126911000Y-77836665D01*
X126855853Y-77559426D01*
X126747680Y-77298273D01*
X126590637Y-77063241D01*
X126390759Y-76863363D01*
X126158241Y-76708000D01*
X126390759Y-76552637D01*
X126590637Y-76352759D01*
X126747680Y-76117727D01*
X126855853Y-75856574D01*
X126911000Y-75579335D01*
X126911000Y-75296665D01*
X126855853Y-75019426D01*
X126747680Y-74758273D01*
X126590637Y-74523241D01*
X126390759Y-74323363D01*
X126158241Y-74168000D01*
X126390759Y-74012637D01*
X126590637Y-73812759D01*
X126747680Y-73577727D01*
X126855853Y-73316574D01*
X126911000Y-73039335D01*
X126911000Y-72756665D01*
X126855853Y-72479426D01*
X126747680Y-72218273D01*
X126590637Y-71983241D01*
X126390759Y-71783363D01*
X126158241Y-71628000D01*
X126390759Y-71472637D01*
X126590637Y-71272759D01*
X126747680Y-71037727D01*
X126855853Y-70776574D01*
X126911000Y-70499335D01*
X126911000Y-70216665D01*
X126855853Y-69939426D01*
X126747680Y-69678273D01*
X126590637Y-69443241D01*
X126392039Y-69244643D01*
X126400482Y-69243812D01*
X126520180Y-69207502D01*
X126630494Y-69148537D01*
X126727185Y-69069185D01*
X126806537Y-68972494D01*
X126865502Y-68862180D01*
X126901812Y-68742482D01*
X126914072Y-68618000D01*
X126914072Y-67676665D01*
X131661000Y-67676665D01*
X131661000Y-67959335D01*
X131716147Y-68236574D01*
X131824320Y-68497727D01*
X131981363Y-68732759D01*
X132181241Y-68932637D01*
X132413759Y-69088000D01*
X132181241Y-69243363D01*
X131981363Y-69443241D01*
X131824320Y-69678273D01*
X131716147Y-69939426D01*
X131661000Y-70216665D01*
X131661000Y-70499335D01*
X131716147Y-70776574D01*
X131824320Y-71037727D01*
X131981363Y-71272759D01*
X132181241Y-71472637D01*
X132413759Y-71628000D01*
X132181241Y-71783363D01*
X131981363Y-71983241D01*
X131824320Y-72218273D01*
X131716147Y-72479426D01*
X131661000Y-72756665D01*
X131661000Y-73039335D01*
X131716147Y-73316574D01*
X131824320Y-73577727D01*
X131981363Y-73812759D01*
X132181241Y-74012637D01*
X132413759Y-74168000D01*
X132181241Y-74323363D01*
X131981363Y-74523241D01*
X131824320Y-74758273D01*
X131716147Y-75019426D01*
X131661000Y-75296665D01*
X131661000Y-75579335D01*
X131716147Y-75856574D01*
X131824320Y-76117727D01*
X131981363Y-76352759D01*
X132181241Y-76552637D01*
X132413759Y-76708000D01*
X132181241Y-76863363D01*
X131981363Y-77063241D01*
X131824320Y-77298273D01*
X131716147Y-77559426D01*
X131661000Y-77836665D01*
X131661000Y-78119335D01*
X131716147Y-78396574D01*
X131824320Y-78657727D01*
X131981363Y-78892759D01*
X132181241Y-79092637D01*
X132413759Y-79248000D01*
X132181241Y-79403363D01*
X131981363Y-79603241D01*
X131824320Y-79838273D01*
X131716147Y-80099426D01*
X131661000Y-80376665D01*
X131661000Y-80659335D01*
X131716147Y-80936574D01*
X131824320Y-81197727D01*
X131981363Y-81432759D01*
X132181241Y-81632637D01*
X132413759Y-81788000D01*
X132181241Y-81943363D01*
X131981363Y-82143241D01*
X131824320Y-82378273D01*
X131716147Y-82639426D01*
X131661000Y-82916665D01*
X131661000Y-83199335D01*
X131716147Y-83476574D01*
X131824320Y-83737727D01*
X131981363Y-83972759D01*
X132181241Y-84172637D01*
X132413759Y-84328000D01*
X132181241Y-84483363D01*
X131981363Y-84683241D01*
X131824320Y-84918273D01*
X131716147Y-85179426D01*
X131661000Y-85456665D01*
X131661000Y-85739335D01*
X131716147Y-86016574D01*
X131824320Y-86277727D01*
X131981363Y-86512759D01*
X132181241Y-86712637D01*
X132416273Y-86869680D01*
X132677426Y-86977853D01*
X132954665Y-87033000D01*
X133237335Y-87033000D01*
X133514574Y-86977853D01*
X133775727Y-86869680D01*
X134010759Y-86712637D01*
X134210637Y-86512759D01*
X134367680Y-86277727D01*
X134475853Y-86016574D01*
X134531000Y-85739335D01*
X134531000Y-85456665D01*
X134475853Y-85179426D01*
X134367680Y-84918273D01*
X134210637Y-84683241D01*
X134010759Y-84483363D01*
X133778241Y-84328000D01*
X134010759Y-84172637D01*
X134210637Y-83972759D01*
X134367680Y-83737727D01*
X134475853Y-83476574D01*
X134531000Y-83199335D01*
X134531000Y-82916665D01*
X134475853Y-82639426D01*
X134367680Y-82378273D01*
X134210637Y-82143241D01*
X134010759Y-81943363D01*
X133778241Y-81788000D01*
X134010759Y-81632637D01*
X134210637Y-81432759D01*
X134367680Y-81197727D01*
X134475853Y-80936574D01*
X134531000Y-80659335D01*
X134531000Y-80376665D01*
X134475853Y-80099426D01*
X134367680Y-79838273D01*
X134210637Y-79603241D01*
X134010759Y-79403363D01*
X133778241Y-79248000D01*
X134010759Y-79092637D01*
X134210637Y-78892759D01*
X134367680Y-78657727D01*
X134475853Y-78396574D01*
X134531000Y-78119335D01*
X134531000Y-77836665D01*
X134475853Y-77559426D01*
X134367680Y-77298273D01*
X134210637Y-77063241D01*
X134010759Y-76863363D01*
X133778241Y-76708000D01*
X134010759Y-76552637D01*
X134210637Y-76352759D01*
X134367680Y-76117727D01*
X134475853Y-75856574D01*
X134531000Y-75579335D01*
X134531000Y-75296665D01*
X134475853Y-75019426D01*
X134367680Y-74758273D01*
X134210637Y-74523241D01*
X134010759Y-74323363D01*
X133778241Y-74168000D01*
X134010759Y-74012637D01*
X134210637Y-73812759D01*
X134367680Y-73577727D01*
X134475853Y-73316574D01*
X134531000Y-73039335D01*
X134531000Y-72756665D01*
X134475853Y-72479426D01*
X134367680Y-72218273D01*
X134210637Y-71983241D01*
X134010759Y-71783363D01*
X133778241Y-71628000D01*
X134010759Y-71472637D01*
X134210637Y-71272759D01*
X134367680Y-71037727D01*
X134475853Y-70776574D01*
X134531000Y-70499335D01*
X134531000Y-70216665D01*
X134475853Y-69939426D01*
X134367680Y-69678273D01*
X134210637Y-69443241D01*
X134010759Y-69243363D01*
X133778241Y-69088000D01*
X134010759Y-68932637D01*
X134210637Y-68732759D01*
X134367680Y-68497727D01*
X134475853Y-68236574D01*
X134531000Y-67959335D01*
X134531000Y-67676665D01*
X134475853Y-67399426D01*
X134367680Y-67138273D01*
X134210637Y-66903241D01*
X134010759Y-66703363D01*
X133775727Y-66546320D01*
X133514574Y-66438147D01*
X133237335Y-66383000D01*
X132954665Y-66383000D01*
X132677426Y-66438147D01*
X132416273Y-66546320D01*
X132181241Y-66703363D01*
X131981363Y-66903241D01*
X131824320Y-67138273D01*
X131716147Y-67399426D01*
X131661000Y-67676665D01*
X126914072Y-67676665D01*
X126914072Y-67018000D01*
X126901812Y-66893518D01*
X126865502Y-66773820D01*
X126806537Y-66663506D01*
X126727185Y-66566815D01*
X126630494Y-66487463D01*
X126520180Y-66428498D01*
X126400482Y-66392188D01*
X126276000Y-66379928D01*
X124676000Y-66379928D01*
X124551518Y-66392188D01*
X124431820Y-66428498D01*
X124321506Y-66487463D01*
X124224815Y-66566815D01*
X124145463Y-66663506D01*
X124086498Y-66773820D01*
X124050188Y-66893518D01*
X124037928Y-67018000D01*
X121406815Y-67018000D01*
X121295475Y-66851368D01*
X121088632Y-66644525D01*
X120845411Y-66482010D01*
X120575158Y-66370068D01*
X120288260Y-66313000D01*
X119995740Y-66313000D01*
X119708842Y-66370068D01*
X119438589Y-66482010D01*
X119195368Y-66644525D01*
X118988525Y-66851368D01*
X118826010Y-67094589D01*
X118714068Y-67364842D01*
X118657000Y-67651740D01*
X118657000Y-67944260D01*
X118714068Y-68231158D01*
X118826010Y-68501411D01*
X118988525Y-68744632D01*
X119195368Y-68951475D01*
X119369760Y-69068000D01*
X119195368Y-69184525D01*
X118988525Y-69391368D01*
X118826010Y-69634589D01*
X118714068Y-69904842D01*
X118657000Y-70191740D01*
X118657000Y-70484260D01*
X118714068Y-70771158D01*
X118826010Y-71041411D01*
X118988525Y-71284632D01*
X119195368Y-71491475D01*
X119369760Y-71608000D01*
X119195368Y-71724525D01*
X118988525Y-71931368D01*
X118826010Y-72174589D01*
X118714068Y-72444842D01*
X118657000Y-72731740D01*
X118657000Y-73024260D01*
X118714068Y-73311158D01*
X118826010Y-73581411D01*
X118988525Y-73824632D01*
X119195368Y-74031475D01*
X119369760Y-74148000D01*
X119195368Y-74264525D01*
X118988525Y-74471368D01*
X118826010Y-74714589D01*
X118714068Y-74984842D01*
X118657000Y-75271740D01*
X118657000Y-75564260D01*
X118714068Y-75851158D01*
X118826010Y-76121411D01*
X118988525Y-76364632D01*
X119195368Y-76571475D01*
X119369760Y-76688000D01*
X119195368Y-76804525D01*
X118988525Y-77011368D01*
X118826010Y-77254589D01*
X118714068Y-77524842D01*
X118657000Y-77811740D01*
X118657000Y-78104260D01*
X118714068Y-78391158D01*
X118826010Y-78661411D01*
X118988525Y-78904632D01*
X119195368Y-79111475D01*
X119369760Y-79228000D01*
X119195368Y-79344525D01*
X118988525Y-79551368D01*
X118826010Y-79794589D01*
X118714068Y-80064842D01*
X118657000Y-80351740D01*
X118657000Y-80644260D01*
X118714068Y-80931158D01*
X118826010Y-81201411D01*
X118988525Y-81444632D01*
X119195368Y-81651475D01*
X119369760Y-81768000D01*
X119195368Y-81884525D01*
X118988525Y-82091368D01*
X118826010Y-82334589D01*
X118714068Y-82604842D01*
X118657000Y-82891740D01*
X118657000Y-83184260D01*
X118714068Y-83471158D01*
X118826010Y-83741411D01*
X118988525Y-83984632D01*
X119195368Y-84191475D01*
X119369760Y-84308000D01*
X119195368Y-84424525D01*
X118988525Y-84631368D01*
X118826010Y-84874589D01*
X118714068Y-85144842D01*
X118657000Y-85431740D01*
X118657000Y-85724260D01*
X118714068Y-86011158D01*
X118826010Y-86281411D01*
X118988525Y-86524632D01*
X119195368Y-86731475D01*
X119369760Y-86848000D01*
X119195368Y-86964525D01*
X118988525Y-87171368D01*
X118826010Y-87414589D01*
X118714068Y-87684842D01*
X118657000Y-87971740D01*
X118657000Y-88264260D01*
X118714068Y-88551158D01*
X118826010Y-88821411D01*
X118988525Y-89064632D01*
X119195368Y-89271475D01*
X119369760Y-89388000D01*
X119195368Y-89504525D01*
X118988525Y-89711368D01*
X118826010Y-89954589D01*
X118714068Y-90224842D01*
X118657000Y-90511740D01*
X118657000Y-90804260D01*
X118714068Y-91091158D01*
X118826010Y-91361411D01*
X118988525Y-91604632D01*
X119195368Y-91811475D01*
X119369760Y-91928000D01*
X119195368Y-92044525D01*
X118988525Y-92251368D01*
X118826010Y-92494589D01*
X118714068Y-92764842D01*
X118657000Y-93051740D01*
X118657000Y-93344260D01*
X118714068Y-93631158D01*
X118826010Y-93901411D01*
X118988525Y-94144632D01*
X119195368Y-94351475D01*
X119369760Y-94468000D01*
X119195368Y-94584525D01*
X118988525Y-94791368D01*
X118826010Y-95034589D01*
X118714068Y-95304842D01*
X118657000Y-95591740D01*
X118657000Y-95884260D01*
X118714068Y-96171158D01*
X118826010Y-96441411D01*
X118988525Y-96684632D01*
X119195368Y-96891475D01*
X119369760Y-97008000D01*
X119195368Y-97124525D01*
X118988525Y-97331368D01*
X118826010Y-97574589D01*
X118714068Y-97844842D01*
X118657000Y-98131740D01*
X118657000Y-98424260D01*
X118714068Y-98711158D01*
X118826010Y-98981411D01*
X118988525Y-99224632D01*
X119195368Y-99431475D01*
X119369760Y-99548000D01*
X119195368Y-99664525D01*
X118988525Y-99871368D01*
X118826010Y-100114589D01*
X118714068Y-100384842D01*
X118657000Y-100671740D01*
X118657000Y-100964260D01*
X118714068Y-101251158D01*
X118826010Y-101521411D01*
X118988525Y-101764632D01*
X119195368Y-101971475D01*
X119369760Y-102088000D01*
X119195368Y-102204525D01*
X118988525Y-102411368D01*
X118826010Y-102654589D01*
X118714068Y-102924842D01*
X118657000Y-103211740D01*
X118657000Y-103504260D01*
X118714068Y-103791158D01*
X118826010Y-104061411D01*
X118988525Y-104304632D01*
X119195368Y-104511475D01*
X119369760Y-104628000D01*
X119195368Y-104744525D01*
X118988525Y-104951368D01*
X118826010Y-105194589D01*
X118714068Y-105464842D01*
X118657000Y-105751740D01*
X118657000Y-106044260D01*
X118714068Y-106331158D01*
X118826010Y-106601411D01*
X118988525Y-106844632D01*
X119195368Y-107051475D01*
X119369760Y-107168000D01*
X119195368Y-107284525D01*
X118988525Y-107491368D01*
X118826010Y-107734589D01*
X118714068Y-108004842D01*
X118657000Y-108291740D01*
X118657000Y-108584260D01*
X118714068Y-108871158D01*
X118826010Y-109141411D01*
X118988525Y-109384632D01*
X119195368Y-109591475D01*
X119369760Y-109708000D01*
X119195368Y-109824525D01*
X118988525Y-110031368D01*
X118826010Y-110274589D01*
X118714068Y-110544842D01*
X118657000Y-110831740D01*
X118657000Y-111124260D01*
X118714068Y-111411158D01*
X118826010Y-111681411D01*
X118988525Y-111924632D01*
X119195368Y-112131475D01*
X119369760Y-112248000D01*
X119195368Y-112364525D01*
X118988525Y-112571368D01*
X118826010Y-112814589D01*
X118714068Y-113084842D01*
X118657000Y-113371740D01*
X118657000Y-113664260D01*
X118714068Y-113951158D01*
X118826010Y-114221411D01*
X118988525Y-114464632D01*
X119195368Y-114671475D01*
X119369760Y-114788000D01*
X119195368Y-114904525D01*
X118988525Y-115111368D01*
X118826010Y-115354589D01*
X118714068Y-115624842D01*
X118657000Y-115911740D01*
X118657000Y-116204260D01*
X118714068Y-116491158D01*
X118826010Y-116761411D01*
X118988525Y-117004632D01*
X119195368Y-117211475D01*
X119369760Y-117328000D01*
X119195368Y-117444525D01*
X118988525Y-117651368D01*
X118826010Y-117894589D01*
X118714068Y-118164842D01*
X118657000Y-118451740D01*
X118657000Y-118744260D01*
X118714068Y-119031158D01*
X118826010Y-119301411D01*
X118988525Y-119544632D01*
X119195368Y-119751475D01*
X119369760Y-119868000D01*
X119195368Y-119984525D01*
X118988525Y-120191368D01*
X118826010Y-120434589D01*
X118714068Y-120704842D01*
X118657000Y-120991740D01*
X118657000Y-121284260D01*
X118714068Y-121571158D01*
X118826010Y-121841411D01*
X118988525Y-122084632D01*
X119195368Y-122291475D01*
X119369760Y-122408000D01*
X119195368Y-122524525D01*
X118988525Y-122731368D01*
X118826010Y-122974589D01*
X118714068Y-123244842D01*
X118657000Y-123531740D01*
X118657000Y-123824260D01*
X118714068Y-124111158D01*
X118826010Y-124381411D01*
X118988525Y-124624632D01*
X119120380Y-124756487D01*
X119047820Y-124778498D01*
X118937506Y-124837463D01*
X118840815Y-124916815D01*
X118761463Y-125013506D01*
X118702498Y-125123820D01*
X118666188Y-125243518D01*
X118653928Y-125368000D01*
X106106679Y-125368000D01*
X106055475Y-125291368D01*
X105848632Y-125084525D01*
X105666466Y-124962805D01*
X105783355Y-124893178D01*
X105999588Y-124698269D01*
X106173641Y-124464920D01*
X106298825Y-124202099D01*
X106343476Y-124054890D01*
X106222155Y-123825000D01*
X105029000Y-123825000D01*
X105029000Y-123845000D01*
X104775000Y-123845000D01*
X104775000Y-123825000D01*
X103581845Y-123825000D01*
X103460524Y-124054890D01*
X103505175Y-124202099D01*
X103630359Y-124464920D01*
X103804412Y-124698269D01*
X104020645Y-124893178D01*
X104137534Y-124962805D01*
X103955368Y-125084525D01*
X103748525Y-125291368D01*
X103586010Y-125534589D01*
X103474068Y-125804842D01*
X103417000Y-126091740D01*
X100660000Y-126091740D01*
X100660000Y-66968000D01*
X103413928Y-66968000D01*
X103413928Y-68668000D01*
X103426188Y-68792482D01*
X103462498Y-68912180D01*
X103521463Y-69022494D01*
X103600815Y-69119185D01*
X103697506Y-69198537D01*
X103807820Y-69257502D01*
X103880380Y-69279513D01*
X103748525Y-69411368D01*
X103586010Y-69654589D01*
X103474068Y-69924842D01*
X103417000Y-70211740D01*
X103417000Y-70504260D01*
X103474068Y-70791158D01*
X103586010Y-71061411D01*
X103748525Y-71304632D01*
X103955368Y-71511475D01*
X104129760Y-71628000D01*
X103955368Y-71744525D01*
X103748525Y-71951368D01*
X103586010Y-72194589D01*
X103474068Y-72464842D01*
X103417000Y-72751740D01*
X103417000Y-73044260D01*
X103474068Y-73331158D01*
X103586010Y-73601411D01*
X103748525Y-73844632D01*
X103955368Y-74051475D01*
X104129760Y-74168000D01*
X103955368Y-74284525D01*
X103748525Y-74491368D01*
X103586010Y-74734589D01*
X103474068Y-75004842D01*
X103417000Y-75291740D01*
X103417000Y-75584260D01*
X103474068Y-75871158D01*
X103586010Y-76141411D01*
X103748525Y-76384632D01*
X103955368Y-76591475D01*
X104129760Y-76708000D01*
X103955368Y-76824525D01*
X103748525Y-77031368D01*
X103586010Y-77274589D01*
X103474068Y-77544842D01*
X103417000Y-77831740D01*
X103417000Y-78124260D01*
X103474068Y-78411158D01*
X103586010Y-78681411D01*
X103748525Y-78924632D01*
X103955368Y-79131475D01*
X104129760Y-79248000D01*
X103955368Y-79364525D01*
X103748525Y-79571368D01*
X103586010Y-79814589D01*
X103474068Y-80084842D01*
X103417000Y-80371740D01*
X103417000Y-80664260D01*
X103474068Y-80951158D01*
X103586010Y-81221411D01*
X103748525Y-81464632D01*
X103955368Y-81671475D01*
X104129760Y-81788000D01*
X103955368Y-81904525D01*
X103748525Y-82111368D01*
X103586010Y-82354589D01*
X103474068Y-82624842D01*
X103417000Y-82911740D01*
X103417000Y-83204260D01*
X103474068Y-83491158D01*
X103586010Y-83761411D01*
X103748525Y-84004632D01*
X103955368Y-84211475D01*
X104129760Y-84328000D01*
X103955368Y-84444525D01*
X103748525Y-84651368D01*
X103586010Y-84894589D01*
X103474068Y-85164842D01*
X103417000Y-85451740D01*
X103417000Y-85744260D01*
X103474068Y-86031158D01*
X103586010Y-86301411D01*
X103748525Y-86544632D01*
X103955368Y-86751475D01*
X104129760Y-86868000D01*
X103955368Y-86984525D01*
X103748525Y-87191368D01*
X103586010Y-87434589D01*
X103474068Y-87704842D01*
X103417000Y-87991740D01*
X103417000Y-88284260D01*
X103474068Y-88571158D01*
X103586010Y-88841411D01*
X103748525Y-89084632D01*
X103955368Y-89291475D01*
X104129760Y-89408000D01*
X103955368Y-89524525D01*
X103748525Y-89731368D01*
X103586010Y-89974589D01*
X103474068Y-90244842D01*
X103417000Y-90531740D01*
X103417000Y-90824260D01*
X103474068Y-91111158D01*
X103586010Y-91381411D01*
X103748525Y-91624632D01*
X103955368Y-91831475D01*
X104129760Y-91948000D01*
X103955368Y-92064525D01*
X103748525Y-92271368D01*
X103586010Y-92514589D01*
X103474068Y-92784842D01*
X103417000Y-93071740D01*
X103417000Y-93364260D01*
X103474068Y-93651158D01*
X103586010Y-93921411D01*
X103748525Y-94164632D01*
X103955368Y-94371475D01*
X104129760Y-94488000D01*
X103955368Y-94604525D01*
X103748525Y-94811368D01*
X103586010Y-95054589D01*
X103474068Y-95324842D01*
X103417000Y-95611740D01*
X103417000Y-95904260D01*
X103474068Y-96191158D01*
X103586010Y-96461411D01*
X103748525Y-96704632D01*
X103955368Y-96911475D01*
X104129760Y-97028000D01*
X103955368Y-97144525D01*
X103748525Y-97351368D01*
X103586010Y-97594589D01*
X103474068Y-97864842D01*
X103417000Y-98151740D01*
X103417000Y-98444260D01*
X103474068Y-98731158D01*
X103586010Y-99001411D01*
X103748525Y-99244632D01*
X103955368Y-99451475D01*
X104129760Y-99568000D01*
X103955368Y-99684525D01*
X103748525Y-99891368D01*
X103586010Y-100134589D01*
X103474068Y-100404842D01*
X103417000Y-100691740D01*
X103417000Y-100984260D01*
X103474068Y-101271158D01*
X103586010Y-101541411D01*
X103748525Y-101784632D01*
X103955368Y-101991475D01*
X104129760Y-102108000D01*
X103955368Y-102224525D01*
X103748525Y-102431368D01*
X103586010Y-102674589D01*
X103474068Y-102944842D01*
X103417000Y-103231740D01*
X103417000Y-103524260D01*
X103474068Y-103811158D01*
X103586010Y-104081411D01*
X103748525Y-104324632D01*
X103955368Y-104531475D01*
X104129760Y-104648000D01*
X103955368Y-104764525D01*
X103748525Y-104971368D01*
X103586010Y-105214589D01*
X103474068Y-105484842D01*
X103417000Y-105771740D01*
X103417000Y-106064260D01*
X103474068Y-106351158D01*
X103586010Y-106621411D01*
X103748525Y-106864632D01*
X103955368Y-107071475D01*
X104129760Y-107188000D01*
X103955368Y-107304525D01*
X103748525Y-107511368D01*
X103586010Y-107754589D01*
X103474068Y-108024842D01*
X103417000Y-108311740D01*
X103417000Y-108604260D01*
X103474068Y-108891158D01*
X103586010Y-109161411D01*
X103748525Y-109404632D01*
X103955368Y-109611475D01*
X104129760Y-109728000D01*
X103955368Y-109844525D01*
X103748525Y-110051368D01*
X103586010Y-110294589D01*
X103474068Y-110564842D01*
X103417000Y-110851740D01*
X103417000Y-111144260D01*
X103474068Y-111431158D01*
X103586010Y-111701411D01*
X103748525Y-111944632D01*
X103955368Y-112151475D01*
X104129760Y-112268000D01*
X103955368Y-112384525D01*
X103748525Y-112591368D01*
X103586010Y-112834589D01*
X103474068Y-113104842D01*
X103417000Y-113391740D01*
X103417000Y-113684260D01*
X103474068Y-113971158D01*
X103586010Y-114241411D01*
X103748525Y-114484632D01*
X103955368Y-114691475D01*
X104129760Y-114808000D01*
X103955368Y-114924525D01*
X103748525Y-115131368D01*
X103586010Y-115374589D01*
X103474068Y-115644842D01*
X103417000Y-115931740D01*
X103417000Y-116224260D01*
X103474068Y-116511158D01*
X103586010Y-116781411D01*
X103748525Y-117024632D01*
X103955368Y-117231475D01*
X104129760Y-117348000D01*
X103955368Y-117464525D01*
X103748525Y-117671368D01*
X103586010Y-117914589D01*
X103474068Y-118184842D01*
X103417000Y-118471740D01*
X103417000Y-118764260D01*
X103474068Y-119051158D01*
X103586010Y-119321411D01*
X103748525Y-119564632D01*
X103955368Y-119771475D01*
X104129760Y-119888000D01*
X103955368Y-120004525D01*
X103748525Y-120211368D01*
X103586010Y-120454589D01*
X103474068Y-120724842D01*
X103417000Y-121011740D01*
X103417000Y-121304260D01*
X103474068Y-121591158D01*
X103586010Y-121861411D01*
X103748525Y-122104632D01*
X103955368Y-122311475D01*
X104137534Y-122433195D01*
X104020645Y-122502822D01*
X103804412Y-122697731D01*
X103630359Y-122931080D01*
X103505175Y-123193901D01*
X103460524Y-123341110D01*
X103581845Y-123571000D01*
X104775000Y-123571000D01*
X104775000Y-123551000D01*
X105029000Y-123551000D01*
X105029000Y-123571000D01*
X106222155Y-123571000D01*
X106343476Y-123341110D01*
X106298825Y-123193901D01*
X106173641Y-122931080D01*
X105999588Y-122697731D01*
X105783355Y-122502822D01*
X105666466Y-122433195D01*
X105848632Y-122311475D01*
X106055475Y-122104632D01*
X106217990Y-121861411D01*
X106329932Y-121591158D01*
X106387000Y-121304260D01*
X106387000Y-121011740D01*
X106329932Y-120724842D01*
X106217990Y-120454589D01*
X106055475Y-120211368D01*
X105848632Y-120004525D01*
X105674240Y-119888000D01*
X105848632Y-119771475D01*
X106055475Y-119564632D01*
X106217990Y-119321411D01*
X106329932Y-119051158D01*
X106387000Y-118764260D01*
X106387000Y-118471740D01*
X106329932Y-118184842D01*
X106217990Y-117914589D01*
X106055475Y-117671368D01*
X105848632Y-117464525D01*
X105674240Y-117348000D01*
X105848632Y-117231475D01*
X106055475Y-117024632D01*
X106065251Y-117010000D01*
X110783928Y-117010000D01*
X110783928Y-119210000D01*
X110796188Y-119334482D01*
X110832498Y-119454180D01*
X110891463Y-119564494D01*
X110970815Y-119661185D01*
X111067506Y-119740537D01*
X111177820Y-119799502D01*
X111297518Y-119835812D01*
X111422000Y-119848072D01*
X113622000Y-119848072D01*
X113746482Y-119835812D01*
X113866180Y-119799502D01*
X113976494Y-119740537D01*
X114073185Y-119661185D01*
X114152537Y-119564494D01*
X114211502Y-119454180D01*
X114247812Y-119334482D01*
X114260072Y-119210000D01*
X114260072Y-117010000D01*
X114247812Y-116885518D01*
X114211502Y-116765820D01*
X114152537Y-116655506D01*
X114073185Y-116558815D01*
X113976494Y-116479463D01*
X113866180Y-116420498D01*
X113746482Y-116384188D01*
X113622000Y-116371928D01*
X111422000Y-116371928D01*
X111297518Y-116384188D01*
X111177820Y-116420498D01*
X111067506Y-116479463D01*
X110970815Y-116558815D01*
X110891463Y-116655506D01*
X110832498Y-116765820D01*
X110796188Y-116885518D01*
X110783928Y-117010000D01*
X106065251Y-117010000D01*
X106217990Y-116781411D01*
X106329932Y-116511158D01*
X106387000Y-116224260D01*
X106387000Y-115931740D01*
X106329932Y-115644842D01*
X106217990Y-115374589D01*
X106055475Y-115131368D01*
X105848632Y-114924525D01*
X105674240Y-114808000D01*
X105848632Y-114691475D01*
X106055475Y-114484632D01*
X106217990Y-114241411D01*
X106329932Y-113971158D01*
X106387000Y-113684260D01*
X106387000Y-113391740D01*
X106329932Y-113104842D01*
X106217990Y-112834589D01*
X106055475Y-112591368D01*
X105848632Y-112384525D01*
X105674240Y-112268000D01*
X105848632Y-112151475D01*
X106055475Y-111944632D01*
X106217990Y-111701411D01*
X106329932Y-111431158D01*
X106387000Y-111144260D01*
X106387000Y-110851740D01*
X106329932Y-110564842D01*
X106217990Y-110294589D01*
X106055475Y-110051368D01*
X105848632Y-109844525D01*
X105674240Y-109728000D01*
X105848632Y-109611475D01*
X106055475Y-109404632D01*
X106217990Y-109161411D01*
X106329932Y-108891158D01*
X106387000Y-108604260D01*
X106387000Y-108311740D01*
X106329932Y-108024842D01*
X106217990Y-107754589D01*
X106055475Y-107511368D01*
X105848632Y-107304525D01*
X105674240Y-107188000D01*
X105848632Y-107071475D01*
X106055475Y-106864632D01*
X106217990Y-106621411D01*
X106329932Y-106351158D01*
X106387000Y-106064260D01*
X106387000Y-105771740D01*
X106329932Y-105484842D01*
X106217990Y-105214589D01*
X106055475Y-104971368D01*
X105848632Y-104764525D01*
X105674240Y-104648000D01*
X105848632Y-104531475D01*
X106055475Y-104324632D01*
X106217990Y-104081411D01*
X106329932Y-103811158D01*
X106387000Y-103524260D01*
X106387000Y-103231740D01*
X106329932Y-102944842D01*
X106217990Y-102674589D01*
X106055475Y-102431368D01*
X105848632Y-102224525D01*
X105674240Y-102108000D01*
X105848632Y-101991475D01*
X106055475Y-101784632D01*
X106217990Y-101541411D01*
X106329932Y-101271158D01*
X106387000Y-100984260D01*
X106387000Y-100691740D01*
X106329932Y-100404842D01*
X106217990Y-100134589D01*
X106055475Y-99891368D01*
X105848632Y-99684525D01*
X105674240Y-99568000D01*
X105848632Y-99451475D01*
X106055475Y-99244632D01*
X106217990Y-99001411D01*
X106329932Y-98731158D01*
X106387000Y-98444260D01*
X106387000Y-98151740D01*
X106329932Y-97864842D01*
X106217990Y-97594589D01*
X106055475Y-97351368D01*
X105848632Y-97144525D01*
X105674240Y-97028000D01*
X105848632Y-96911475D01*
X106055475Y-96704632D01*
X106217990Y-96461411D01*
X106329932Y-96191158D01*
X106387000Y-95904260D01*
X106387000Y-95611740D01*
X106329932Y-95324842D01*
X106217990Y-95054589D01*
X106055475Y-94811368D01*
X105848632Y-94604525D01*
X105674240Y-94488000D01*
X105848632Y-94371475D01*
X106055475Y-94164632D01*
X106217990Y-93921411D01*
X106329932Y-93651158D01*
X106387000Y-93364260D01*
X106387000Y-93071740D01*
X106329932Y-92784842D01*
X106217990Y-92514589D01*
X106055475Y-92271368D01*
X105848632Y-92064525D01*
X105674240Y-91948000D01*
X105848632Y-91831475D01*
X106055475Y-91624632D01*
X106217990Y-91381411D01*
X106329932Y-91111158D01*
X106387000Y-90824260D01*
X106387000Y-90531740D01*
X106329932Y-90244842D01*
X106217990Y-89974589D01*
X106055475Y-89731368D01*
X105848632Y-89524525D01*
X105674240Y-89408000D01*
X105848632Y-89291475D01*
X106055475Y-89084632D01*
X106217990Y-88841411D01*
X106329932Y-88571158D01*
X106387000Y-88284260D01*
X106387000Y-87991740D01*
X106329932Y-87704842D01*
X106217990Y-87434589D01*
X106055475Y-87191368D01*
X105848632Y-86984525D01*
X105674240Y-86868000D01*
X105848632Y-86751475D01*
X106055475Y-86544632D01*
X106217990Y-86301411D01*
X106329932Y-86031158D01*
X106387000Y-85744260D01*
X106387000Y-85451740D01*
X106329932Y-85164842D01*
X106217990Y-84894589D01*
X106055475Y-84651368D01*
X105848632Y-84444525D01*
X105674240Y-84328000D01*
X105848632Y-84211475D01*
X106055475Y-84004632D01*
X106217990Y-83761411D01*
X106329932Y-83491158D01*
X106387000Y-83204260D01*
X106387000Y-82911740D01*
X106329932Y-82624842D01*
X106217990Y-82354589D01*
X106055475Y-82111368D01*
X105848632Y-81904525D01*
X105674240Y-81788000D01*
X105848632Y-81671475D01*
X106055475Y-81464632D01*
X106217990Y-81221411D01*
X106329932Y-80951158D01*
X106387000Y-80664260D01*
X106387000Y-80371740D01*
X106329932Y-80084842D01*
X106217990Y-79814589D01*
X106055475Y-79571368D01*
X105848632Y-79364525D01*
X105674240Y-79248000D01*
X105848632Y-79131475D01*
X106055475Y-78924632D01*
X106217990Y-78681411D01*
X106329932Y-78411158D01*
X106387000Y-78124260D01*
X106387000Y-77831740D01*
X106329932Y-77544842D01*
X106217990Y-77274589D01*
X106055475Y-77031368D01*
X105848632Y-76824525D01*
X105674240Y-76708000D01*
X105848632Y-76591475D01*
X106055475Y-76384632D01*
X106217990Y-76141411D01*
X106329932Y-75871158D01*
X106387000Y-75584260D01*
X106387000Y-75291740D01*
X106329932Y-75004842D01*
X106217990Y-74734589D01*
X106055475Y-74491368D01*
X105848632Y-74284525D01*
X105674240Y-74168000D01*
X105848632Y-74051475D01*
X106055475Y-73844632D01*
X106217990Y-73601411D01*
X106329932Y-73331158D01*
X106387000Y-73044260D01*
X106387000Y-72751740D01*
X106329932Y-72464842D01*
X106217990Y-72194589D01*
X106055475Y-71951368D01*
X105848632Y-71744525D01*
X105674240Y-71628000D01*
X105848632Y-71511475D01*
X106055475Y-71304632D01*
X106217990Y-71061411D01*
X106329932Y-70791158D01*
X106387000Y-70504260D01*
X106387000Y-70211740D01*
X106329932Y-69924842D01*
X106217990Y-69654589D01*
X106055475Y-69411368D01*
X105923620Y-69279513D01*
X105996180Y-69257502D01*
X106106494Y-69198537D01*
X106203185Y-69119185D01*
X106282537Y-69022494D01*
X106341502Y-68912180D01*
X106377812Y-68792482D01*
X106390072Y-68668000D01*
X106390072Y-66968000D01*
X106377812Y-66843518D01*
X106341502Y-66723820D01*
X106282537Y-66613506D01*
X106203185Y-66516815D01*
X106106494Y-66437463D01*
X105996180Y-66378498D01*
X105876482Y-66342188D01*
X105752000Y-66329928D01*
X104052000Y-66329928D01*
X103927518Y-66342188D01*
X103807820Y-66378498D01*
X103697506Y-66437463D01*
X103600815Y-66516815D01*
X103521463Y-66613506D01*
X103462498Y-66723820D01*
X103426188Y-66843518D01*
X103413928Y-66968000D01*
X100660000Y-66968000D01*
X100660000Y-57257740D01*
X103417000Y-57257740D01*
X103417000Y-57550260D01*
X103474068Y-57837158D01*
X103586010Y-58107411D01*
X103748525Y-58350632D01*
X103955368Y-58557475D01*
X104198589Y-58719990D01*
X104468842Y-58831932D01*
X104755740Y-58889000D01*
X105048260Y-58889000D01*
X105335158Y-58831932D01*
X105605411Y-58719990D01*
X105848632Y-58557475D01*
X106055475Y-58350632D01*
X106217990Y-58107411D01*
X106329932Y-57837158D01*
X106387000Y-57550260D01*
X106387000Y-57257740D01*
X106329932Y-56970842D01*
X106217990Y-56700589D01*
X106055475Y-56457368D01*
X105848632Y-56250525D01*
X105666466Y-56128805D01*
X105783355Y-56059178D01*
X105999588Y-55864269D01*
X106173641Y-55630920D01*
X106298825Y-55368099D01*
X106343476Y-55220890D01*
X106291439Y-55122285D01*
X107665000Y-55122285D01*
X107665000Y-55877715D01*
X107812377Y-56618628D01*
X108101467Y-57316554D01*
X108521161Y-57944670D01*
X109055330Y-58478839D01*
X109683446Y-58898533D01*
X110381372Y-59187623D01*
X111122285Y-59335000D01*
X111877715Y-59335000D01*
X112618628Y-59187623D01*
X113316554Y-58898533D01*
X113944670Y-58478839D01*
X114478839Y-57944670D01*
X114898533Y-57316554D01*
X115187623Y-56618628D01*
X115335000Y-55877715D01*
X115335000Y-55122285D01*
X115284477Y-54868285D01*
X123919000Y-54868285D01*
X123919000Y-55623715D01*
X124066377Y-56364628D01*
X124355467Y-57062554D01*
X124775161Y-57690670D01*
X125309330Y-58224839D01*
X125937446Y-58644533D01*
X126635372Y-58933623D01*
X127376285Y-59081000D01*
X128131715Y-59081000D01*
X128872628Y-58933623D01*
X129570554Y-58644533D01*
X130198670Y-58224839D01*
X130732839Y-57690670D01*
X131152533Y-57062554D01*
X131441623Y-56364628D01*
X131589000Y-55623715D01*
X131589000Y-54868285D01*
X131441623Y-54127372D01*
X131152533Y-53429446D01*
X130732839Y-52801330D01*
X130198670Y-52267161D01*
X129570554Y-51847467D01*
X128872628Y-51558377D01*
X128131715Y-51411000D01*
X127376285Y-51411000D01*
X126635372Y-51558377D01*
X125937446Y-51847467D01*
X125309330Y-52267161D01*
X124775161Y-52801330D01*
X124355467Y-53429446D01*
X124066377Y-54127372D01*
X123919000Y-54868285D01*
X115284477Y-54868285D01*
X115187623Y-54381372D01*
X114898533Y-53683446D01*
X114478839Y-53055330D01*
X113944670Y-52521161D01*
X113316554Y-52101467D01*
X112618628Y-51812377D01*
X111877715Y-51665000D01*
X111122285Y-51665000D01*
X110381372Y-51812377D01*
X109683446Y-52101467D01*
X109055330Y-52521161D01*
X108521161Y-53055330D01*
X108101467Y-53683446D01*
X107812377Y-54381372D01*
X107665000Y-55122285D01*
X106291439Y-55122285D01*
X106222155Y-54991000D01*
X105029000Y-54991000D01*
X105029000Y-55011000D01*
X104775000Y-55011000D01*
X104775000Y-54991000D01*
X103581845Y-54991000D01*
X103460524Y-55220890D01*
X103505175Y-55368099D01*
X103630359Y-55630920D01*
X103804412Y-55864269D01*
X104020645Y-56059178D01*
X104137534Y-56128805D01*
X103955368Y-56250525D01*
X103748525Y-56457368D01*
X103586010Y-56700589D01*
X103474068Y-56970842D01*
X103417000Y-57257740D01*
X100660000Y-57257740D01*
X100660000Y-41314000D01*
X103413928Y-41314000D01*
X103413928Y-43014000D01*
X103426188Y-43138482D01*
X103462498Y-43258180D01*
X103521463Y-43368494D01*
X103600815Y-43465185D01*
X103697506Y-43544537D01*
X103807820Y-43603502D01*
X103880380Y-43625513D01*
X103748525Y-43757368D01*
X103586010Y-44000589D01*
X103474068Y-44270842D01*
X103417000Y-44557740D01*
X103417000Y-44850260D01*
X103474068Y-45137158D01*
X103586010Y-45407411D01*
X103748525Y-45650632D01*
X103955368Y-45857475D01*
X104129760Y-45974000D01*
X103955368Y-46090525D01*
X103748525Y-46297368D01*
X103586010Y-46540589D01*
X103474068Y-46810842D01*
X103417000Y-47097740D01*
X103417000Y-47390260D01*
X103474068Y-47677158D01*
X103586010Y-47947411D01*
X103748525Y-48190632D01*
X103955368Y-48397475D01*
X104129760Y-48514000D01*
X103955368Y-48630525D01*
X103748525Y-48837368D01*
X103586010Y-49080589D01*
X103474068Y-49350842D01*
X103417000Y-49637740D01*
X103417000Y-49930260D01*
X103474068Y-50217158D01*
X103586010Y-50487411D01*
X103748525Y-50730632D01*
X103955368Y-50937475D01*
X104129760Y-51054000D01*
X103955368Y-51170525D01*
X103748525Y-51377368D01*
X103586010Y-51620589D01*
X103474068Y-51890842D01*
X103417000Y-52177740D01*
X103417000Y-52470260D01*
X103474068Y-52757158D01*
X103586010Y-53027411D01*
X103748525Y-53270632D01*
X103955368Y-53477475D01*
X104137534Y-53599195D01*
X104020645Y-53668822D01*
X103804412Y-53863731D01*
X103630359Y-54097080D01*
X103505175Y-54359901D01*
X103460524Y-54507110D01*
X103581845Y-54737000D01*
X104775000Y-54737000D01*
X104775000Y-54717000D01*
X105029000Y-54717000D01*
X105029000Y-54737000D01*
X106222155Y-54737000D01*
X106343476Y-54507110D01*
X106298825Y-54359901D01*
X106173641Y-54097080D01*
X105999588Y-53863731D01*
X105783355Y-53668822D01*
X105666466Y-53599195D01*
X105848632Y-53477475D01*
X106055475Y-53270632D01*
X106217990Y-53027411D01*
X106329932Y-52757158D01*
X106387000Y-52470260D01*
X106387000Y-52177740D01*
X106329932Y-51890842D01*
X106217990Y-51620589D01*
X106055475Y-51377368D01*
X105848632Y-51170525D01*
X105674240Y-51054000D01*
X105848632Y-50937475D01*
X106055475Y-50730632D01*
X106217990Y-50487411D01*
X106329932Y-50217158D01*
X106387000Y-49930260D01*
X106387000Y-49637740D01*
X106329932Y-49350842D01*
X106217990Y-49080589D01*
X106055475Y-48837368D01*
X105848632Y-48630525D01*
X105674240Y-48514000D01*
X105848632Y-48397475D01*
X105873442Y-48372665D01*
X133185000Y-48372665D01*
X133185000Y-48655335D01*
X133240147Y-48932574D01*
X133348320Y-49193727D01*
X133505363Y-49428759D01*
X133705241Y-49628637D01*
X133940273Y-49785680D01*
X134201426Y-49893853D01*
X134478665Y-49949000D01*
X134761335Y-49949000D01*
X135038574Y-49893853D01*
X135299727Y-49785680D01*
X135534759Y-49628637D01*
X135734637Y-49428759D01*
X135891680Y-49193727D01*
X135999853Y-48932574D01*
X136055000Y-48655335D01*
X136055000Y-48372665D01*
X135999853Y-48095426D01*
X135891680Y-47834273D01*
X135734637Y-47599241D01*
X135534759Y-47399363D01*
X135299727Y-47242320D01*
X135038574Y-47134147D01*
X134761335Y-47079000D01*
X134478665Y-47079000D01*
X134201426Y-47134147D01*
X133940273Y-47242320D01*
X133705241Y-47399363D01*
X133505363Y-47599241D01*
X133348320Y-47834273D01*
X133240147Y-48095426D01*
X133185000Y-48372665D01*
X105873442Y-48372665D01*
X106055475Y-48190632D01*
X106217990Y-47947411D01*
X106329932Y-47677158D01*
X106387000Y-47390260D01*
X106387000Y-47097740D01*
X106329932Y-46810842D01*
X106217990Y-46540589D01*
X106055475Y-46297368D01*
X105848632Y-46090525D01*
X105674240Y-45974000D01*
X105848632Y-45857475D01*
X106055475Y-45650632D01*
X106158095Y-45497050D01*
X117681000Y-45497050D01*
X117681000Y-45942949D01*
X117702487Y-46161110D01*
X117787401Y-46441033D01*
X117925294Y-46699013D01*
X118110866Y-46925134D01*
X118336986Y-47110706D01*
X118594966Y-47248599D01*
X118874889Y-47333513D01*
X119166000Y-47362185D01*
X119457110Y-47333513D01*
X119737033Y-47248599D01*
X119995013Y-47110706D01*
X120221134Y-46925134D01*
X120273223Y-46861663D01*
X120327595Y-46963386D01*
X120438038Y-47097962D01*
X120572614Y-47208405D01*
X120726150Y-47290472D01*
X120892746Y-47341008D01*
X121066000Y-47358072D01*
X122266000Y-47358072D01*
X122439254Y-47341008D01*
X122605850Y-47290472D01*
X122759386Y-47208405D01*
X122893962Y-47097962D01*
X123004405Y-46963386D01*
X123086472Y-46809850D01*
X123137008Y-46643254D01*
X123154072Y-46470000D01*
X123154072Y-44970000D01*
X123137008Y-44796746D01*
X123086472Y-44630150D01*
X123004405Y-44476614D01*
X122893962Y-44342038D01*
X122759386Y-44231595D01*
X122605850Y-44149528D01*
X122439254Y-44098992D01*
X122266000Y-44081928D01*
X121066000Y-44081928D01*
X120892746Y-44098992D01*
X120726150Y-44149528D01*
X120572614Y-44231595D01*
X120438038Y-44342038D01*
X120327595Y-44476614D01*
X120273223Y-44578337D01*
X120221134Y-44514866D01*
X119995014Y-44329294D01*
X119737034Y-44191401D01*
X119457111Y-44106487D01*
X119166000Y-44077815D01*
X118874890Y-44106487D01*
X118594967Y-44191401D01*
X118336987Y-44329294D01*
X118110866Y-44514866D01*
X117925294Y-44740986D01*
X117787401Y-44998966D01*
X117702487Y-45278889D01*
X117681000Y-45497050D01*
X106158095Y-45497050D01*
X106217990Y-45407411D01*
X106329932Y-45137158D01*
X106387000Y-44850260D01*
X106387000Y-44557740D01*
X106329932Y-44270842D01*
X106217990Y-44000589D01*
X106055475Y-43757368D01*
X105923620Y-43625513D01*
X105996180Y-43603502D01*
X106106494Y-43544537D01*
X106203185Y-43465185D01*
X106282537Y-43368494D01*
X106341502Y-43258180D01*
X106377812Y-43138482D01*
X106390072Y-43014000D01*
X106390072Y-41314000D01*
X106377812Y-41189518D01*
X106341502Y-41069820D01*
X106282537Y-40959506D01*
X106203185Y-40862815D01*
X106106494Y-40783463D01*
X105996180Y-40724498D01*
X105876482Y-40688188D01*
X105752000Y-40675928D01*
X104052000Y-40675928D01*
X103927518Y-40688188D01*
X103807820Y-40724498D01*
X103697506Y-40783463D01*
X103600815Y-40862815D01*
X103521463Y-40959506D01*
X103462498Y-41069820D01*
X103426188Y-41189518D01*
X103413928Y-41314000D01*
X100660000Y-41314000D01*
X100660000Y-38212665D01*
X133185000Y-38212665D01*
X133185000Y-38495335D01*
X133240147Y-38772574D01*
X133348320Y-39033727D01*
X133505363Y-39268759D01*
X133705241Y-39468637D01*
X133940273Y-39625680D01*
X134201426Y-39733853D01*
X134478665Y-39789000D01*
X134761335Y-39789000D01*
X135038574Y-39733853D01*
X135299727Y-39625680D01*
X135534759Y-39468637D01*
X135734637Y-39268759D01*
X135891680Y-39033727D01*
X135999853Y-38772574D01*
X136055000Y-38495335D01*
X136055000Y-38212665D01*
X135999853Y-37935426D01*
X135891680Y-37674273D01*
X135734637Y-37439241D01*
X135534759Y-37239363D01*
X135299727Y-37082320D01*
X135038574Y-36974147D01*
X134761335Y-36919000D01*
X134478665Y-36919000D01*
X134201426Y-36974147D01*
X133940273Y-37082320D01*
X133705241Y-37239363D01*
X133505363Y-37439241D01*
X133348320Y-37674273D01*
X133240147Y-37935426D01*
X133185000Y-38212665D01*
X100660000Y-38212665D01*
X100660000Y-36660000D01*
X138340000Y-36660000D01*
X138340001Y-154340000D01*
G37*
G04 #@! TD.AperFunction*
M02*
