G04 #@! TF.GenerationSoftware,KiCad,Pcbnew,(5.1.10-1-10_14)*
G04 #@! TF.CreationDate,2021-07-19T21:53:09+01:00*
G04 #@! TF.ProjectId,sofbpcb,736f6662-7063-4622-9e6b-696361645f70,1*
G04 #@! TF.SameCoordinates,Original*
G04 #@! TF.FileFunction,Soldermask,Top*
G04 #@! TF.FilePolarity,Negative*
%FSLAX46Y46*%
G04 Gerber Fmt 4.6, Leading zero omitted, Abs format (unit mm)*
G04 Created by KiCad (PCBNEW (5.1.10-1-10_14)) date 2021-07-19 21:53:09*
%MOMM*%
%LPD*%
G01*
G04 APERTURE LIST*
%ADD10C,6.400000*%
%ADD11R,1.700000X1.700000*%
%ADD12O,1.700000X1.700000*%
%ADD13O,1.700000X2.000000*%
%ADD14C,1.600000*%
%ADD15O,1.600000X1.600000*%
%ADD16R,1.600000X1.600000*%
%ADD17R,2.200000X2.200000*%
%ADD18O,2.200000X2.200000*%
%ADD19R,1.800000X1.800000*%
%ADD20C,1.800000*%
G04 APERTURE END LIST*
D10*
X127754000Y-55246000D03*
X111500000Y-55500000D03*
X109500000Y-145500000D03*
D11*
X104902000Y-42164000D03*
D12*
X104902000Y-44704000D03*
X104902000Y-47244000D03*
X104902000Y-49784000D03*
X104902000Y-52324000D03*
X104902000Y-54864000D03*
X104902000Y-57404000D03*
D13*
X120610000Y-144780000D03*
G36*
G01*
X117260000Y-145530000D02*
X117260000Y-144030000D01*
G75*
G02*
X117510000Y-143780000I250000J0D01*
G01*
X118710000Y-143780000D01*
G75*
G02*
X118960000Y-144030000I0J-250000D01*
G01*
X118960000Y-145530000D01*
G75*
G02*
X118710000Y-145780000I-250000J0D01*
G01*
X117510000Y-145780000D01*
G75*
G02*
X117260000Y-145530000I0J250000D01*
G01*
G37*
G36*
G01*
X122516000Y-44970000D02*
X122516000Y-46470000D01*
G75*
G02*
X122266000Y-46720000I-250000J0D01*
G01*
X121066000Y-46720000D01*
G75*
G02*
X120816000Y-46470000I0J250000D01*
G01*
X120816000Y-44970000D01*
G75*
G02*
X121066000Y-44720000I250000J0D01*
G01*
X122266000Y-44720000D01*
G75*
G02*
X122516000Y-44970000I0J-250000D01*
G01*
G37*
X119166000Y-45720000D03*
G36*
G01*
X132500000Y-145530000D02*
X132500000Y-144030000D01*
G75*
G02*
X132750000Y-143780000I250000J0D01*
G01*
X133950000Y-143780000D01*
G75*
G02*
X134200000Y-144030000I0J-250000D01*
G01*
X134200000Y-145530000D01*
G75*
G02*
X133950000Y-145780000I-250000J0D01*
G01*
X132750000Y-145780000D01*
G75*
G02*
X132500000Y-145530000I0J250000D01*
G01*
G37*
X135850000Y-144780000D03*
D11*
X104902000Y-67818000D03*
D12*
X104902000Y-70358000D03*
X104902000Y-72898000D03*
X104902000Y-75438000D03*
X104902000Y-77978000D03*
X104902000Y-80518000D03*
X104902000Y-83058000D03*
X104902000Y-85598000D03*
X104902000Y-88138000D03*
X104902000Y-90678000D03*
X104902000Y-93218000D03*
X104902000Y-95758000D03*
X104902000Y-98298000D03*
X104902000Y-100838000D03*
X104902000Y-103378000D03*
X104902000Y-105918000D03*
X104902000Y-108458000D03*
X104902000Y-110998000D03*
X104902000Y-113538000D03*
X104902000Y-116078000D03*
X104902000Y-118618000D03*
X104902000Y-121158000D03*
X104902000Y-123698000D03*
X104902000Y-126238000D03*
X120142000Y-67798000D03*
X120142000Y-70338000D03*
X120142000Y-72878000D03*
X120142000Y-75418000D03*
X120142000Y-77958000D03*
X120142000Y-80498000D03*
X120142000Y-83038000D03*
X120142000Y-85578000D03*
X120142000Y-88118000D03*
X120142000Y-90658000D03*
X120142000Y-93198000D03*
X120142000Y-95738000D03*
X120142000Y-98278000D03*
X120142000Y-100818000D03*
X120142000Y-103358000D03*
X120142000Y-105898000D03*
X120142000Y-108438000D03*
X120142000Y-110978000D03*
X120142000Y-113518000D03*
X120142000Y-116058000D03*
X120142000Y-118598000D03*
X120142000Y-121138000D03*
X120142000Y-123678000D03*
D11*
X120142000Y-126218000D03*
D14*
X134620000Y-38354000D03*
D15*
X134620000Y-48514000D03*
X132842000Y-100584000D03*
D14*
X132842000Y-110744000D03*
X127508000Y-123952000D03*
D15*
X127508000Y-113792000D03*
X125730000Y-94488000D03*
D14*
X125730000Y-104648000D03*
X134620000Y-130810000D03*
D15*
X134620000Y-120650000D03*
D16*
X125476000Y-67818000D03*
D15*
X133096000Y-85598000D03*
X125476000Y-70358000D03*
X133096000Y-83058000D03*
X125476000Y-72898000D03*
X133096000Y-80518000D03*
X125476000Y-75438000D03*
X133096000Y-77978000D03*
X125476000Y-77978000D03*
X133096000Y-75438000D03*
X125476000Y-80518000D03*
X133096000Y-72898000D03*
X125476000Y-83058000D03*
X133096000Y-70358000D03*
X125476000Y-85598000D03*
X133096000Y-67818000D03*
D11*
X102362000Y-152654000D03*
D12*
X102362000Y-150114000D03*
X102362000Y-147574000D03*
X102362000Y-145034000D03*
X102362000Y-142494000D03*
X102362000Y-139954000D03*
X102362000Y-137414000D03*
X102362000Y-134874000D03*
D17*
X112522000Y-118110000D03*
D18*
X112522000Y-128270000D03*
D19*
X134874000Y-136500000D03*
D20*
X134874000Y-139040000D03*
X120396000Y-139040000D03*
D19*
X120396000Y-136500000D03*
X108204000Y-136500000D03*
D20*
X108204000Y-139040000D03*
M02*
